<?xml version="1.0" encoding="UTF-8" standalone="no"?>
<!-- Created with Inkscape (http://www.inkscape.org/) -->

<svg
   width="2048"
   height="2048"
   version="1.1"
   viewBox="0 0 2048 2048"
   id="svg1"
   sodipodi:docname="auth_background.svg"
   inkscape:version="1.4.3 (0d15f75042, 2025-12-25)"
   xmlns:inkscape="http://www.inkscape.org/namespaces/inkscape"
   xmlns:sodipodi="http://sodipodi.sourceforge.net/DTD/sodipodi-0.dtd"
   xmlns="http://www.w3.org/2000/svg"
   xmlns:svg="http://www.w3.org/2000/svg">
  <defs
     id="defs1" />
  <sodipodi:namedview
     id="namedview1"
     pagecolor="#ffffff"
     bordercolor="#000000"
     borderopacity="0.25"
     inkscape:showpageshadow="2"
     inkscape:pageopacity="0.0"
     inkscape:pagecheckerboard="0"
     inkscape:deskcolor="#d1d1d1"
     inkscape:zoom="0.30192314"
     inkscape:cx="1184.0762"
     inkscape:cy="877.70682"
     inkscape:window-width="1920"
     inkscape:window-height="1008"
     inkscape:window-x="0"
     inkscape:window-y="0"
     inkscape:window-maximized="1"
     inkscape:current-layer="g1" />
  <g
     id="g1"
     transform="matrix(1.0833265,0,0,1.2014786,-171.10208,-362.13945)">
    <path
       d="m 975.68935,2016.9705 c -2.42931,-22.0256 -3.92492,-30.2848 -8.89992,-49.1456 -4.77124,-18.0884 -3.65634,-27.0902 3.8984,-31.4719 2.98497,-1.7314 4.64787,-1.8347 22.55754,-1.4007 12.77403,0.3096 24.33363,0.01 34.06653,-0.8965 17.1419,-1.5883 18.2283,-1.7608 30.2906,-4.8098 5.466,-1.3816 11.8846,-2.3038 16.0361,-2.3038 10.5919,0 6.9134,-1.3814 -5.1234,-1.9238 -6.2681,-0.2826 -10.8046,-0.9 -10.9933,-1.4963 -0.1765,-0.5584 1.4359,-2.0469 3.5828,-3.3076 l 3.9038,-2.2922 -3.063,-1.3058 c -8.5222,-3.6331 -19.8746,-4.0022 -39.0145,-1.2684 -35.03876,5.0047 -51.32715,2.7628 -57.65523,-7.9361 -3.32158,-5.6151 -3.36927,-10.4111 -0.23626,-23.7571 5.13429,-21.8707 6.69214,-36.9963 8.37171,-81.2841 1.0452,-27.5596 0.43328,-93.2074 -1.34489,-144.2913 -0.54267,-15.5883 -1.15936,-39.8148 -2.30189,-90.4226 -0.48963,-21.6918 -1.11112,-47.6642 -1.38088,-57.7165 -2.35906,-87.8907 -2.29038,-86.2622 -4.68736,-111.1043 -1.60095,-16.5916 -4.07629,-31.1814 -7.78457,-45.8847 -4.06993,-16.1365 -3.28244,-22.6027 3.34413,-27.4625 5.11715,-3.7526 11.90394,-4.2597 28.78712,-2.1509 13.05482,1.6306 14.58042,1.6362 29.28332,0.1078 8.5309,-0.8869 18.825,-2.4927 22.8762,-3.5684 10.6895,-2.8382 24.5509,-2.8703 30.089,-0.069 10.1794,5.1483 11.903,12.3658 7.7049,32.2587 -5.5705,26.3948 -6.3081,37.0406 -6.406,92.4619 -0.079,45.0584 1.0618,135.0086 1.7515,138.0387 0.1805,0.7936 0.5808,12.9141 0.8895,26.9344 0.5516,25.0519 1.8982,63.7489 2.7783,79.8412 0.246,4.4971 0.6906,14.2368 0.9881,21.6437 1.4001,34.8627 10.5183,128.7175 12.7288,131.0262 0.1346,0.1405 0.9911,-3.0936 1.9037,-7.1869 2.7928,-12.5283 13.8347,-49.8344 19.7116,-66.602 17.1198,-48.8368 44.2828,-104.6497 70.3557,-144.5511 3.2185,-4.9264 3.6119,-6.1172 3.2203,-9.7483 -0.2492,-2.3094 -2.557,-8.4766 -5.2251,-13.9626 -5.8526,-12.0348 -9.6012,-22.0246 -12.3007,-32.782 -1.8287,-7.287 -2.0487,-10.4784 -2.0223,-29.3392 0.021,-15.9904 0.432,-23.5137 1.6762,-30.7822 2.6644,-15.5632 6.9115,-32.6974 11.8028,-47.6161 2.5151,-7.6715 10.0818,-30.9919 16.815,-51.8227 13.157,-40.7046 12.4941,-39.4839 13.8963,-25.6137 0.3208,3.1744 1.369,12.2648 2.3294,20.2008 7.3341,60.6053 8.2878,101.3502 3.0731,131.3051 -3.8188,21.9342 -9.6602,39.8331 -19.5791,59.9944 -4.7273,9.6092 -7.4844,16.3357 -7.4815,18.2529 v 3.0363 l 2.3168,-2.8859 c 1.2741,-1.5872 4.2623,-5.483 6.6404,-8.6574 2.3781,-3.1744 8.8388,-11.3991 14.3577,-18.2769 12.8411,-16.0048 13.4589,-17.3987 13.4847,-30.4157 0.035,-17.5679 3.9095,-36.043 10.5671,-50.3875 10.1029,-21.7659 27.3932,-43.5846 53.443,-67.4398 7.0514,-6.4575 11.426,-10.1735 37.2889,-31.6749 12.1461,-10.0975 31.8329,-27.8184 36.1952,-32.5809 l 2.5895,-2.8268 -0.665,2.8113 c -0.3657,1.5462 -1.4003,4.3263 -2.299,6.178 -0.8986,1.8518 -3.1618,7.2627 -5.0291,12.0243 -12.8155,32.6782 -41.8852,81.1139 -62.3518,103.8898 -3.8035,4.2325 -6.776,7.851 -6.6056,8.0409 0.1704,0.19 1.5603,-0.5848 3.0888,-1.7219 5.0954,-3.7908 28.9509,-15.2449 40.1211,-19.2629 18.3895,-6.6161 38.5466,-11.0902 75.5181,-16.7628 20.3459,-3.1218 64.9067,-5.93 59.3861,-3.7426 -0.7596,0.301 -8.0103,3.9256 -16.1125,8.0548 -13.2491,6.7521 -30.9029,17.2707 -44.0157,26.2244 -2.6305,1.7963 -9.5479,6.1938 -15.3705,9.7724 -5.8226,3.5786 -12.4526,7.6607 -14.7314,9.0715 -2.2788,1.4108 -10.7834,6.0738 -18.8987,10.3621 -23.7821,12.5677 -54.1151,22.1804 -77.1348,24.4458 -22.4618,2.2103 -29.2088,3.4272 -32.4773,5.8576 -3.3662,2.5023 -16.2783,15.268 -15.8456,15.6653 0.1454,0.1332 6.4792,-2.1269 14.0751,-5.0224 23.8419,-9.0884 33.1273,-11.0027 53.1998,-10.9671 13.2427,0.023 24.9358,1.0985 32.4268,2.9824 2.0255,0.5093 8.5299,2.0263 14.4543,3.3712 22.5667,5.1226 44.5893,13.017 65.6479,23.533 5.064,2.5286 13.4406,6.6338 18.6151,9.1227 9.2037,4.4268 22.8282,11.8608 33.8658,18.477 l 5.5243,3.3119 -6.4451,-0.5536 c -3.5447,-0.3045 -30.4756,-0.9372 -59.8465,-1.4061 -29.3709,-0.4689 -54.4374,-1.077 -55.7033,-1.3514 -1.266,-0.2744 -6.0307,-0.9935 -10.5882,-1.598 -39.9343,-5.2967 -71.6567,-16.8715 -92.9003,-33.8979 -8.068,-6.4662 -14.7398,-4.4885 -21.9067,6.4931 -2.4166,3.7035 -4.4014,7.0583 -4.4104,7.4551 -0.01,0.3968 6.1825,0.7214 13.7592,0.7214 14.9137,0 21.2667,1.1237 39.1662,6.9271 14.599,4.7333 19.6887,7.3156 38.4888,19.5264 26.837,17.4304 56.5116,46.028 93.333,89.9416 7.7627,9.2585 14.1136,17.2082 14.1136,17.6661 0,0.4579 -0.9322,0.1942 -2.0716,-0.5857 -1.1393,-0.78 -8.4936,-4.9105 -16.3427,-9.1792 -16.7137,-9.0893 -30.565,-15.3958 -60.503,-27.5481 -18.6289,-7.5616 -43.236,-19.9218 -61.7377,-31.0111 -22.3549,-13.3988 -44.1621,-33.2985 -55.1721,-50.3461 -2.5626,-3.968 -5.4872,-7.9895 -6.499,-8.9366 -1.7937,-1.6789 -1.9321,-1.6063 -5.5048,2.8858 -5.514,6.9326 -7.1614,10.8603 -4.5552,10.8603 0.6713,0 2.1938,1.0822 3.383,2.4049 1.1893,1.3227 2.477,2.4048 2.8616,2.4048 0.3844,0 2.9017,1.3738 5.5939,3.0529 22.9967,14.3425 32.934,24.0822 46.3397,45.421 9.3305,14.8514 21.1396,39.1443 27.8737,57.3394 5.9027,15.949 14.5804,45.7413 20.034,68.7789 2.7551,11.6395 5.4071,22.6364 5.8933,24.4371 1.087,4.026 1.0382,3.9728 -8.3004,-9.0456 -11.0946,-15.4661 -29.5827,-38.0785 -43.6504,-53.3878 -8.6441,-9.4072 -23.7415,-28.8563 -33.8353,-43.5865 -17.3186,-25.2751 -28.6711,-54.7769 -32.0676,-83.3379 -0.5349,-4.4965 -1.0596,-8.2667 -1.1664,-8.3781 -0.3444,-0.36 -10.0044,16.1885 -16.0905,27.5654 -17.1666,32.0885 -25.6952,49.4217 -31.1073,63.2227 -1.821,4.6434 -4.9707,12.1224 -6.9993,16.6185 -17.3868,38.5431 -33.5398,90.0743 -42.2149,134.6719 -3.1599,16.2453 -3.2409,18.149 -1.1958,28.0926 1.2902,6.2731 1.3496,8.095 0.3743,11.4961 -1.6533,5.7649 -9.0267,12.8679 -18.7311,18.0451 -4.3772,2.335 -7.7478,4.6018 -7.4901,5.0373 0.2577,0.4356 3.4513,1.7305 7.097,2.8777 8.3734,2.6347 15.7322,6.915 18.5653,10.7987 3.0052,4.1196 3.3309,9.5885 1.2916,21.6861 -5.2876,31.3689 -123.99281,73.9897 -125.61326,59.3306 z m 271.41785,-467.8502 c 4.4158,-4.562 7.8688,-8.4614 7.6736,-8.6655 -1.0789,-1.1273 -29.0523,25.5175 -29.0523,27.6722 0,1.4783 11.1204,-8.4083 21.379,-19.007 z M 968.45251,1308.35 c -15.10619,-2.3932 -18.7826,-12.4494 -13.56858,-37.1107 4.94553,-23.3897 6.35699,-35.3274 7.94439,-67.1888 0.26361,-5.2907 0.73685,-14.1646 1.05156,-19.7198 0.58327,-10.2938 0.53299,-105.0634 -0.0599,-112.0663 -0.17898,-2.1163 -0.42813,-23.3271 -0.55353,-47.1352 -0.12541,-23.808 -0.53705,-51.0791 -0.91473,-60.60233 -0.37778,-9.52322 -0.96464,-27.48749 -1.30429,-39.9206 -1.58842,-58.15421 -5.39245,-94.53679 -13.07141,-125.01401 -4.90954,-19.48702 -3.80512,-24.85851 6.18317,-30.07127 4.93724,-2.57647 5.21484,-2.60879 16.53053,-1.92494 23.88338,1.44349 52.41088,-0.66436 64.36538,-4.75565 9.9309,-3.39893 20.8662,-2.81349 26.1428,1.39962 7.5056,5.99319 8.5804,13.88564 4.7441,34.83578 -2.1008,11.47212 -5.0318,32.69257 -6.3114,45.69225 -0.2863,2.90988 -0.7681,26.93438 -1.0705,53.38779 -0.3023,26.45341 -0.6528,48.52422 -0.7786,49.04559 -0.1258,0.52137 -3.7145,-5.53454 -7.9749,-13.45853 -7.0965,-13.19978 -7.7888,-14.16653 -8.2577,-11.52984 -1.6831,9.4632 -1.7666,73.79154 -0.1136,87.52804 3.4496,28.6659 8.5281,56.0688 14.4405,77.9174 2.0827,7.6964 2.438,11.4298 3.2008,33.6304 1.5092,43.9271 4.1458,79.3891 7.834,105.3712 2.7601,19.4437 7.0187,42.3254 7.8771,42.3254 0.3488,0 0.886,-1.3163 1.194,-2.9252 0.8001,-4.1798 10.0137,-28.9593 16.4385,-44.2099 5.7176,-13.5721 23.3078,-50.7964 24.7506,-52.3778 2.3434,-2.5674 -0.8135,-7.3254 -9.2402,-13.927 -22.2896,-17.4602 -36.5277,-42.4457 -47.4566,-83.2773 -6.0263,-22.5152 -9.2707,-43.0161 -11.9491,-75.51242 -1.5055,-18.26536 -2.3026,-55.79361 -1.1848,-55.79265 0.3798,2.6e-4 0.6905,0.56192 0.6905,1.24812 0,1.49938 23.7637,46.44931 29.5983,55.98793 10.4473,17.07732 22.3338,40.63152 28.6417,56.75462 13.3181,34.0431 16.0885,55.4377 13.0042,100.4267 -0.724,10.5583 -0.01,10.8373 4.4045,1.7095 1.5788,-3.2681 3.7911,-7.2407 4.9161,-8.8279 5.0735,-7.1576 5.27,-13.4845 1.0215,-32.8869 -5.9398,-27.1258 -6.4748,-31.2535 -6.397,-49.3592 0.09,-20.7212 1.9131,-31.6902 10.3535,-62.2598 4.0434,-14.64459 23.237,-57.71266 37.8433,-84.91639 7.7854,-14.50032 16.9218,-30.53589 18.0423,-31.66618 0.5154,-0.52013 -0.2334,18.33751 -1.0283,25.89453 -0.1948,1.85174 -0.5931,11.5914 -0.8852,21.6437 -0.9909,34.10469 -1.9758,48.89937 -4.643,69.74084 -3.1994,24.9999 -6.2471,39.9639 -11.951,58.6784 -4.6653,15.3065 -4.684,15.4392 -1.473,10.4621 14.9672,-23.202 56.5062,-59.0834 96.574,-83.42441 6.2278,-3.78313 11.4924,-6.87828 11.6986,-6.87828 0.2062,0 2.5688,-1.35393 5.2496,-3.00885 6.1865,-3.81882 36.2376,-20.07766 37.1094,-20.07766 0.3597,0 -0.1943,0.75753 -1.2314,1.6834 -2.275,2.03075 -21.8698,30.57148 -36.6676,53.4099 -13.843,21.3628 -15.9228,24.3044 -29.4011,41.5819 -16.4772,21.1214 -32.2298,36.7154 -49.3707,48.8772 -12.566,8.9148 -19.442,12.2282 -52.5803,25.3347 -3.4511,1.365 -7.3098,3.6229 -8.5748,5.0176 -4.1713,4.5989 -9.7882,15.3834 -17.3169,33.2476 -3.8254,9.0772 -1.793,9.0168 7.0827,-0.2106 12.5374,-13.0343 19.3285,-17.693 34.1162,-23.404 25.1521,-9.7137 55.1509,-13.3297 94.9442,-11.4442 22.6947,1.0751 49.0972,3.3587 54.8434,4.7434 2.7814,0.6702 2.9704,0.8812 1.381,1.542 -1.0127,0.4209 -5.7774,2.387 -10.5882,4.3689 -6.878,2.8336 -28.173,12.7506 -47.4169,22.0804 -9.9952,4.8467 -29.6525,11.8877 -42.8132,15.3353 -25.1043,6.577 -29.6544,7.2623 -47.8773,7.2107 -17.7293,-0.05 -25.4412,-1.2878 -39.5051,-6.3402 -4.7654,-1.7119 -5.0972,-1.7161 -7.749,-0.098 -4.6097,2.8127 -12.5862,20.6548 -24.8326,55.5473 -7.783,22.1747 -10.847,31.9442 -14.4369,46.0318 -3.2658,12.816 -7.9113,19.8151 -14.4028,21.6976 -4.8561,1.4087 -6.5451,1.3298 -18.7669,-0.8761 -11.5274,-2.0806 -28.6785,-2.4564 -42.353,-0.9282 -4.3043,0.4811 -12.17642,1.1961 -17.49356,1.589 -7.17043,0.53 -8.83518,0.8768 -6.445,1.3431 l 3.2225,0.6286 -3.3376,0.1267 c -1.83572,0.069 -4.52881,0.3052 -5.98465,0.5236 -1.45593,0.2184 -5.10427,0.01 -8.10745,-0.4681 z m 171.87009,-175.237 c 0.7708,-1.2291 2.7566,-5.6836 4.413,-9.8993 1.6564,-4.2154 3.3392,-8.1114 3.7397,-8.6578 1.1202,-1.5286 2.9067,-6.8308 1.9339,-5.7402 -5.6539,6.3388 -14.8153,23.0818 -14.888,27.2085 -0.032,1.7713 3.0283,-0.084 4.8016,-2.9117 z M 959.43871,754.35501 c -10.28532,-1.93302 -15.4358,-7.21168 -15.40726,-15.79317 0.009,-2.6994 0.65628,-7.93804 1.43889,-11.64142 2.91306,-13.7856 4.01312,-21.88419 6.92498,-50.98294 2.94067,-29.38733 2.98506,-30.53974 3.0566,-79.36023 0.069,-47.47089 -0.79551,-114.49998 -1.81869,-140.92453 -0.26628,-6.87789 -0.86741,-20.94629 -1.33578,-31.26312 -0.46837,-10.31683 -1.09887,-25.25099 -1.40106,-33.18701 -1.23845,-32.52711 94.82451,-113.74966 94.82451,-113.74966 -1.6947,36.05551 -2.048,57.55107 -1.7036,103.64927 0.2076,27.77608 0.5684,52.4499 0.8018,54.8307 0.2335,2.38081 0.6557,17.74784 0.9382,34.14895 0.2826,16.40112 0.7009,31.55171 0.9299,33.66798 0.2288,2.11627 0.837,14.66962 1.3515,27.89632 2.5996,66.83478 2.747,70.08615 4.2066,92.82742 1.7732,27.62698 2.8313,38.31705 6.0161,60.78513 2.8535,20.13057 3.9923,25.93973 7.2808,37.14251 2.7503,9.36922 2.322,17.36595 -1.2169,22.72012 -3.2751,4.95496 -4.8783,6.03195 -11.6968,7.85695 -6.2407,1.67041 -10.6554,1.44609 -20.6811,-1.05102 -8.4279,-2.09915 -38.18117,-1.52891 -47.38834,0.90825 -7.23084,1.91397 -19.17482,2.63687 -25.11713,1.52025 z"
       id="path1"
       style="stroke-width:0.941108"
       sodipodi:nodetypes="cssscssssscssssssscsssssscscssssssccscscssssscsccsscscssscsscssscsssssscscsscssssccsssssscssccsssssssssssssssssscsccscssssssssccccsccccssssscccsscsssscssssssssccssssccscsscssssssscssssscscsssssssssccssssscssssccscccssscccscsssscssscssscssssssss" />
    <circle
       cx="950.47998"
       cy="540.88"
       r="1.3218"
       stroke="#000000"
       id="circle1" />
  </g>
</svg>
