<?xml version="1.0" encoding="UTF-8"?>
<!-- Created with Inkscape (http://www.inkscape.org/) -->
<svg width="2048" height="2048" version="1.1" viewBox="0 0 2048 2048" xmlns="http://www.w3.org/2000/svg">
 <g>
  <path d="m5.2513 2019.1c0-12.421 0.0531-12.726 2.5625-14.7 4.4221-3.4784 9.0194-4.4161 18.313-3.7352 31.818 2.3315 46.032 1.8173 79.625-2.8807 11.222-1.5694 19.702-1.1191 29.969 1.5914 4.434 1.1705 9.8384 5.7447 12.264 10.38 2.4564 4.6946-142.73 16.321-142.73 9.3445zm331.93-24.467c-3.1503-14.091-3.8489-22.782-2.095-26.059 0.60114-1.1232 2.69-2.8 4.6418-3.7262 3.1479-1.4938 7.3605-1.6528 37.285-1.4073 33.189 0.2722 33.93 0.2342 45.736-2.3429 14.21-3.102 21.912-3.0533 28.795 0.182 5.6094 2.6368 8.2923 5.7444 9.8031 11.355 1.3902 5.1627 0.74261 11.388-3.0827 29.636-4.1982 20.027-114.87 20.154-121.08-7.638zm561.5 21.228c-2.6385-22.897-4.2629-31.483-9.6663-51.09-5.1821-18.804-3.9712-28.162 4.2341-32.717 3.242-1.7999 5.0481-1.9073 24.5-1.4561 13.874 0.3218 26.429 0.01 37-0.932 18.618-1.6512 19.798-1.8305 32.899-5.0001 5.9367-1.4363 12.908-2.3949 17.417-2.3949 11.504 0 7.5087-1.4361-5.5646-2-6.8079-0.2937-11.735-0.9356-11.94-1.5555-0.1917-0.5805 1.5595-2.1278 3.8914-3.4384l4.2399-2.3829-3.3268-1.3575c-9.256-3.7768-21.586-4.1605-42.374-1.3186-38.056 5.2028-55.747 2.8722-62.62-8.25-3.6076-5.8373-3.6594-10.823-0.2566-24.697 5.5764-22.736 7.2684-38.46 9.0926-84.5 1.1352-28.65 0.4706-96.895-1.4607-150-0.5894-16.205-1.2592-41.39-2.5001-94-0.5318-22.55-1.2068-49.55-1.4998-60-2.5622-91.368-2.4876-89.675-5.091-115.5-1.7388-17.248-4.4273-32.415-8.4549-47.7-4.4204-16.775-3.5651-23.497 3.6321-28.549 5.5578-3.9011 12.929-4.4283 31.266-2.236 14.179 1.6951 15.836 1.7009 31.805 0.112 9.2655-0.922 20.446-2.5913 24.846-3.7096 11.61-2.9505 26.665-2.9838 32.68-0.072 11.056 5.352 12.928 12.855 8.3684 33.535-6.0502 27.439-6.8513 38.506-6.9576 96.12-0.086 46.841 1.1532 140.35 1.9023 143.5 0.1961 0.825 0.6308 13.425 0.9661 28 0.5992 26.043 2.0617 66.271 3.0175 83 0.2672 4.675 0.7501 14.8 1.0732 22.5 1.5207 36.242 11.424 133.81 13.825 136.21 0.1461 0.1461 1.0765-3.2159 2.0676-7.4712 3.0332-13.024 15.026-51.806 21.409-69.237 18.594-50.769 48.096-108.79 76.414-150.27 3.4958-5.1214 3.923-6.3593 3.4976-10.134-0.2706-2.4008-2.7772-8.812-5.6749-14.515-6.3567-12.511-10.428-22.896-13.36-34.079-1.9862-7.5753-2.2251-10.893-2.1965-30.5 0.024-16.623 0.4693-24.444 1.8207-32 2.8938-16.179 7.5065-33.991 12.819-49.5 2.7317-7.975 10.95-32.218 18.263-53.873 14.29-42.315 13.57-41.046 15.093-26.627 0.3484 3.3 1.4869 12.75 2.53 21 7.9656 63.003 9.0014 105.36 3.3376 136.5-4.1476 22.802-10.492 41.409-21.265 62.368-5.1344 9.9893-8.1289 16.982-8.1257 18.975v3.1564l2.5162-3c1.3839-1.65 4.6294-5.7 7.2122-9 2.5829-3.3 9.6-11.85 15.594-19 13.947-16.638 14.618-18.087 14.646-31.619 0.038-18.263 4.2461-37.469 11.477-52.381 10.973-22.627 29.752-45.309 58.045-70.108 7.6586-6.7129 12.41-10.576 40.5-32.928 13.192-10.497 34.574-28.919 39.312-33.87l2.8124-2.9386-0.7222 2.9225c-0.3972 1.6074-1.5209 4.4975-2.497 6.4225-0.976 1.925-3.4341 7.55-5.4622 12.5-13.919 33.971-45.492 84.323-67.721 108-4.1309 4.4-7.3594 8.1616-7.1743 8.3591 0.185 0.1975 1.6947-0.608 3.3547-1.7901 5.5342-3.9407 31.444-15.848 43.576-20.025 19.973-6.8778 41.866-11.529 82.021-17.426 22.098-3.2453 70.496-6.1646 64.5-3.8906-0.825 0.3129-8.7 4.0809-17.5 8.3734-14.39 7.0193-33.564 17.954-47.806 27.262-2.857 1.8673-10.37 6.4388-16.694 10.159s-13.525 7.9638-16 9.4304-11.712 6.3141-20.526 10.772c-25.83 13.065-58.775 23.058-83.777 25.413-24.396 2.2978-31.724 3.5628-35.274 6.0894-3.656 2.6013-17.68 15.872-17.21 16.285 0.1578 0.1385 7.037-2.211 15.287-5.2211 25.895-9.4479 35.98-11.438 57.781-11.401 14.383 0.024 27.083 1.142 35.219 3.1004 2.2 0.5295 9.2645 2.1065 15.699 3.5046 24.51 5.3253 48.429 13.532 71.301 24.464 5.5 2.6287 14.598 6.8963 20.218 9.4837 9.9963 4.6019 24.794 12.33 36.782 19.208l6 3.4429-7-0.5755c-3.85-0.3165-33.1-0.9743-65-1.4617-31.9-0.4875-59.125-1.1196-60.5-1.4049-1.375-0.2852-6.55-1.0328-11.5-1.6612-43.373-5.5063-77.827-17.539-100.9-35.239-8.7626-6.722-16.009-4.6661-23.793 6.75-2.6249 3.85-4.7805 7.3375-4.7903 7.75-0.01 0.4125 6.7149 0.75 14.944 0.75 16.198 0 23.098 1.1681 42.539 7.2011 15.856 4.9206 21.384 7.6051 41.803 20.299 29.148 18.12 61.378 47.849 101.37 93.5 8.4312 9.6248 15.329 17.889 15.329 18.365s-1.0125 0.2019-2.25-0.6089-9.225-5.1048-17.75-9.5423c-18.153-9.4489-33.197-16.005-65.713-28.638-20.233-7.8608-46.959-20.71-67.054-32.238-24.28-13.929-47.965-34.616-59.923-52.338-2.7833-4.125-5.9597-8.3056-7.0587-9.2902-1.9481-1.7453-2.0984-1.6698-5.9788 3-5.9888 7.2069-7.7781 11.29-4.9474 11.29 0.7291 0 2.3826 1.125 3.6743 2.5s2.6903 2.5 3.1079 2.5 3.1516 1.4281 6.0757 3.1736c24.977 14.91 35.77 25.035 50.33 47.218 10.134 15.439 22.96 40.693 30.274 59.608 6.411 16.58 15.836 47.551 21.759 71.5 2.9925 12.1 5.8729 23.532 6.4009 25.404 1.1806 4.1852 1.1276 4.1299-9.0152-9.4035-12.05-16.078-32.13-39.585-47.409-55.5-9.3886-9.7794-25.786-29.998-36.749-45.311-18.81-26.275-31.14-56.944-34.829-86.635-0.5809-4.6744-1.1509-8.5938-1.2668-8.7096-0.3742-0.3742-10.866 16.829-17.476 28.656-18.645 33.358-27.908 51.377-33.786 65.724-1.9779 4.8271-5.3988 12.602-7.6021 17.276-18.884 40.068-36.428 93.638-45.85 140-3.4321 16.888-3.5201 18.867-1.2989 29.204 1.4013 6.5213 1.4658 8.4153 0.4066 11.951-1.7956 5.9929-9.804 13.377-20.344 18.759-4.7542 2.4274-8.415 4.7839-8.1352 5.2366 0.2799 0.4528 3.7485 1.799 7.7081 2.9915 9.0945 2.739 17.087 7.1886 20.164 11.226 3.264 4.2826 3.6178 9.9678 1.4029 22.544-5.7429 32.61-134.67 76.917-136.43 61.678zm294.79-486.36c4.796-4.7425 8.5464-8.7962 8.3343-9.0083-1.1718-1.1719-31.554 26.527-31.554 28.767 0 1.5367 12.078-8.741 23.22-19.759zm488.29 495.27c0.3271-6.6 1.2427-22.575 2.0348-35.5 1.661-27.106 1.8554-57.415 0.4535-70.721-0.5343-5.0715-2.3654-16.096-4.0691-24.5-4.8244-23.796-3.4188-32.396 6.0535-37.037 6.233-3.054 23.823-3.6551 36.565-1.2494 33.35 6.2962 57.059 7.9577 71.75 5.0283 4.8365-0.9643 10.185-1.4751 11.885-1.135 5.1954 1.0391 9.5517 4.4265 11.881 9.2389 2.0841 4.3053 2.1424 5.0673 1.0862 14.212-0.6138 5.3146-2.6678 16.863-4.5646 25.663-3.7306 17.309-7.8563 46.249-9.5514 67-0.584 7.15-1.2814 15.7-1.5498 19-0.711 8.7447-122.3 36.6-121.98 30zm339.54-50.5c-0.526-5.225-1.2185-12.875-1.539-17-0.3204-4.125-0.7868-9.525-1.0364-12s-1.5773-16.65-2.9504-31.5c-2.9782-32.209-4.8569-49.684-8.0093-74.5-1.2925-10.175-2.6463-21.2-3.0083-24.5-1.4139-12.887-7.6605-47.578-10.531-58.481-3.4349-13.05-3.1821-14.979 2.4691-18.842 2.8625-1.957 5.7404-2.5419 18.229-3.7049 8.1567-0.7596 17.53-1.8875 20.83-2.5064 3.3-0.619 8.1596-1.5392 10.799-2.0451 2.6396-0.5058 5.2271-0.9197 5.75-0.9197 0.5986 0 0.9508 94.6 0.9508 255.36 0 0-30.827 1.8426-31.955-9.3607zm-179.18 28.995c3.7452-22.697 4.4469-35.505 3.8073-69.495-0.3312-17.6-1.0678-37.625-1.6369-44.5s-1.724-23.3-2.5664-36.5c-6.3934-100.18-10.024-132.78-17.525-157.34-1.0645-3.4853-2.5735-7.7603-3.3532-9.5-5.5639-12.413-8.3761-25.763-6.5761-31.216 1.4622-4.4305 7.96-10.143 12.673-11.14 2.0954-0.4436 13.234-0.6785 24.753-0.5221 24.391 0.3312 43.349-1.5327 56.556-5.5606 4.675-1.4257 11.425-2.7662 15-2.9789 5.5336-0.3291 7.0204-0.04 10 1.9474 1.925 1.2838 4.3138 3.9931 5.3084 6.0207 1.7305 3.5279 1.7359 4.3242 0.1263 18.487-3.0012 26.406-3.2262 29.631-2.9159 41.8 0.9301 36.476 3.1308 80.751 4.9705 100 3.1273 32.721 7.0873 80.218 8.0039 96 0.5643 9.7163 0.756 12.278 2.0215 27 2.642 30.737 6.4366 52.248 12.613 71.5 3.5428 11.043 4.6196 20.206 2.9641 25.222-4.2221 12.793-136.06 52.51-124.22-19.227zm-1819.5-16.373c-6.2478-2.0465-11.175-5.4337-14.42-9.9133l-2.9044-4.0094 0.0239-20.1c0.0131-11.055 0.45654-21.9 0.98537-24.1 4.0346-16.784 7.0163-46.557 8.4626-84.5 0.32496-8.525 0.79756-18.425 1.0502-22 0.25266-3.575 0.91647-18.875 1.4751-34 0.55865-15.125 1.23-29.975 1.4919-33 0.26187-3.025 0.7367-10 1.0552-15.5 0.31848-5.5 0.98059-15.4 1.4714-22s1.1548-16.05 1.4757-21c1.7547-27.07 3.3694-48.347 4.06-53.5 0.25802-1.925 1.1761-12.5 2.0401-23.5 6.2468-79.526 6.4839-87.278 3.3952-111-3.4528-26.519-2.7018-34.682 3.8322-41.652 4.197-4.4771 12.745-7.3587 18.918-6.3776 5.2575 0.8356 17.756 4.225 25.601 6.9425 6.6264 2.2955 7.0282 2.3204 13 0.8075 4.5999-1.1654 11.74-1.5814 28.162-1.6409 21.693-0.079 22.105-0.041 29.5 2.703 22.3 8.2734 25.801 19.43 15.094 48.091-2.8506 7.6302-6.0628 17.53-7.1382 22-3.3642 13.984-11.032 63.455-12.419 80.127-0.3203 3.85-1.6735 19.375-3.0071 34.5-1.3336 15.125-2.711 34.925-3.0607 44-0.34979 9.075-0.85045 17.625-1.1126 19-0.91161 4.7817-1.1898 136.64-0.3354 159 1.0249 26.817 3.0457 44.076 7.1425 61 1.6642 6.875 3.2646 16.57 3.5565 21.544 0.46126 7.8607 0.25642 9.5815-1.5658 13.153-5.4295 10.643-15.656 14.005-37.154 12.215-28.297-2.3559-50.696-1.8134-64.635 1.5655-9.3331 2.2624-19.196 2.7321-24.041 1.1451zm323.04-36.123c-2.3492-1.4082-5.5703-4.7105-7.4466-7.6344-4.7994-7.4793-5.0099-13.411-0.9728-27.422 3.7702-13.085 5.557-24.196 7.5487-46.943 2.2322-25.493 3.4542-46.848 4.5205-79 1.2837-38.706 1.2795-235.48-6e-3 -256.5-1.2797-20.933-4.4281-44.73-7.5651-57.181-4.8916-19.415-2.7104-26.179 9.3318-28.939 4.3537-0.9975 8.2357-0.8933 22.308 0.5992 18.938 2.0084 25.21 1.8033 50.529-1.6524 15.363-2.0968 16.483-2.1245 24.224-0.5995 9.2694 1.8261 13.182 4.1729 15.659 9.3929 2.1639 4.5601 1.6169 10.387-2.4484 26.08-6.5777 25.391-9.5285 55.378-10.509 106.8-0.29374 15.4-0.81041 72.1-1.1482 126-0.60551 96.631 0.19927 143.24 2.5427 147.26 0.80751 1.386 1.0235 0.9284 1.0679-2.2626 0.0306-2.2 1.1062-8.05 2.3901-13 1.2839-4.95 3.5203-13.536 4.9697-19.08 4.7088-18.01 20.602-63.432 29.364-83.92 15.141-35.405 33.935-72.766 50.304-100 3.9668-6.6 7.947-13.294 8.845-14.876s2.698-4.1847 4.0003-5.7843c3.4054-4.1828 2.743-12.928-1.425-18.815-12.549-17.724-17.32-26.614-22.283-41.525-8.6047-25.847-9.3507-63.023-2.1103-105.17 4.2479-24.726 22.542-90.98 27.944-101.2l1.9183-3.6303 0.0538 6c0.0824 9.1869 2.756 31.534 5.5035 46 13.948 73.443 15.678 87.104 14.972 118.22-0.41017 18.071-2.0372 31.108-5.9626 47.777-2.4015 10.198-8.9676 29.678-11.943 35.432-0.91899 1.7771-1.5131 4.8219-1.3421 6.8784l0.30678 3.6899 3.8885-6c3.5244-5.4381 20.889-27.48 30.202-38.337 4.6736-5.4485 5.2003-9.7227 3.0122-24.443-0.88132-5.9291-1.6024-14.295-1.6024-18.591 0-33.319 14.873-73.22 41.797-112.13 15.598-22.542 52.616-64.425 74.483-84.273 7.2201-6.5534 8.3884-7.3084 7.4461-4.812-0.6147 1.6285-1.5491 2.6944-2.0763 2.3685-0.5273-0.3259-0.6587-0.1072-0.2921 0.4861 0.3666 0.5932-0.9001 4.6418-2.8149 8.9969-4.2792 9.7326-14.128 39.258-23.094 69.234-11.727 39.203-23.644 68.298-36.821 89.894-9.4952 15.562-18.973 27.335-36.311 45.106-6.1709 6.325-12.133 12.684-13.248 14.132-2.396 3.1099-4.3587 7.9103-3.5606 8.7085 0.30988 0.3099 7.185-5.9873 15.278-13.994 16.461-16.285 22.644-21.225 35.715-28.536 19.424-10.864 41.222-18.46 68-23.697 22.314-4.3636 49.373-7.2018 79.5-8.3385 21.24-0.8014 25.382-0.8346 47.982-0.3842 14.906 0.297 14.891 0.2446 1.56 5.6189-11.359 4.5793-16.369 6.951-57.042 27.002-38.808 19.131-39.082 19.257-52.5 24.173-29 10.624-43.552 14.48-65 17.224-22.88 2.9273-49.492 3.207-63.187 0.6639-3.0828-0.5724-6.5907 2.5042-15.308 13.426-5.928 7.4269-15.539 21.299-15.076 21.761 0.17029 0.1703 4.0206-1.9679 8.5563-4.7516 4.5356-2.7837 11.232-6.3275 14.881-7.8751 8.0846-3.4288 24.874-7.7472 35.457-9.12 10.076-1.307 36.29-1.306 46.355 0 22.4 2.9102 52.412 10.85 74.822 19.796 20.389 8.1384 35.814 14.738 38.952 16.664 2.0185 1.2395 11.598 6.3362 36.962 19.665 13.371 7.0263 17.175 9.6053 12.587 8.5333-1.375-0.3213-9.025-1.3385-17-2.2604-12.18-1.4082-18.659-1.541-40.5-0.8301-37.309 1.2144-86.111 0.9797-98.5-0.4737-5.775-0.6775-14.734-2.1044-19.909-3.1709-5.1751-1.0664-9.9001-1.9248-10.5-1.9074-0.5999 0.017 2.9593 2.1588 7.9093 4.7588 21.534 11.311 46.7 31.109 68.605 53.97 21.064 21.984 46.713 53.09 55.271 67.031 0.4362 0.7105-1.6749-0.2869-4.6914-2.2165-18.213-11.65-49.26-26.859-71.185-34.871-38.64-14.12-46.825-17.474-63.5-26.024-25.078-12.859-41.258-23.222-53.281-34.124-8.2373-7.4699-21.654-22.389-28.379-31.557-2.2195-3.0256-4.8305-6.161-5.8023-6.9676-1.585-1.3154-1.9695-1.2161-3.7347 0.9638-1.0823 1.3366-3.1207 4.472-4.5297 6.9676-1.409 2.4956-3.5552 6.1124-4.7691 8.0374-2.2186 3.5181-14.254 24.748-19.843 35-1.6488 3.025-3.9639 7.075-5.1446 9s-4.5564 8.225-7.5015 14-6.1768 11.85-7.1814 13.5c-2.8254 4.6404-2.1635 5.4398 0.9159 1.1062 4.3965-6.1871 3.8455-1.9343-1.1024 8.5084-22.067 46.574-33.943 81.904-46.181 137.39-7.6519 34.691-9.4133 50.003-7.332 63.737 2.383 15.725-0.64826 22.566-11.857 26.76-6.7227 2.5153-11.529 2.5191-23.376 0.019-10.368-2.1882-32.076-2.7411-41.902-1.0672-3.025 0.5153-9.325 1.6294-14 2.4758-12.642 2.2887-18.673 2.0527-23.64-0.9249zm233.14-331.98c4.4-0.795 12.162-1.4611 17.25-1.4803 5.0875-0.019 9.2354-0.3724 9.2174-0.7849-0.0179-0.4125-1.4804-1.4597-3.25-2.3271-1.7696-0.8673-6.6877-3.4846-10.929-5.8162-10.908-5.996-12.874-5.652-19.033 3.3284-2.6156 3.8143-4.7556 7.3018-4.7556 7.75 0 1.1317 2.2558 1.0003 11.5-0.6699zm1217.5 225.81c-1.375-0.2233-7.9-1.5212-14.5-2.8842-20.61-4.2564-28.302-4.6202-50.856-2.4052-12.711 1.2483-30.155 1.2314-34.709-0.034-4.7105-1.3086-11.497-7.221-14.064-12.252-2.6019-5.1001-2.5537-11.25 0.1548-19.746 1.1493-3.6056 2.3268-10.73 2.6443-16 1.2596-20.908-9.5102-65.387-26.144-107.98-5.6682-14.512-22.43-49.524-23.709-49.524-0.669 0-2.8539 5.1601-4.8694 11.5-7.8178 24.591-18.909 41.471-41.909 63.782-4.696 4.5554-10.563 9.7133-13.038 11.462-16.536 11.684-51.008 43.698-58.851 54.656-1.732 2.4201-3.1492 4.2159-3.1492 3.9908 0-2.021 9.1392-27.781 14.027-39.538 13.573-32.645 26.65-55.543 43.46-76.103 2.8828-3.5258 2.0644-4.1039-2.4816-1.7531-4.464 2.3084-33.048 9.1944-51.719 12.459-43.354 7.5809-57.182 10.319-75.287 14.907-10.725 2.7177-20.4 5.245-21.5 5.6161-4.5056 1.5202 13.444-12.133 24.951-18.979 2.9034-1.7273 18.974-12.3 26.549-17.467 2.5546-1.7423 5.8021-3.5912 19-10.817 26.222-14.356 55.593-23.478 84.774-26.328 14.759-1.4417 23.121-0.7953 41.576 3.2142 8.0794 1.7552 14.954 2.9273 15.277 2.6046 0.7641-0.7642-11.116-23.332-15.365-29.186-3.1488-4.339-3.486-4.5212-8.3674-4.5212-2.7975 0-7.4056 0.6722-10.24 1.4938-10.327 2.9931-27.443 5.6573-39.654 6.1723-28.901 1.2188-65.732-8.3047-120.5-31.158-8.8-3.672-23.563-9.7462-32.807-13.498-9.2437-3.752-16.44-7.0486-15.991-7.3258 0.9744-0.6022 14.465-1.8986 50.798-4.8812 30.887-2.5356 66.412-2.9739 79-0.9745 23.723 3.7678 38.451 7.9476 54.829 15.56 11.712 5.4438 15.127 7.9507 27.888 20.473 5.3447 5.2446 9.9231 9.3302 10.174 9.079 0.5567-0.5567-9.9627-18.946-15.514-27.121-2.213-3.2587-5.1038-6.3356-6.4241-6.8376-1.3204-0.502-4.713-2.5034-7.5394-4.4476-2.8263-1.9441-5.6926-3.5348-6.3695-3.5348-1.7789 0-22.295-13.02-31.869-20.225-10.762-8.099-29.069-26.673-40.833-41.428-9.8702-12.38-18.913-26.205-46.668-71.347-11.31-18.395-18.564-28.571-25.546-35.837l-5.1287-5.3373 3.5 1.4765c25.378 10.706 69.088 37.523 91.086 55.884 9.4199 7.8624 32.049 29.198 36.867 34.759 9.0664 10.465 21.447 30.106 26.296 41.715 4.5206 10.823 5.7996 14.764 9.6831 29.839 4.0134 15.58 6.8563 24.004 8.2035 24.308 0.7502 0.1697 2.2641 2.0928 3.3641 4.2737s5.15 8.5165 9 14.079l7 10.114 0.3079-4.1464c0.2716-3.6563-0.4178-5.2314-5.8326-13.327-11.145-16.662-17.059-31.02-21.132-51.302-2.9221-14.552-3.6536-52.64-1.4789-77 3.522-39.452 4.1058-61.318 2.0425-76.5l-0.4756-3.4998 3.0698 4.8407c7.7731 12.257 20.186 40.162 30.986 69.659 21.54 58.829 22.086 93.211 2.1084 132.76-6.9036 13.668-8.2372 19.508-5.3106 23.251 2.6871 3.437 13.488 22.631 22.501 39.984 9.4191 18.136 21.07 44.505 27.173 61.5 2.5677 7.15 5.796 15.855 7.1741 19.345s4.7632 14.062 7.5224 23.494c2.7593 9.4316 5.3364 17.719 5.7269 18.417 1.3651 2.4393 11.59-90.758 14.126-128.76 3.2825-49.181 5.1732-75.233 6.4592-89 1.8702-20.021 5.063-73.961 7.0437-119 0.8587-19.525 2.2583-49.9 3.1103-67.5s1.6008-43.903 1.6641-58.451l0.115-26.451 2.3537 5.3703c12.492 28.504 34.303 112.05 47.258 181.03 10.517 55.997 20.554 125.61 22.06 153 0.8224 14.958 1.3385 18.488 3.5536 24.303 1.4253 3.7417 3.7216 8.1462 5.103 9.7879 2.218 2.6359 2.3447 3.1849 1.0842 4.6969-2.8502 3.4189-3.8141 7.4757-3.8141 16.052 0 9.083 1.768 16.862 7.9905 35.16l2.8907 8.5 0.4699 35.5c0.4579 34.591 1.8085 52.345 4.8307 63.5 0.5961 2.2 1.1365 8.725 1.201 14.5 0.1021 9.147-0.1859 11.116-2.2352 15.277-2.9492 5.9894-7.1529 9.1879-13.947 10.612-5.3894 1.1297-5.8005 1.1471-10.201 0.4323zm199-125.02c-9.6691-3.4974-11.51-6.4902-10.596-17.232 1.778-20.91 1.7173-34.857-0.2875-66.068-1.1482-17.875-2.5559-41.725-3.1282-53-3.2651-64.322-10.456-133.85-17.546-169.64-3.1736-16.021-6.582-26.602-12.68-39.362-5.6035-11.725-6.4411-17.35-3.3602-22.566 4.1155-6.9669 12.393-9.4129 31.9-9.4265 13.179-0.01 20.877-1.661 38.697-8.3029 11.566-4.3107 14.522-5.0316 20.63-5.0305 5.2785 8e-4 8.0047 0.5118 10.5 1.9678l3.3703 1.9666 0.3098 13.446c0.2275 9.8721-0.1286 15.342-1.3399 20.582-1.5012 6.4928-1.5366 10.592-0.3936 45.5 0.7323 22.367 1.3983 93.474 1.5972 170.53l0.341 132.16-3.7572 0.5479c-2.0665 0.3014-7.1323 0.8156-11.257 1.1428-12.52 0.9931-18.222 1.5868-24.5 2.551-6.4638 0.9927-16.069 1.1153-18.5 0.2361zm-177.54-83.162c-4.2989-2.6216-8.2049-7.567-9.4134-11.918-0.5681-2.0454-1.0354-11.209-1.0384-20.363-0.01-23.545-2.3236-43.77-12.12-105.86-6.2605-39.676-23.842-132.16-28.978-152.42-7.1827-28.346-15.54-54.785-25.154-79.576-3.3059-8.525-6.0425-17.075-6.0813-19-0.2592-12.861 14.35-21.202 39.757-22.699l10.071-0.5934-2.5 2.1129c-3.0301 2.5607-2.9539 2.5655 10.074 0.6316 13.717-2.0362 21.129-3.7805 34.426-8.1014 12.269-3.9867 22.554-4.8825 28.288-2.4637 4.1489 1.7502 7.7864 7.9495 8.5742 14.613 0.3251 2.75 0.6657 11.75 0.7569 20 0.3614 32.702 3.901 60.789 14.429 114.5 4.1507 21.175 10.934 55.825 15.075 77 20.07 102.64 23.335 117.2 30.412 135.63 7.7586 20.198 8.9223 23.861 8.9434 28.155 0.041 8.2815-4.2807 14.183-13.479 18.407-4.5259 2.0782-6.28 2.2758-18.5 2.0844-19.323-0.3027-27.139 0.849-46.5 6.8515-6.706 2.0791-23.867 4.8625-30 4.8658-2.2 0-5.3692-0.8328-7.0426-1.8533zm-1668.5-172.84c-1.375-0.2355-9.25-2.1646-17.5-4.2868-18.87-4.8541-28.765-6.1649-49.5-6.5572-31.586-0.5975-38.493-3.2266-45.547-17.337-2.4215-4.8436-2.6459-6.1923-2.2463-13.5 0.40079-7.3295 1.087-9.5926 7.0591-23.279 3.6383-8.3383 7.7647-18.929 9.1696-23.536 2.4887-8.1592 8.6661-34.285 10.003-42.304 0.57612-3.4563 8.2542-43.214 18.636-96.5 1.661-8.525 4.9881-23.6 7.3936-33.5 2.4055-9.9 5.5649-23.85 7.0209-31 1.4559-7.15 4.5956-20.875 6.9771-30.5 2.3815-9.625 6.2195-25.825 8.529-36 2.3095-10.175 6.3861-26.15 9.0591-35.5 5.7546-20.129 11.423-41.533 21.452-81 4.0529-15.95 9.6163-37.775 12.363-48.5 5.5141-21.53 6.7452-29.375 8.0632-51.379 0.8564-14.298 1.0352-15.171 4.5749-22.333 4.1766-8.4508 8.811-12.206 17.696-14.337 10.019-2.4035 26.126 0.75729 37.887 7.4348 4.5435 2.5797 26.91 11.753 26.91 11.037 0-0.20436-1.4405-1.1165-3.2011-2.0269-1.7606-0.91045-3.8178-2.272-4.5714-3.0257-1.1604-1.1604-0.85284-1.3703 2.0082-1.3703 6.7801 0 24.791 3.9813 33.866 7.4859 14.235 5.4976 20.463 11.094 23.472 21.092 3.0368 10.09 0.80201 18.116-10.559 37.922-19.732 34.398-31.073 63.539-47.868 123-6.2449 22.109-19.607 76.366-25.12 102-2.2475 10.45-5.404 25.075-7.0146 32.5-8.6918 40.071-13.887 67.755-19.516 104-2.0074 12.925-4.2507 26.425-4.9852 30-1.1739 5.7137-2.3897 15.964-4.0031 33.75-0.26193 2.8875-0.14566 5.2439 0.25839 5.2365 0.40405-0.01 2.7229-5.5199 5.1529-12.25 7.8649-21.782 25.375-57.447 41.955-85.454 11.188-18.899 14.501-24.249 22.156-35.783 4.7458-7.15 12.098-18.053 16.339-24.228 8.4376-12.288 11.576-18.352 11.61-22.433 0.0121-1.4635-2.0075-6.8635-4.488-12-7.9275-16.416-13.438-43.854-12.087-60.186 1.5574-18.831 7.9476-46.176 14.408-61.653 10.241-24.535 30.129-58.878 47.42-81.884 10.527-14.007 16.141-20.441 15.37-17.616-6.9085 25.316-9.0231 39.043-11.63 75.5-3.9776 55.617-7.2404 74.919-17.158 101.5-5.2099 13.964-10.998 25.602-20.89 42-4.3129 7.15-8.1105 14.35-8.4391 16l-0.59739 3 1.8066-2.3119c10.811-13.835 13.955-17.651 19.519-23.688 10.295-11.171 15.479-18.924 16.251-24.305 2.3039-16.048 10.388-36.782 21.159-54.269 8.6069-13.973 28.137-35.662 42.877-47.617 9.6913-7.8597 32.013-22.751 47-31.355 15.098-8.6673 50.265-25.707 66-31.978 19.096-7.6111 48.5-17.814 48.5-16.829 0 0.46936-0.42571 0.85339-0.94603 0.85339-2.8131 0-32.925 29.037-40.629 39.178-4.8581 6.3954-17.403 21.901-18.464 22.822-0.31689 0.275-3.6753 4.325-7.463 9-31.032 38.3-53.19 60.329-81.935 81.457-15.072 11.078-38.408 24.119-54.795 30.622-11.453 4.545-18.394 8.839-24.348 15.065-7.0501 7.3714-21.42 26.377-21.42 28.33 0 0.7321 4.3964-3.0125 9.7697-8.3213 11.121-10.988 20.962-17.487 38.869-25.67 34.004-15.539 66.594-18.905 127.36-13.153 15.675 1.4837 31.794 3.1412 35.819 3.6834 4.0256 0.5423 13.251 1.2772 20.5 1.6333s13.978 0.9324 14.953 1.2808c1.2499 0.4466-0.96101 1.7778-7.5 4.5158-5.0998 2.1353-13.772 6.122-19.272 8.8592s-17.2 8.0188-26 11.737-18.697 7.9731-21.993 9.4555c-19.968 8.9797-62.398 20.505-75.489 20.505-3.1724 0-7.2868 0.3185-9.143 0.7077l-3.375 0.7078 3 0.7435c5.8869 1.4588-35.188 0-46.413-1.6454-10.805-1.5865-27.012-6.3588-33.587-9.89-1.65-0.8862-4.4362-1.614-6.1916-1.6174-3.6359-0.01-6.1237 2.8774-19.643 22.775-8.2512 12.144-9.6862 15.772-4.9151 12.428 5.4994-3.8543 20.032-7.1861 31.412-7.2012 11.324-0.015 33.574 5.8127 45.838 12.007 14.63 7.3883 37.761 27.032 50.048 42.501 5.789 7.2886 11.338 15.485 10.484 15.485-0.27311 0-3.4221-1.7906-6.9977-3.9791-10.137-6.2043-19.833-10.827-29.323-13.978-10.017-3.3263-15.472-4.3764-34.212-6.5858-30.197-3.5602-50.599-12.097-68.679-28.736l-4.1794-3.8463-3.7434 5.8123c-22 34.158-48.967 87.154-61.208 120.29-7.7715 21.035-17.151 49.913-18.317 56.398-0.96987 5.3909-0.97951 8.9481-0.0447 16.5 1.7008 13.74 1.4902 17.909-1.1937 23.627-4.1584 8.8605-10.423 13.435-21.099 15.409-3.2461 0.6-5.9318 1.0297-5.9683 0.9548-0.0365-0.075-1.1913-0.3288-2.5663-0.5643zm202.26-29.273c-4.2752-1.0152-9.8729-5.3705-11.872-9.2371-1.9839-3.8364-1.3735-9.5252 2.1951-20.457 7.8628-24.087 9.418-39.662 10.967-109.83 0.36419-16.5 0.72622-30.06 0.8045-30.132 0.0783-0.073 4.6423 1.2996 10.142 3.05 9.5334 3.034 25.883 10.589 31.413 14.515 1.4228 1.0103 4.7999 3.0702 7.5045 4.5777 2.7046 1.5074 8.0937 4.9076 11.976 7.556 3.8821 2.6483 7.2398 4.6338 7.4615 4.412 0.90968-0.9096-7.2349-16.194-13.979-26.233-8.7926-13.089-26.576-31.13-42.134-42.745l-10.716-8 0.47398-18 11 0.3224c6.3889 0.1872 15.401-0.3149 21.5-1.1979 17.361-2.5137 54.026-12.373 67.261-18.087 1.6589-0.7161 1.7168 0.2452 1 16.601-0.41846 9.5486-0.75905 51.336-0.75687 92.861 4e-3 73.03 0.0762 75.952 2.2127 89.32 1.2148 7.601 3.4128 17.989 4.8845 23.084 3.2774 11.347 2.8468 16.877-1.7187 22.077-4.3089 4.9076-8.2672 5.8838-20.775 5.1239-28.362-1.723-43.764-1.7761-57.814-0.1994-14.992 1.6825-25.661 1.8961-31.03 0.6211zm1601.5-96.98c-4.5671-1.4356-8.3474-4.7354-10.244-8.9421-1.7612-3.9057-1.7502-4.4894 0.4097-21.708 4.1077-32.748 2.7157-57.69-8.4773-151.9-2.4593-20.7-10.57-68.879-13.066-77.611-0.3584-1.2542 0.5351-1.7473 4.0353-2.227 5.5216-0.7569 31.764-10.223 40.324-14.546 3.4503-1.7425 12.225-6.9844 19.5-11.649l13.227-8.4806 1.6685 9.7568c0.9176 5.3663 2.6491 16.732 3.8477 25.257 5.0903 36.204 14.894 96.067 25.057 153 2.9964 16.786 8.3116 37.256 14.48 55.763l5.42 16.263-1.6825 4.2366c-5.6111 14.129-9.8186 17.073-28.791 20.145-7.9833 1.2925-29.969 6.5683-45.5 10.918-7.0821 1.9835-16.752 2.8067-20.209 1.7201zm-1062.2-58.12c-16.407-2.4879-20.4-12.942-14.737-38.579 5.3714-24.315 6.9044-36.725 8.6285-69.847 0.2863-5.5 0.8003-14.725 1.1421-20.5 0.6335-10.701 0.5789-109.22-0.065-116.5-0.1944-2.2-0.465-24.25-0.6012-49-0.1362-24.75-0.5833-53.1-0.9935-63-0.4103-9.9-1.0477-28.575-1.4166-41.5-1.7252-60.455-5.8568-98.277-14.197-129.96-5.3323-20.258-4.1328-25.842 6.7156-31.261 5.3624-2.6784 5.6639-2.712 17.954-2.0011 25.94 1.5006 56.924-0.69064 69.908-4.9438 10.786-3.5334 22.663-2.9248 28.394 1.455 8.1519 6.2303 9.3192 14.435 5.1525 36.214-2.2817 11.926-5.4651 33.986-6.8548 47.5-0.311 3.025-0.8343 28-1.1627 55.5s-0.709 50.444-0.8457 50.986-4.0344-5.7535-8.6616-13.991c-7.7076-13.722-8.4595-14.727-8.9687-11.986-1.8281 9.8376-1.9188 76.711-0.1234 90.991 3.7466 29.8 9.2624 58.287 15.684 81 2.262 8.0009 2.6479 11.882 3.4764 34.961 1.6392 45.665 4.5027 82.53 8.5085 109.54 2.9978 20.213 7.6231 44 8.5555 44 0.3787 0 0.9622-1.3684 1.2967-3.041 0.869-4.3451 10.876-30.105 17.854-45.959 6.21-14.109 25.315-52.806 26.882-54.45 2.5452-2.669-0.8835-7.6152-10.036-14.478-24.209-18.151-39.673-44.125-51.543-86.572-6.5452-23.406-10.069-44.718-12.978-78.5-1.6352-18.988-2.5009-58.001-1.2869-58 0.4125 2.7e-4 0.75 0.58415 0.75 1.2975 0 1.5587 25.81 48.287 32.147 58.203 11.347 17.753 24.257 42.239 31.108 59 14.465 35.39 17.474 57.631 14.124 104.4-0.7862 10.976-0.01 11.266 4.7838 1.7771 1.7148-3.3974 4.1176-7.5272 5.3395-9.1772 5.5103-7.4407 5.7237-14.018 1.1093-34.188-6.4512-28.199-7.0322-32.49-6.9477-51.312 0.097-21.541 2.0778-32.944 11.245-64.723 4.3916-15.224 25.238-59.996 41.102-88.276 8.4559-15.074 18.379-31.744 19.596-32.919 0.5598-0.54071-0.2535 19.063-1.1169 26.919-0.2115 1.925-0.6442 12.05-0.9614 22.5-1.0762 35.454-2.146 50.834-5.0428 72.5-3.4749 25.989-6.785 41.545-12.98 61-5.0671 15.912-5.0874 16.05-1.5999 10.876 16.256-24.12 61.372-61.421 104.89-86.725 6.7641-3.9328 12.482-7.1504 12.706-7.1504s2.79-1.4075 5.7017-3.1279c6.7192-3.9699 39.358-20.872 40.305-20.872 0.3907 0-0.2112 0.7875-1.3376 1.75-2.4708 2.1111-23.753 31.781-39.825 55.523-15.035 22.208-17.294 25.266-31.933 43.227-17.896 21.957-35.005 38.168-53.622 50.811-13.648 9.2675-21.116 12.712-57.108 26.337-3.7483 1.419-7.9393 3.7662-9.3132 5.2161-4.5305 4.7809-10.631 15.992-18.808 34.563-4.1549 9.4363-1.9475 9.3735 7.6925-0.2189 13.617-13.55 20.993-18.393 37.054-24.33 27.318-10.098 59.9-13.857 103.12-11.897 24.649 1.1177 53.325 3.4916 59.566 4.9311 3.021 0.6967 3.2263 0.9161 1.5 1.603-1.1 0.4376-6.275 2.4815-11.5 4.5418-7.4703 2.9457-30.599 13.255-51.5 22.954-10.856 5.0384-32.206 12.358-46.5 15.942-27.266 6.8372-32.208 7.5496-52 7.496-19.256-0.052-27.632-1.3388-42.907-6.5911-5.1757-1.7796-5.5361-1.784-8.4162-0.1019-5.0066 2.924-13.67 21.472-26.971 57.745-8.4532 23.052-11.781 33.208-15.68 47.853-3.5471 13.323-8.5926 20.599-15.643 22.556-5.2743 1.4644-7.1088 1.3824-20.383-0.9108-12.52-2.1629-31.148-2.5536-46-0.9649-4.675 0.5001-13.225 1.2434-19 1.6519-7.7879 0.5509-9.596 0.9115-7 1.3962l3.5 0.6535-3.625 0.1317c-1.9938 0.072-4.9188 0.3173-6.5 0.5443-1.5813 0.227-5.5438 0.01-8.8056-0.4866zm186.67-182.17c0.8372-1.2777 2.994-5.9085 4.793-10.291 1.799-4.3821 3.6267-8.4323 4.0617-9.0003 1.2168-1.5891 3.157-7.101 2.1004-5.9673-6.1407 6.5896-16.091 23.995-16.17 28.285-0.034 1.8413 3.2891-0.087 5.2151-3.0269zm657.16 120.16c-1.7047-0.4947-4.6297-2.4603-6.5-4.3682-3.1249-3.1874-3.4472-4.1006-3.9743-11.26-0.3155-4.2854-0.1548-11.842 0.3572-16.792 2.3912-23.12-1.8729-112.13-7.2339-151-2.018-14.632-4.7075-23.388-13.055-42.5-9.8503-22.553-32.57-60.141-52.119-86.228-13.113-17.498-15.815-20.854-32.417-40.272-20.596-24.089-43.265-45.92-74.792-72.029-19.443-16.101-48.223-37.248-49.27-36.202-0.239 0.23903 0.9077 4.5422 2.5483 9.5625 8.2877 25.361 8.7443 51.831 1.409 81.668-2.0363 8.2829-5.7381 18.356-19.108 52-6.3387 15.95-13.059 33.5-14.933 39-3.5981 10.556-13.24 47.063-13.416 50.801-0.3447 7.2794-9.2819-40.952-12.471-67.301-4.1114-33.972-2.5205-73.548 3.9623-98.565 2.8062-10.83 9.6311-27.739 15.152-37.541 7.1839-12.754 13.057-20.581 21.702-28.923l7.1485-6.8979-2.4448-2.1339c-1.3447-1.1736-4.2449-3.0533-6.4449-4.177s-6.475-3.7197-9.5-5.7688c-6.3406-4.2951-24.213-13.39-28.213-14.357-2.5644-0.61982-3.1301-0.0156-10.342 11.045-9.6714 14.833-16.566 23.227-29.575 36.005-27.833 27.34-59.081 44.847-110.37 61.837-16.807 5.5673-31.611 10.846-42.5 15.156-13.373 5.2924-38.203 18.51-50.526 26.897-7.0111 4.7715-12.382 8.0563-11.935 7.2995 12.333-20.889 54.695-68.569 83.488-93.969 25.527-22.52 52.6-39.624 83.474-52.735 24.258-10.302 42.414-15.585 57.091-16.612 4.3499-0.30435 11.059-0.81673 14.909-1.1386 8.9633-0.74942 24.227 2.2656 35.466 7.0053 7.1931 3.0337 21.265 11.295 41.034 24.089 3.575 2.3137 7.5511 4.5368 8.8358 4.9402 2.0793 0.65284 2.222 0.52058 1.2989-1.2042-0.5703-1.0657-3.6465-3.8947-6.8358-6.2867-28.631-21.473-44.194-40.514-64.584-79.019-8.0763-15.251-14.408-32.172-19.251-51.446-8.1334-32.37-10.914-49.041-16.805-100.75-0.1723-1.5125 0.059-2.75 0.5135-2.75 0.4547 0 0.8268 0.46859 0.8268 1.0413 0 2.4292 17.312 29.514 26.819 41.959 12.323 16.131 14.192 18.462 29.725 37.071 14.913 17.866 19.671 24.114 26.596 34.929 13.354 20.853 22.962 44.042 27.449 66.244 3.1186 15.433 2.6305 42.821-1.0629 59.636-0.5916 2.6934-0.1387 3.2798 5.9983 7.7664 22.662 16.568 47.439 36.554 59.226 47.774 5.0875 4.8432 9.25 8.5207 9.25 8.1723s-1.1243-3.4003-2.4983-6.782c-1.3741-3.3816-2.3087-6.3381-2.0769-6.57 1.3144-1.3144 22.901 22.382 47.998 52.69 4.3578 5.2625 10.024 12.043 12.592 15.068 4.9483 5.8295 20.459 26.299 27.985 36.933 2.475 3.4969 5.8676 8.205 7.5391 10.463 5.455 7.3676 17.937 24.732 18.961 26.378 0.55 0.88393 3.8623 5.9091 7.3607 11.167l6.3606 9.5598-0.6145-7.2161c-0.3379-3.9689-1.06-16.119-1.6045-27-0.5446-10.881-1.2103-21.359-1.4794-23.284s-0.9698-10.925-1.557-20c-1.3482-20.835-5.646-68.266-7.0223-77.5-0.5738-3.85-1.9191-13.75-2.9895-22-7.4324-57.286-14.254-88.862-25.539-118.21-6.9289-18.023-6.9796-21.862-0.3992-30.187 5.4711-6.9215 10.793-9.142 35.984-15.013 17.291-4.0302 23.652-4.9812 40.701-6.0856 22.322-1.4459 39.864-1.2786 43.098 0.41093 7.0944 3.7063 10.488 10.699 10.441 21.512-0.036 8.1261-2.8439 15.957-8.756 24.417-22.773 32.588-39.885 68.619-52.318 110.16-7.5374 25.183-13.238 63.15-13.062 87 0.058 7.8335 0.089 7.9316 1.4954 4.7125 3.1114-7.1201 26.938-41.594 39.564-57.243 7.3351-9.0916 17.387-21.56 22.337-27.708s9.2596-11.197 9.577-11.22c0.3173-0.0229 1.1227 7.7209 1.7897 17.208s1.4065 19.725 1.6435 22.75c0.2369 3.025 1.351 17.65 2.4758 32.5 3.1807 41.993 4.8484 61.422 7.0382 82 1.112 10.45 3.117 31.6 4.4554 47 5.6275 64.749 10.566 102.5 13.408 102.5 0.446 0 1.6661-2.1316 2.7115-4.7369 3.2839-8.1842 6.2582-13.218 12.774-21.618 7.2355-9.3286 15.584-21.567 18.113-26.554 0.9509-1.8747 2.6045-6.5997 3.6747-10.5 2.2137-8.0679 10.715-26.367 16.32-35.129 8.8278-13.8 22.519-28.904 39.703-43.797l6.6833-5.7927-1.4036-3.9782c-0.772-2.188-3.408-7.6719-5.8579-12.186-7.733-14.25-17.815-41.302-24.488-65.708-6.7085-24.535-13.016-63.62-13.152-81.5l-0.069-9-2.3002 6c-1.2652 3.3-5.0968 12.75-8.5148 21l-6.2146 15-2.3859 23.5c-1.3122 12.925-3.7575 35.65-5.434 50.5-1.6764 14.85-3.3229 31.5-3.6587 37l-0.6107 10-7.9061 13.149c-8.4595 14.07-14.466 26.2-18.972 38.319-2.7058 7.2758-2.8028 7.3958-2.8517 3.5318-0.028-2.2-0.7098-10.3-1.5155-18-0.8058-7.7-2.369-27.05-3.4739-43-2.8473-41.104-4.0748-58.253-4.581-64-0.9053-10.279-3.5255-41.418-4.4596-53-0.5323-6.6-1.1679-17.962-1.4124-25.249l-0.4447-13.249 6.6703-8.1522c11.646-14.233 19.367-24.279 20.446-26.6 2.0445-4.4003 2.3727-2.1473 0.6796 4.6659-6.1066 24.573-9.1365 96.128-5.5929 132.08 0.8943 9.075 1.7412 18.075 1.8819 20 0.2216 3.0321 0.6373 2.2967 3.1093-5.5 3.0915-9.7509 10.778-29.084 17.892-45 5.1468-11.515 9.7607-22.965 9.7402-24.171-0.025-1.4545-8.0426 13.812-12.694 24.171-2.4698 5.5-5.6221 12.402-7.005 15.337s-4.0034 9.613-5.8233 14.839c-1.8199 5.2263-3.4562 9.6486-3.6363 9.8272-1.3064 1.2965-1.2453-68.341 0.072-82.004 2.8849-29.922 7.0244-57.226 11.168-73.667 1.0628-4.2166 1.9039-8.7166 1.869-10l-0.063-2.3334-0.977 2.4463c-1.2218 3.0593-6.4842 9.6246-14.471 18.054-3.3874 3.575-9.1268 9.875-12.754 14-3.6275 4.125-11.176 12.675-16.774 19-11.886 13.43-26.588 30.957-31.764 37.867-1.9983 2.6678-8.1572 10.877-13.686 18.242-13.516 18.004-20.501 28.11-24.777 35.847l-3.5678 6.4556 0.5329-5.9556c2.6004-29.057 18.022-82.328 33.858-116.96 20.304-44.398 42.63-75.635 70.007-97.95 17.745-14.464 27.79-19.285 46.798-22.464 4.7827-0.79968 4.7968-0.7938 4.3185 1.806-0.2639 1.4346-0.98 5.7583-1.5913 9.6083s-1.3194 8.3054-1.5736 9.9008l-0.4622 2.9008 3.2551-3.1671c3.2245-3.1372 18.092-13.943 20.406-14.831 0.9101-0.34925 1.2277 4.6685 1.3089 20.685l0.1072 21.146 5.0987 8.9675c2.8043 4.9321 5.2812 8.785 5.5043 8.5619s-0.9298-4.4252-2.562-9.338c-2.2489-6.769-6.1081-26.077-6.1081-30.56 0-0.47201 5.6666 0.36847 15.615 2.316 14.703 2.8784 42.235 21.661 56.306 38.412 10.038 11.95 20.28 26.148 28.956 40.141 2.9885 4.8195 19.124 36.645 19.124 37.72 0 0.59639 17.407 40.507 20.099 46.083 1.3407 2.7771 1.9011 6.1133 1.9011 11.318v7.3803l-3.25-2.3139c-1.7875-1.2727-8.7064-6.8158-15.375-12.318-6.6689-5.5023-16.119-13.154-21-17.004-32.029-25.263-63.157-59.129-78.454-85.356-5.2767-9.0467-7.8264-11.83-4.1138-4.4911 3.0841 6.0966 8.7744 25.831 12.667 43.931 5.2942 24.616 6.8239 40.484 6.9328 71.916 0.1298 37.44-2.3993 63.648-9.346 96.847-1.1332 5.4157-2.0604 10.782-2.0604 11.924v2.0776l2.25-2.0727c10.43-9.6082 58.155-35.267 89.805-48.284 16.069-6.6086 15.83-6.5259 13.182-4.5502-1.2442 0.92854-6.0971 6.7214-10.784 12.873-4.6872 6.1516-11.888 15.46-16.002 20.685-4.1138 5.225-12.743 16.475-19.176 25-16.66 22.078-23.939 30.241-41.79 46.869-15.544 14.478-39.581 31.303-55.485 38.838-27.939 13.237-27.539 13.008-32.73 18.688-7.4424 8.1432-23.293 35.259-28.712 49.119-5.1996 13.298-5.4274 15.887-3.0645 34.83 2.3348 18.717 4.3184 27.796 9.1662 41.954 9.1774 26.802 9.527 28.055 9.0503 32.437-0.5812 5.3415-2.6771 8.5526-7.7911 11.937l-4.0328 2.6688-22.193 0.2094c-24.075 0.2273-22.452-0.036-47.817 7.7635-11.927 3.6675-27.05 6.7469-32.376 6.5924-1.65-0.048-4.3947-0.4917-6.0993-0.9863zm-1355.8-91.875c2.1443-1.6252 7.2157-5.3377 11.27-8.25 20.173-14.491 61.129-50.017 61.129-53.024 0-0.6074 0.25487-0.8494 0.56637-0.5379 0.69575 0.6957 3.9972 34.85 4.9626 51.339l0.70677 12.072-10.868-1.2958c-20.299-2.4202-59.603-1.4901-67.738 1.603-4.2446 1.6138-4.2493 1.2937-0.0281-1.9056zm1487.9-52.088c-5.6032-0.9556-19.807-4.139-20.356-4.5623-0.196-0.151 1.4784-2.8901 3.7208-6.0868 7.0275-10.018 22.035-22.05 35.192-28.212 19.502-9.1345 39.89-12.401 87.943-14.09 23.873-0.839 40.497-2.4427 47.124-4.546 1.0321-0.3275 1.8765-0.4129 1.8765-0.1896 0 1.029-17.475 13.993-26.026 19.308-12.562 7.8077-41.951 22.363-54.366 26.925-25.218 9.2672-58.326 14.316-75.108 11.454zm-30.34-17.458c-4.3014-15.899-6.2991-44.725-4.2838-61.813 1.9818-16.804 11.172-41.011 21.177-55.782 11.773-17.381 32.831-42.049 42.525-49.818 3.5322-2.8305 6.4221-4.7049 6.4221-4.1654 0 0.5395-1.5411 4.4902-3.4246 8.7793-5.3734 12.236-10.078 29.109-15.609 55.986-10.426 50.658-20.138 75.906-38.802 100.86-2.5656 3.4308-5.1727 7.0727-5.7936 8.0931-1.0026 1.6478-1.2499 1.4079-2.211-2.1448zm-1474.8-17.705c0.31468-3.4622 0.85781-15.52 1.207-26.795 0.34915-11.275 0.96656-28.825 1.372-39 0.40546-10.175 0.82149-31.55 0.9245-47.5s0.3705-40.7 0.59442-55c0.42363-27.054-0.39466-42.721-3.0293-58-0.85356-4.95-1.8016-13.275-2.1068-18.5-0.50852-8.706-0.37346-9.728 1.616-12.228 4.7768-6.0018 21.511-7.3874 45.561-3.7724 15.374 2.3109 25.594 2.459 34.5 0.5 3.575-0.78636 9.432-1.4456 13.016-1.4649 9.1305-0.0492 12.618 2.0157 16.734 9.9082 3.9776 7.6265 4.3245 14.03 1.1021 20.346-5.8904 11.546-11.146 33.128-12.349 50.71-0.35743 5.225-1.4907 20.075-2.5184 33-1.0277 12.925-2.131 29.125-2.4518 36-0.67181 14.399-1.5497 27.453-2.0751 30.855-0.2 1.2951-0.44076 6.8313-0.53503 12.303-0.11722 6.803-0.59658 10.373-1.5162 11.293-0.73967 0.73966-7.3213 4.4732-14.626 8.2967-26.047 13.634-53.054 32.465-68.136 47.508l-7.8554 7.835zm1551.6-21.96c13.107-7.9804 31.012-20.394 39.5-27.385 9.8799-8.1374 29.602-27.663 34.799-34.451l2.6792-3.5 0.011 6.6048c0.022 12.85 3.0834 43.053 5.5236 54.488 0.4431 2.0762 0.2098 2.0977-29.783 2.7365-17.552 0.3738-34.843 1.2751-41.23 2.1491-14.911 2.0404-15.823 1.9895-11.5-0.6429zm-618.45-72.085c0.3754-1.2375 3.0588-7.875 5.9633-14.75 2.9044-6.875 6.8614-16.325 8.7933-21 5.5876-13.521 19.774-42.513 26.667-54.5 5.9439-10.336 19.616-31.426 26.904-41.5 9.1953-12.712 32.544-34.825 47.242-44.74 19.324-13.037 39.46-21.153 54.383-21.92 8.9765-0.46141 8.9927-0.45789 6.2186 1.349-2.8369 1.8477-4.1013 4.0955-9.7374 17.312-7.0722 16.584-20.334 39.206-31.129 53.102-9.9894 12.859-26.492 29.288-44.852 44.652-18.469 15.455-30.311 25.12-36.331 29.65-15.176 11.422-28.34 24.249-44.482 43.345-5.2304 6.1875-9.6926 11.25-9.916 11.25-0.2235 0-0.099-1.0125 0.2762-2.25zm-1009-74.56c-4.4-1.5124-10.492-4.1774-13.539-5.9223-8.4159-4.8205-32.068-12.895-44.961-15.35-23.94-4.5578-30.744-6.4885-35.422-10.052-5.1466-3.9199-9.1754-9.6862-10.729-15.356-0.87722-3.2013-0.66154-7.2339 1.0702-20.009 4.654-34.334 5.0004-40.815 4.5963-86-0.2115-23.65-0.60621-44.35-0.87712-46-0.27092-1.65-0.74883-6.825-1.062-11.5-1.0637-15.878-4.9584-51-5.6554-51-0.38155 0-0.99803 2.0293-1.37 4.5095s-2.5238 8.2177-4.7819 12.75c-7.6995 15.454-21.245 26.724-45.406 37.78-30.048 13.75-52.123 26.562-68.363 39.679-9.2598 7.4791-24.798 23.438-31.918 32.782-5.3092 6.9677-5.3307 6.9825-4.6538 3.2021 2.8736-16.049 14.231-42.86 26.655-62.922 10.649-17.196 28.8-38.101 43.416-50.002 10.446-8.5056 34.367-21.416 45-24.287 8.8835-2.3987 27.54-3.0164 35.25-1.1671 3.4375 0.82455 6.2679 1.2016 6.2898 0.83787 0.0219-0.36372-1.2156-9.7198-2.75-20.791l-2.7898-20.13-20.5-0.49839c-20.74-0.50422-26.161-1.2386-49-6.6382-20.417-4.8271-44.742-15.554-87.5-38.585-12.773-6.8801-11.5-4.6061-11.5-20.542v-13.977h6.5394c10.831 0 36.011 2.882 53.961 6.176 20.952 3.8451 39.248 9.5896 52.381 16.447 20.638 10.776 41.761 29.836 51.853 46.791l2.4325 4.0863-0.53403-5.2304c-0.29372-2.8768-2.4238-12.463-4.7336-21.302l-4.1996-16.071-8.9483-4.6982c-25.399-13.336-35.472-20.85-57.846-43.149-11.233-11.196-15.33-16.155-23.585-28.549-10.672-16.022-22.706-36.265-28.834-48.5-6.737-13.452-27.118-47.805-35.094-59.154-2.8618-4.0715-3.392-5.6873-3.392-10.336 0-3.0306 0.16697-5.5103 0.37104-5.5103 1.1449 0 21.908 9.7042 32.629 15.25 35.799 18.518 60.747 37.047 81.217 60.32 12.29 13.973 17.691 22.113 25.829 38.93 9.7268 20.101 13.075 31.609 19.054 65.5 0.53369 3.025 2.5028 10.225 4.3757 16 3.8042 11.73 10.859 37.049 12.283 44.085 0.51055 2.5217 0.88617 6.0092 0.83471 7.7501-0.1008 3.4101 0.95591 4.2686 1.7417 1.415 0.26504-0.9625 0.2366 0.275-0.0632 2.75-0.29979 2.475-0.99776 5.0734-1.551 5.7742-0.55329 0.70079-0.71686 1.5633-0.36348 1.9167 0.35337 0.35338 0.64939 5e-3 0.65781-0.77416 0.0126-1.1665 0.18652-1.1518 0.98469 0.0833 0.71091 1.1 1.0026 0.30015 1.0941-3 0.18655-6.7325 9.8369 60.342 12.423 86.345 2.8982 29.142 3.8173 77.542 2.1773 114.66-0.68646 15.535-0.63842 16.266 0.82158 12.503 0.85287-2.1984 5.5898-12.01 10.526-21.803 9.9668-19.772 20.545-43.707 23.772-53.79 1.1602-3.6247 4.6472-13.075 7.749-21 3.1018-7.9254 7.337-19.135 9.4116-24.91 2.0746-5.775 5.8206-15.9 8.3246-22.5 2.504-6.6 6.3495-16.95 8.5457-23s9.131-24.05 15.411-40c6.2797-15.95 14.489-36.875 18.244-46.5 6.0467-15.502 23.812-56.351 38.487-88.5 3.7836-8.2883 52.686-106.4 57.323-115 2.371-4.4 6.9527-12.725 10.181-18.5s7.7467-13.875 10.04-18c17.795-32.011 174.36-77.3 168.97-68.5-9.8058 16.008-15.843 26.246-26.536 45-3.1358 5.5-8.9107 15.277-12.833 21.726-3.9223 6.4491-7.1315 11.926-7.1315 12.171s-2.4043 4.6434-5.343 9.7744-8.4049 15.179-12.147 22.329-7.5684 14.125-8.5024 15.5c-2.9503 4.3437-41.007 78.926-41.007 80.364 0 0.27014-6.4125 13.486-14.25 29.369-7.8375 15.883-16.25 33.353-18.694 38.822-2.444 5.4694-6.1012 13.544-8.1272 17.944-8.4549 18.363-10.223 22.278-12.544 27.783-1.3411 3.1805-3.7101 8.5805-5.2645 12s-4.4249 10.042-6.3789 14.717-7.1422 17.05-11.529 27.5c-9.3034 22.161-19.612 48.798-25.737 66.5-2.3786 6.875-7.32 21.05-10.981 31.5-11.419 32.595-29.312 91.016-28.213 92.115 0.24078 0.24079 3.0884-3.1312 6.3279-7.4933 21.415-28.836 73.831-79.737 105.39-102.35 3.575-2.561 8.6329-6.596 11.24-8.9665l4.7398-4.31-3.1039-13c-2.7642-11.577-3.1079-14.696-3.1402-28.5-0.0392-16.732 0.76104-22.613 5.3573-39.367 5.3118-19.362 13.558-38.589 24.617-57.395 7.226-12.288 28.756-44.432 34.32-51.239 2.0231-2.475 4.21-5.5125 4.8598-6.75 1.6642-3.1695 2.8447-2.7951 2.3262 0.73773-0.24118 1.6432-0.15326 3.7311 0.19537 4.6396 0.61534 1.6036 1.9673-0.0913 15.973-20.024 10.595-15.078 33.963-39.597 58.117-60.978 6.6-5.8422 12.265-11.636 12.588-12.874 0.32362-1.2385 0.37629-6.7701 0.11706-12.293-0.53385-11.373 1.0329-20.91 5.985-36.435 10.45-32.761 40.135-67.296 82.873-96.415 16.528-11.261 22.863-15.167 30.16-18.597 8.8819-4.1749 11.057-4.3481 6.1241-0.48763-4.9695 3.8892-14.423 18.69-23.616 36.975-22.193 44.14-28.686 55.225-45.099 77-7.9322 10.523-22.345 24.824-24.273 24.084-0.8049-0.30883-1.2182-0.16479-0.9185 0.3201 0.5171 0.83673-8.8961 8.9055-16.441 14.093-1.925 1.3235-3.725 2.6646-4 2.9804s-2.4125 2.0627-4.75 3.8822c-6.0102 4.6783-5.6747 6.4893 0.75 4.0481 2.75-1.0449 5-1.7041 5-1.4648s-4.8375 5.0548-10.75 10.701c-31.805 30.374-46.172 46.394-66.384 74.021-10.384 14.194-24.866 40.025-24.866 44.353 0 1.3-0.36455 2.5889-0.81012 2.8643-0.44556 0.27537-0.91481 2.6644-1.0428 5.309-0.56853 11.751-6.5598 52.07-9.6303 64.808-3.8035 15.78-6.8979 24.552-14.907 42.259-5.3231 11.769-10.326 19.356-21.168 32.1-2.5073 2.9472-4.3387 5.5786-4.0698 5.8476 0.2689 0.26891 4.0075-2.1675 8.308-5.4143 21.239-16.035 43.135-27.358 70.162-36.282 32.257-10.651 42.823-12.668 67.658-12.917 21.064-0.21056 36.666 2.8785 57.5 11.384 25.608 10.455 41.353 18.239 68.313 33.773l7.8129 4.5018-13.813 0.72159c-7.597 0.39687-15.163 0.89462-16.813 1.1061-1.65 0.21149-12.675 0.67304-24.5 1.0257-34.1 1.0169-71.465-3.375-94.5-11.108-15.441-5.1833-40.644-16.616-47.691-21.634-2.8713-2.0446-3.0316-2.0515-7.6211-0.32805-6.4224 2.4117-20.779 9.7342-25.925 13.222l-4.2368 2.8722 18.737 0.0404c15.749 0.0339 20.027 0.3768 26.826 2.1498 25.294 6.5961 42.048 14.471 60.884 28.62 23.132 17.375 49.852 49.05 63.74 75.559 5.2689 10.057 10.161 21.959 9.3574 22.763-0.3137 0.31368-0.5704 2e-3 -0.5704-0.69357 0-2.4053-13.534-15.284-21.758-20.706-12.042-7.9376-22.438-12.643-40.61-18.381-46.522-14.689-67.099-24.513-89.632-42.793-8.1461-6.6086-11.975-11.262-33.244-40.411-1.1404-1.5628-2.3624-0.96617-13.313 6.5-13.036 8.8876-18.809 13.078-21.942 15.926-1.1 0.99989-4.0927 3.2752-6.6505 5.0563-33.502 23.329-74.395 62.171-103.43 98.238-29.51 36.661-37.733 51.618-42.262 76.866-4.259 23.743-14.473 30.763-34.66 23.824zm-103.84-305.44c-0.27741-0.6875-0.50439-0.125-0.50439 1.25s0.22698 1.9375 0.50439 1.25 0.27741-1.8125 0-2.5zm262.84 205.59c-1.65-0.19638-8.1078-1.0582-14.351-1.9151-12.754-1.7506-30.377-2.1289-46.399-0.99592-5.9125 0.41808-10.75 0.42569-10.75 0.0169 0-2.7163 32.874-36.792 49.952-51.778 9.6455-8.4638 19.585-17.424 29.548-26.636 4.1903-3.8747 8.497-7.0353 9.5866-7.0353 0.35286 0 0.95187 5.2875 1.3312 11.75 1.0302 17.554 3.2714 31.063 7.1268 42.958 5.0672 15.634 4.4988 24.413-1.8497 28.573-3.5999 2.3588-14.595 5.7404-18.11 5.5698-1.6967-0.0824-4.4348-0.31051-6.0848-0.50688zm829.42-35.722c-0.2292-0.20842-4.2417-0.69033-8.9167-1.0709-13.507-1.0996-30.99-3.3493-48-6.1766-4.675-0.77707-15.7-2.3445-24.5-3.4831-8.8-1.1387-18.25-2.3809-21-2.7605l-5-0.69022 3.5-1.3098c14.652-5.4834 47.517-16.08 66.579-21.468 62.822-17.756 106.42-18.259 146.39-1.6896 7.0945 2.9405 23.453 11.943 22.825 12.561-0.1624 0.15969-2.5452 1.1731-5.2952 2.252-2.75 1.0789-10.104 4.0425-16.342 6.5858-29.729 12.12-58.71 17.596-93.241 17.618-9.1209 6e-3 -16.771-0.15982-17-0.36824zm-906.65-6.121c0.26693-1.65 1.2086-7.275 2.0926-12.5 0.884-5.225 2.2617-17.825 3.0616-28l1.4543-18.5 9.6868-24c11.008-27.274 23.009-56.9 26.936-66.5 19.804-48.404 42.581-100.3 53.739-122.45 2.2323-4.43 4.4374-9.1796 4.9002-10.555 0.49-1.4556 0.6151 2.9311 0.29946 10.5-0.29817 7.15-1.1588 28.525-1.9125 47.5-1.5106 38.03-1.4584 37.715-9.5262 57.5-5.2662 12.915-12.008 40.276-12.716 51.604-0.71039 11.369 1.1842 26.119 4.8167 37.499 1.5982 5.0069 2.9058 9.54 2.9058 10.073 0 0.53353-3.0519 3.0554-6.7821 5.604s-9.9176 7.1392-13.75 10.201c-3.8324 3.0619-9.4429 7.4546-12.468 9.7617-13.111 9.9993-38.608 31.401-47.861 40.173-5.322 5.0456-5.3579 5.0609-4.8761 2.083zm1080-13.446c-1.2393-1.0338-5.5143-3.1091-9.5-4.6118-35.638-13.436-53.752-22.273-68.247-33.294-19.695-14.975-35.061-29.833-45.658-44.148-4.1041-5.5446-24.782-28.724-33.454-37.5-10.728-10.857-23.403-21.894-29.963-26.091-2.984-1.9088-5.4254-3.6535-5.4254-3.877 0-1.381 20.556 4.1366 37 9.9317 69.161 24.373 106.03 46.727 130.18 78.938 10.251 13.671 19.964 33.294 23.314 47.098 0.8008 3.3 2.1211 8.1375 2.9339 10.75s1.3869 4.735 1.2757 4.7167-1.2161-0.8791-2.4554-1.9129zm-566.5-11.033c-11.171-2.0095-16.765-7.497-16.734-16.418 0.01-2.8062 0.7128-8.2521 1.5628-12.102 3.1639-14.331 4.3587-22.75 7.5213-53 3.1939-30.55 3.2421-31.748 3.3198-82.5 0.075-49.349-0.864-119.03-1.9753-146.5-0.2892-7.15-0.9421-21.775-1.4508-32.5s-1.1935-26.25-1.5217-34.5c-1.3451-33.814 102.99-118.25 102.99-118.25-1.8407 37.482-2.2244 59.828-1.8504 107.75 0.2255 28.875 0.6174 54.525 0.8709 57 0.2536 2.475 0.7122 18.45 1.019 35.5 0.3069 17.05 0.7613 32.8 1.0099 35s0.9091 15.25 1.4679 29c2.8235 69.479 2.9836 72.859 4.5689 96.5 1.9259 28.72 3.0751 39.833 6.5342 63.19 3.0992 20.927 4.336 26.966 7.9077 38.612 2.9871 9.7399 2.5219 18.053-1.3217 23.619-3.5571 5.151-5.2984 6.2706-12.704 8.1678-6.7781 1.7365-11.573 1.5033-22.462-1.0926-9.1536-2.1822-41.469-1.5894-51.469 0.94418-7.8535 1.9897-20.826 2.7412-27.28 1.5804zm1170.1-31.53c-0.4773-0.47728-17.092-4.3446-55.548-12.93-26.965-6.0198-41.296-11.867-58.54-23.887-5.6601-3.9452-13.541-9.3392-17.513-11.987-3.9721-2.6474-7.222-5.3585-7.222-6.0247 0-0.71788 3.5277-1.9374 8.6607-2.994 4.7633-0.98049 9.8258-2.3724 11.25-3.0932 4.7196-2.3886 25.79-6.6841 33.752-6.881 4.3105-0.10657 11.325 0.15579 15.587 0.58304 8.9026 0.89233 8.6638 1.22 5.7903-7.9451-2.3773-7.5824-4.5225-22.199-6.066-41.332-2.052-25.438-8.2468-73.781-9.8307-76.718-0.5283-0.97988-6.6415-10.332-13.585-20.782-14.917-22.45-21.82-35.957-28.108-55-11.19-33.884-16.436-57.805-17.981-82-0.3162-4.95-0.8655-10.575-1.2207-12.5-0.7429-4.0262-0.8372-2.9706-4.1954 47-1.2013 17.875-2.4922 35.08-2.8686 38.233l-0.6845 5.7332-6-5.1506c-7.6742-6.5877-25.022-18.025-39.601-26.109-17.074-9.4672-27.692-15.593-34.649-19.991-7.258-4.5881-7.1013-3.8884-4.7914-21.402 1.3512-10.245 2.9841-29.048 5.5414-63.814 0.5665-7.7 1.4901-19.85 2.0527-27 0.5625-7.15 1.2969-19.412 1.6319-27.25 0 0 94.793 1.725 94.287 4.75-1.5404 9.2144-6.0184 47.798-6.2522 53.87-0.2084 5.4133 0.058 6.11 5.2167 13.667 27.148 39.765 32.246 47.9 41.246 65.814 19.851 39.515 26.417 86.678 17.734 127.38l-2.1827 10.231 3.1334 11.842c1.7234 6.5132 3.1334 13.02 3.1334 14.46s0.45 2.8959 1 3.2358c0.6343 0.39204 1-2.2617 1-7.2573 0-12.169 3.2649-28.066 9.671-47.087 8.7146-25.876 26.502-52.651 53.58-80.656l4.8346-5-0.384 8c-0.3333 6.9442-6.2504 39.233-11.2 61.117-3.4216 15.128-13.497 37.503-23.812 52.883-5.8693 8.7508-14.967 18.763-23.346 25.694-6.956 5.7538-7.3438 6.2923-7.3383 10.19 0 2.2635 0.4338 6.7288 0.9569 9.923 0.5231 3.1941 1.9037 14.219 3.068 24.5 2.4073 21.258 3.8828 29.359 6.7678 37.154l2.0213 5.4617 13.154 5.7123c14.209 6.1704 23.936 11.558 33.776 18.708l6.25 4.5415v17.307c0 15.441-0.4053 18.569-2.1768 16.797zm-239.82-34.715c0-7.2807-0.4265-9.2721-3.4878-16.285-3.363-7.7039-3.4888-8.437-3.5174-20.49-0.016-6.875-0.6951-16.55-1.5085-21.5-0.94-5.7214-1.4801-16-1.4825-28.216 0-20.039-1.7566-37.437-4.7381-47.034-1.5213-4.897-1.5146-5.6192 0.1-10.741 0.9519-3.0198 2.5527-5.9305 3.5574-6.4682 2.8593-1.5303 10.077-2.4489 10.077-1.2826 0 0.55787 1.2375 1.2334 2.75 1.5013s9.95 2.6303 18.75 5.25c14.201 4.2276 17.356 4.8168 28.063 5.241l12.063 0.47797 3.3659-3.0743c4.0966-3.7416 7.4817-4.5758 14.838-3.6567 4.6212 0.57738 6.1932 1.3075 8.8262 4.0993 1.762 1.8682 3.3483 4.4106 3.525 5.6498 0.4423 3.1004-1.829 14.207-4.1419 20.253-7.3534 19.223-11.322 40.207-12.665 66.972l-0.6725 13.4-5.1011 1.2103c-11.432 2.7123-25.847 9.2271-36.963 16.705-12.741 8.5713-23.869 17.434-28.471 22.675l-3.167 3.607zm-141.99-13.63c-1.9027-1.0204-4.8207-3.5399-6.4844-5.5989l-3.0251-3.7437 0.5-11.651c0.8343-19.441 0.4323-45.965-0.889-58.651-2.2303-21.414-5.1673-42.851-6.7818-49.5-3.4568-14.237-11.26-27.193-31.922-53-23.198-28.975-56.877-61.96-84.786-83.039-15.68-11.843-41.796-29.961-43.185-29.961-0.6978 0-1.4187-0.3375-1.6021-0.75-0.1833-0.4125-1.9083-1.6076-3.8333-2.6559s-6.65-3.6828-10.5-5.8545-9.25-5.1732-12-6.6699c-6.1417-3.3426-29.524-14.07-30.669-14.07-1.267 0-0.9908 2.7801 0.3196 3.2169 0.7729 0.25762 1.1061 3.4928 1.0149 9.8516-0.2977 20.745-10.684 40.523-39.666 75.535-12.657 15.291-18.078 22.279-24.386 31.436-6.0806 8.8273-13.846 23.466-16.158 30.461-1.2576 3.8047-1.3572 3.878-2.0395 1.5-1.1022-3.8418-1.0375-34.17 0.099-46.5 1.9258-20.887 6.018-36.726 14.701-56.899 11.226-26.083 22.52-41.186 38.455-51.426 3.1448-2.021 5.7428-3.9216 5.7734-4.2236 0.1333-1.3165-24.338-8.539-35.325-10.426-13.77-2.3648-13.278-2.5188-13.496 4.2249-0.3442 10.658-6.3096 31.793-12.208 43.25-13.845 26.894-40.292 53.824-81.915 83.409-4.675 3.323-9.4 6.8001-10.5 7.7271s-6.5194 5.2673-12.043 9.6454c-10.682 8.466-25.299 23.379-33.745 34.427-2.8206 3.6897-5.2528 6.5842-5.4047 6.4322-0.3224-0.32239 9.2108-28.13 12.904-37.641 1.3883-3.575 3.3226-8.75 4.2984-11.5 3.5787-10.086 12.503-29.312 19.03-41 6.154-11.019 9.0394-15.672 22.323-36 5.6899-8.7072 29.015-32.724 39.39-40.558 16.334-12.334 36.035-22.454 46.052-23.657 3.3858-0.40662 4.4911-0.89012 3.7437-1.6375-0.6798-0.6798-7.5794-1.0129-19.218-0.92768-20.891 0.15291-19.877-0.21468-28.61 10.376-17.818 21.608-36.179 36.067-64.22 50.568-7.425 3.8398-15.075 7.5785-17 8.3083-3.477 1.3181-15.672 6.3381-19.5 8.027-1.1 0.48533-14.504 5.1937-29.788 10.463-52.127 17.973-81.412 32.527-113.87 56.596-9.4628 7.0162-12.477 8.8274-11.303 6.7912 4.7006-8.1504 22.289-32.458 31.729-43.85 14.119-17.038 42.194-45.371 57.234-57.759 14.189-11.687 37.852-26.506 58.124-36.401 17.848-8.7117 22.773-10.823 25.518-10.94 1.6935-0.0721 1.3717-0.3204-1.1418-0.88081-1.925-0.4292-19.025-1.3371-38-2.0175-26.882-0.96395-38.144-0.9747-51-0.0487-23.587 1.6989-52.314 6.5474-76.5 12.912-10.426 2.7436-10.552 2.7156-5.3938-1.1955 6.5471-4.9639 13.454-8.7644 14.389-7.917 0.454 0.41158 0.5378 0.24433 0.1864-0.37167-0.9013-1.5797 26.442-17.43 38.818-22.503 1.1-0.45083 5.6-2.4417 10-4.4243 10.793-4.863 34.048-13.453 36.42-13.453 1.0526 0 2.0638-0.38241 2.2472-0.84979 0.4867-1.2409 30.921-8.6043 48.333-11.694 12.64-2.2429 18.146-2.6814 35-2.7874 21.147-0.13301 29.097 0.72735 45.293 4.9015 11.71 3.0179 21.471 7.2833 29.479 12.881 7.2074 5.0383 19.544 17.588 24.438 24.86 3.1569 4.6911 3.6456 5.0103 8.0753 5.2748 28.323 1.6913 39.171 3.1588 59.099 7.9948 22.967 5.5734 34.942 9.633 58.527 19.841 7.1013 3.0736 13.084 5.4152 13.296 5.2036 0.2115-0.21156-1.5486-1.8968-3.9115-3.7449-5.6913-4.4515-7.4347-6.142-14.614-14.17-10.81-12.088-19.429-25.458-35.917-55.71-7.5237-13.805 51.318-7.8682 58.674 3 4.5204 6.6782 9.1113 17.59 12.201 29 3.2821 12.121 3.2409 30.237-0.094 41.266-1.2914 4.2714-2.1678 7.9038-1.9476 8.072 0.2203 0.16822 2.6505 1.5793 5.4005 3.1357 16.989 9.6151 54.19 35.005 68 46.411 19.994 16.512 45.359 40.889 62.009 59.592 4.3951 4.937 8.836 9.887 9.8687 11s3.1702 4.0243 4.75 6.4695c2.2216 3.4387 2.8723 3.96 2.8723 2.301 0-6.1741-12.134-58.21-26.988-115.73-7.1163-27.561-17.896-62.277-31.365-101.01-5.1634-14.85 109.79-14.5 111.85-9 2.0626 5.5 4.8452 12.841 6.1837 16.313 10.236 26.558 27.89 85.111 37.894 125.69 3.5256 14.3 6.8458 27.575 7.3784 29.5 0.5325 1.925 2.9985 13.175 5.4799 25s5.1736 24.65 5.9825 28.5c4.7951 22.821 7.8809 38.208 11.13 55.5 2.0152 10.725 4.7166 24 6.003 29.5 2.6225 11.212 10.364 33.75 15.897 46.276 4.4873 10.16 5.466 16.784 3.189 21.582-0.8988 1.8941-1.6342 3.8501-1.6342 4.3466 0 1.6835-6.4764 7.0728-11.5 9.5698-5.0195 2.4949-8.6056 3.1735-22.5 4.2576l-7.5 0.58514 2.9111-1.9844c1.6011-1.0914 4.9018-2.7446 7.3349-3.6739 2.4331-0.9292 4.0481-2.042 3.5889-2.4728-1.4295-1.3412-13.748-1.9678-19.935-1.014-3.2451 0.5003-8.3751 1.1954-11.4 1.5446-6.2581 0.72249-20.54 6.0878-29.667 11.145-15.337 8.4984-29.132 11.34-36.324 7.4828zm-1141-7.0773c0-1.2371 6.8305-17.844 9.4848-23.06 8.466-16.638 28.431-36.386 48.972-48.441 21.472-12.601 37.782-18.473 68.043-24.497 17.61-3.5052 28.76-6.0326 38.5-8.7262 18.526-5.1234 23.342-6.3343 23.715-5.9616 0.2074 0.20745-1.5561 1.8672-3.919 3.6882-2.3628 1.8211-14.421 13.242-26.796 25.381-24.656 24.184-31.197 29.792-45.764 39.228-23.721 15.368-44.486 23.987-81.236 33.72-7.425 1.9665-17.438 4.8521-22.25 6.4126-4.8125 1.5604-8.75 2.5756-8.75 2.256zm-342.71-73.228c0.68512-13.046 3.8744-34.804 6.2796-42.84 2.3448-7.8338 13.269-30.33 18.453-38 11.333-16.768 23.733-32.293 37.14-46.5 7.1708-7.5985 20.186-23.357 28.905-35 6.8054-9.0865 20.932-32.789 20.932-35.12 0-0.69381 0.52098-1.5834 1.1577-1.977 1.8505-1.1437 0.29346 30.917-2.1659 44.597-3.3208 18.472-12.522 52.603-17.496 64.903-6.9632 17.216-10.645 24.101-23.048 43.097-14.152 21.674-36.66 41.01-63.434 54.493l-7.3198 3.6862zm-11.314-36.09c-0.1933-9.6996-1.8392-18.492-7.909-42.25-6.1287-23.989-7.4468-30.722-9.2002-47-3.0173-28.011-2.1097-55.298 3.7583-113 3.0474-29.966 2.1298-52.238-2.8158-68.347-1.0717-3.4906-1.7416-6.5536-1.4886-6.8066s2.9695 2.9763 6.0367 7.1763c15.236 20.863 31.71 62.869 39.602 100.98 2.6098 12.603 6.1451 52.351 5.5506 62.408-0.24681 4.1755-0.70266 11.867-1.013 17.092-1.3873 23.357-7.9126 47.883-18.225 68.5-2.6546 5.3073-13.277 22.5-13.901 22.5-0.20352 0-0.38125-0.5625-0.39495-1.25zm1784.5-6.6146c-6.6-2.6618-15.825-6.6697-20.5-8.9064-9.7176-4.6492-33.03-19.043-37.5-23.153-1.65-1.5173-5.7-4.8152-9-7.3286-6.4967-4.9481-21.829-19.682-33.171-31.878-7.6391-8.2139-28.232-33.803-55.329-68.753-5.225-6.7392-11.412-14.697-13.748-17.685-2.3367-2.9874-3.9102-5.4317-3.4968-5.4317s3.0002 1.6127 5.7484 3.5838c5.5529 3.9827 14.587 8.9257 15.747 8.6162 0.4125-0.11002 0.75 0.22679 0.75 0.74847 0 0.52167 4.3875 3.148 9.75 5.8362 5.3625 2.6883 13.35 6.8444 17.75 9.236 4.4 2.3915 10.114 5.3798 12.697 6.6405 5.617 2.7414 35.198 20.512 44.037 26.456 26.674 17.935 57.538 50.451 66.806 70.383 6.8431 14.716 13.271 29.968 14.014 33.25 0.9925 4.386 0.071 4.2837-14.554-1.6146zm-108.5-12.92c-14.591-1.1857-41.36-9.2944-49.5-14.994-3.3329-2.3337-4.0536-3.4509-4.3215-6.6986-0.3794-4.5983 1.0091-10.693 4.3673-19.17 1.3392-3.3806 3.0958-9.0056 3.9035-12.5 1.3182-5.7028 7.5507-46.924 7.5507-49.94 0-0.67305 1.753 1.4884 3.8955 4.8033 14.36 22.218 47.761 60.014 65.604 74.237 4.4 3.5074 9.4584 7.7368 11.241 9.3986l3.2409 3.0216-3.5708 3.2707c-8.0735 7.3951-22.069 10.223-42.411 8.5702zm-1172-103.96c-13.592-1.2537-40.289-8.5557-45-12.308l-2.5-1.9912 4.5-4.1261c14.516-13.309 40.017-24.714 63.754-28.512 15.004-2.4008 53.463-2.3877 68.246 0.0233 27.36 4.462 46.928 4.6684 69 0.72768 6.325-1.1292 11.673-2.0562 11.885-2.0598 0.2117-4e-3 -0.7593 0.89337-2.1577 1.9934-1.3985 1.1-2.8392 2-3.2016 2-0.3625 0-2.0915 1.0795-3.8423 2.3989-5.7584 4.3394-24.857 14.616-32.683 17.585-1.925 0.73044-5.9349 2.4099-8.9109 3.7321-21.363 9.4911-54.483 17.869-80.244 20.299-10.213 0.96312-29.692 1.0827-38.845 0.23848zm-302.38-85.003c0.13032-53.418 78.567-89 78.567-89-5.3666 8.3875-11.676 18.4-14.022 22.25-2.3454 3.85-4.6786 7.675-5.1847 8.5-6.2703 10.221-19.977 33.924-19.977 34.546 0 0.15905-2.025 3.7143-4.5 7.9006-2.475 4.1863-4.5 7.8324-4.5 8.1025s-1.0525 2.1696-2.3388 4.2212c-3.272 5.2184-20.332 36.336-24.386 44.48-1.8479 3.7125-3.4534 6.75-3.5677 6.75-0.11435 0-0.15548-21.488-0.0914-47.75z"/>
  <circle cx="950.48" cy="540.88" r="1.3218" stroke="#000"/>
 </g>
</svg>
