<?xml version="1.0" encoding="UTF-8" standalone="no"?>
<!-- Created with Inkscape (http://www.inkscape.org/) -->

<svg
   width="2048"
   height="2048"
   version="1.1"
   viewBox="0 0 2048 2048"
   id="svg1"
   sodipodi:docname="background.svg"
   inkscape:version="1.4.3 (0d15f75042, 2025-12-25)"
   xmlns:inkscape="http://www.inkscape.org/namespaces/inkscape"
   xmlns:sodipodi="http://sodipodi.sourceforge.net/DTD/sodipodi-0.dtd"
   xmlns="http://www.w3.org/2000/svg"
   xmlns:svg="http://www.w3.org/2000/svg">
  <defs
     id="defs1" />
  <sodipodi:namedview
     id="namedview1"
     pagecolor="#ffffff"
     bordercolor="#000000"
     borderopacity="0.25"
     inkscape:showpageshadow="2"
     inkscape:pageopacity="0.0"
     inkscape:pagecheckerboard="0"
     inkscape:deskcolor="#d1d1d1"
     inkscape:zoom="0.38085938"
     inkscape:cx="655.09743"
     inkscape:cy="1725.0461"
     inkscape:window-width="1920"
     inkscape:window-height="1008"
     inkscape:window-x="0"
     inkscape:window-y="0"
     inkscape:window-maximized="1"
     inkscape:current-layer="g1" />
  <g
     id="g1"
     transform="matrix(1.0833265,0,0,1.2014786,-171.10208,-362.13945)">
    <path
       d="m 153.09397,2020.0862 c 0,-11.9482 0.0489,-12.2416 2.35933,-14.1405 4.0715,-3.346 8.30431,-4.248 16.86107,-3.5931 29.29535,2.2428 42.38241,1.7482 73.31203,-2.771 10.33227,-1.5097 18.13994,-1.0765 27.59294,1.5308 4.08244,1.126 9.05836,5.5261 11.29166,9.985 2.26164,4.5159 -131.41381,15.6998 -131.41381,8.9888 z m 305.61329,-23.5358 c -2.90054,-13.5547 -3.54375,-21.915 -1.9289,-25.0672 0.55348,-1.0805 2.47672,-2.6935 4.27378,-3.5844 2.89832,-1.437 6.77693,-1.5899 34.3289,-1.3538 30.55765,0.2619 31.23989,0.2253 42.10987,-2.2537 13.08338,-2.984 20.17473,-2.9371 26.51202,0.1751 5.16467,2.5364 7.63485,5.5257 9.02587,10.9228 1.27999,4.9662 0.68373,10.9546 -2.83829,28.5081 -3.86536,19.2649 -105.76266,19.387 -111.4803,-7.3473 z m 516.98209,20.4201 c -2.42931,-22.0256 -3.92492,-30.2848 -8.89992,-49.1456 -4.77124,-18.0884 -3.65634,-27.0902 3.8984,-31.4719 2.98497,-1.7314 4.64787,-1.8347 22.55754,-1.4007 12.77403,0.3096 24.33363,0.01 34.06653,-0.8965 17.1419,-1.5883 18.2283,-1.7608 30.2906,-4.8098 5.466,-1.3816 11.8846,-2.3038 16.0361,-2.3038 10.5919,0 6.9134,-1.3814 -5.1234,-1.9238 -6.2681,-0.2826 -10.8046,-0.9 -10.9933,-1.4963 -0.1765,-0.5584 1.4359,-2.0469 3.5828,-3.3076 l 3.9038,-2.2922 -3.063,-1.3058 c -8.5222,-3.6331 -19.8746,-4.0022 -39.0145,-1.2684 -35.03876,5.0047 -51.32715,2.7628 -57.65523,-7.9361 -3.32158,-5.6151 -3.36927,-10.4111 -0.23626,-23.7571 5.13429,-21.8707 6.69214,-36.9963 8.37171,-81.2841 1.0452,-27.5596 0.43328,-93.2074 -1.34489,-144.2913 -0.54267,-15.5883 -1.15936,-39.8148 -2.30189,-90.4226 -0.48963,-21.6918 -1.11112,-47.6642 -1.38088,-57.7165 -2.35906,-87.8907 -2.29038,-86.2622 -4.68736,-111.1043 -1.60095,-16.5916 -4.07629,-31.1814 -7.78457,-45.8847 -4.06993,-16.1365 -3.28244,-22.6027 3.34413,-27.4625 5.11715,-3.7526 11.90394,-4.2597 28.78712,-2.1509 13.05482,1.6306 14.58042,1.6362 29.28332,0.1078 8.5309,-0.8869 18.825,-2.4927 22.8762,-3.5684 10.6895,-2.8382 24.5509,-2.8703 30.089,-0.069 10.1794,5.1483 11.903,12.3658 7.7049,32.2587 -5.5705,26.3948 -6.3081,37.0406 -6.406,92.4619 -0.079,45.0584 1.0618,135.0086 1.7515,138.0387 0.1805,0.7936 0.5808,12.9141 0.8895,26.9344 0.5516,25.0519 1.8982,63.7489 2.7783,79.8412 0.246,4.4971 0.6906,14.2368 0.9881,21.6437 1.4001,34.8627 10.5183,128.7175 12.7288,131.0262 0.1346,0.1405 0.9911,-3.0936 1.9037,-7.1869 2.7928,-12.5283 13.8347,-49.8344 19.7116,-66.602 17.1198,-48.8368 44.2828,-104.6497 70.3557,-144.5511 3.2185,-4.9264 3.6119,-6.1172 3.2203,-9.7483 -0.2492,-2.3094 -2.557,-8.4766 -5.2251,-13.9626 -5.8526,-12.0348 -9.6012,-22.0246 -12.3007,-32.782 -1.8287,-7.287 -2.0487,-10.4784 -2.0223,-29.3392 0.021,-15.9904 0.432,-23.5137 1.6762,-30.7822 2.6644,-15.5632 6.9115,-32.6974 11.8028,-47.6161 2.5151,-7.6715 10.0818,-30.9919 16.815,-51.8227 13.157,-40.7046 12.4941,-39.4839 13.8963,-25.6137 0.3208,3.1744 1.369,12.2648 2.3294,20.2008 7.3341,60.6053 8.2878,101.3502 3.0731,131.3051 -3.8188,21.9342 -9.6602,39.8331 -19.5791,59.9944 -4.7273,9.6092 -7.4844,16.3357 -7.4815,18.2529 v 3.0363 l 2.3168,-2.8859 c 1.2741,-1.5872 4.2623,-5.483 6.6404,-8.6574 2.3781,-3.1744 8.8388,-11.3991 14.3577,-18.2769 12.8411,-16.0048 13.4589,-17.3987 13.4847,-30.4157 0.035,-17.5679 3.9095,-36.043 10.5671,-50.3875 10.1029,-21.7659 27.3932,-43.5846 53.443,-67.4398 7.0514,-6.4575 11.426,-10.1735 37.2889,-31.6749 12.1461,-10.0975 31.8329,-27.8184 36.1952,-32.5809 l 2.5895,-2.8268 -0.665,2.8113 c -0.3657,1.5462 -1.4003,4.3263 -2.299,6.178 -0.8986,1.8518 -3.1618,7.2627 -5.0291,12.0243 -12.8155,32.6782 -41.8852,81.1139 -62.3518,103.8898 -3.8035,4.2325 -6.776,7.851 -6.6056,8.0409 0.1704,0.19 1.5603,-0.5848 3.0888,-1.7219 5.0954,-3.7908 28.9509,-15.2449 40.1211,-19.2629 18.3895,-6.6161 38.5466,-11.0902 75.5181,-16.7628 20.3459,-3.1218 64.9067,-5.93 59.3861,-3.7426 -0.7596,0.301 -8.0103,3.9256 -16.1125,8.0548 -13.2491,6.7521 -30.9029,17.2707 -44.0157,26.2244 -2.6305,1.7963 -9.5479,6.1938 -15.3705,9.7724 -5.8226,3.5786 -12.4526,7.6607 -14.7314,9.0715 -2.2788,1.4108 -10.7834,6.0738 -18.8987,10.3621 -23.7821,12.5677 -54.1151,22.1804 -77.1348,24.4458 -22.4618,2.2103 -29.2088,3.4272 -32.4773,5.8576 -3.3662,2.5023 -16.2783,15.268 -15.8456,15.6653 0.1454,0.1332 6.4792,-2.1269 14.0751,-5.0224 23.8419,-9.0884 33.1273,-11.0027 53.1998,-10.9671 13.2427,0.023 24.9358,1.0985 32.4268,2.9824 2.0255,0.5093 8.5299,2.0263 14.4543,3.3712 22.5667,5.1226 44.5893,13.017 65.6479,23.533 5.064,2.5286 13.4406,6.6338 18.6151,9.1227 9.2037,4.4268 22.8282,11.8608 33.8658,18.477 l 5.5243,3.3119 -6.4451,-0.5536 c -3.5447,-0.3045 -30.4756,-0.9372 -59.8465,-1.4061 -29.3709,-0.4689 -54.4374,-1.077 -55.7033,-1.3514 -1.266,-0.2744 -6.0307,-0.9935 -10.5882,-1.598 -39.9343,-5.2967 -71.6567,-16.8715 -92.9003,-33.8979 -8.068,-6.4662 -14.7398,-4.4885 -21.9067,6.4931 -2.4166,3.7035 -4.4014,7.0583 -4.4104,7.4551 -0.01,0.3968 6.1825,0.7214 13.7592,0.7214 14.9137,0 21.2667,1.1237 39.1662,6.9271 14.599,4.7333 19.6887,7.3156 38.4888,19.5264 26.837,17.4304 56.5116,46.028 93.333,89.9416 7.7627,9.2585 14.1136,17.2082 14.1136,17.6661 0,0.4579 -0.9322,0.1942 -2.0716,-0.5857 -1.1393,-0.78 -8.4936,-4.9105 -16.3427,-9.1792 -16.7137,-9.0893 -30.565,-15.3958 -60.503,-27.5481 -18.6289,-7.5616 -43.236,-19.9218 -61.7377,-31.0111 -22.3549,-13.3988 -44.1621,-33.2985 -55.1721,-50.3461 -2.5626,-3.968 -5.4872,-7.9895 -6.499,-8.9366 -1.7937,-1.6789 -1.9321,-1.6063 -5.5048,2.8858 -5.514,6.9326 -7.1614,10.8603 -4.5552,10.8603 0.6713,0 2.1938,1.0822 3.383,2.4049 1.1893,1.3227 2.477,2.4048 2.8616,2.4048 0.3844,0 2.9017,1.3738 5.5939,3.0529 22.9967,14.3425 32.934,24.0822 46.3397,45.421 9.3305,14.8514 21.1396,39.1443 27.8737,57.3394 5.9027,15.949 14.5804,45.7413 20.034,68.7789 2.7551,11.6395 5.4071,22.6364 5.8933,24.4371 1.087,4.026 1.0382,3.9728 -8.3004,-9.0456 -11.0946,-15.4661 -29.5827,-38.0785 -43.6504,-53.3878 -8.6441,-9.4072 -23.7415,-28.8563 -33.8353,-43.5865 -17.3186,-25.2751 -28.6711,-54.7769 -32.0676,-83.3379 -0.5349,-4.4965 -1.0596,-8.2667 -1.1664,-8.3781 -0.3444,-0.36 -10.0044,16.1885 -16.0905,27.5654 -17.1666,32.0885 -25.6952,49.4217 -31.1073,63.2227 -1.821,4.6434 -4.9707,12.1224 -6.9993,16.6185 -17.3868,38.5431 -33.5398,90.0743 -42.2149,134.6719 -3.1599,16.2453 -3.2409,18.149 -1.1958,28.0926 1.2902,6.2731 1.3496,8.095 0.3743,11.4961 -1.6533,5.7649 -9.0267,12.8679 -18.7311,18.0451 -4.3772,2.335 -7.7478,4.6018 -7.4901,5.0373 0.2577,0.4356 3.4513,1.7305 7.097,2.8777 8.3734,2.6347 15.7322,6.915 18.5653,10.7987 3.0052,4.1196 3.3309,9.5885 1.2916,21.6861 -5.2876,31.3689 -123.99281,73.9897 -125.61326,59.3306 z m 271.41785,-467.8502 c 4.4158,-4.562 7.8688,-8.4614 7.6736,-8.6655 -1.0789,-1.1273 -29.0523,25.5175 -29.0523,27.6722 0,1.4783 11.1204,-8.4083 21.379,-19.007 z m 449.5765,476.4211 c 0.3012,-6.3488 1.1442,-21.7158 1.8734,-34.1489 1.5293,-26.0744 1.7084,-55.2299 0.4176,-68.0295 -0.4919,-4.8785 -2.1779,-15.4835 -3.7464,-23.5676 -4.442,-22.8904 -3.1478,-31.1631 5.5734,-35.6275 5.7389,-2.9377 21.9343,-3.516 33.6661,-1.2018 30.7058,6.0566 52.5352,7.6548 66.0613,4.8369 4.4531,-0.9276 9.3776,-1.419 10.9427,-1.0918 4.7835,0.9996 8.7945,4.258 10.9391,8.8873 1.9189,4.1414 1.9726,4.8744 1.0001,13.6711 -0.5651,5.1123 -2.4563,16.2212 -4.2028,24.6863 -3.4348,16.6503 -7.2333,44.4889 -8.794,64.4502 -0.5378,6.8778 -1.1799,15.1025 -1.427,18.2769 -0.6545,8.4119 -112.6036,35.207 -112.309,28.8582 z m 312.62,-48.5781 c -0.4843,-5.0261 -1.122,-12.385 -1.417,-16.353 -0.295,-3.968 -0.7244,-9.1625 -0.9542,-11.5433 -0.2298,-2.3808 -1.4523,-16.0163 -2.7165,-30.3012 -2.7421,-30.9832 -4.4718,-47.7931 -7.3743,-71.6647 -1.1901,-9.7877 -2.4365,-20.3931 -2.7698,-23.5675 -1.3018,-12.3966 -7.0532,-45.7673 -9.6961,-56.2554 -3.1625,-12.5533 -2.9299,-14.4089 2.2734,-18.1249 2.6356,-1.8825 5.2852,-2.4452 16.7837,-3.5639 7.51,-0.7307 16.1402,-1.8157 19.1786,-2.411 3.0383,-0.5955 7.5126,-1.4806 9.9427,-1.9673 2.4303,-0.4865 4.8126,-0.8847 5.2941,-0.8847 0.5512,0 0.8755,90.9998 0.8755,245.6416 0,0 -28.3829,1.7725 -29.4215,-9.0045 z m -164.974,27.8916 c 3.4483,-21.8332 4.0944,-34.1538 3.5055,-66.8502 -0.305,-16.9302 -0.9832,-36.1931 -1.5071,-42.8064 -0.524,-6.6134 -1.5873,-22.4133 -2.363,-35.1109 -5.8865,-96.3674 -9.2292,-127.7267 -16.1356,-151.352 -0.9801,-3.3527 -2.3693,-7.465 -3.0873,-9.1385 -5.1227,-11.9406 -7.712,-24.7825 -6.0547,-30.028 1.3463,-4.2618 7.3289,-9.7569 11.6682,-10.716 1.9293,-0.4267 12.1848,-0.6527 22.7906,-0.5022 22.4571,0.3186 39.9121,-1.4744 52.072,-5.349 4.3043,-1.3714 10.5192,-2.6609 13.8107,-2.8655 5.095,-0.3166 6.4637,-0.038 9.2072,1.8733 1.7723,1.2349 3.9718,3.8411 4.8876,5.7915 1.5933,3.3937 1.5982,4.1596 0.1162,17.7834 -2.7633,25.4011 -2.9705,28.5034 -2.6848,40.2092 0.8565,35.0878 2.8826,77.6778 4.5765,96.1942 2.8793,31.4758 6.5254,77.1651 7.3693,92.3465 0.5196,9.3465 0.6961,11.8107 1.8612,25.9724 2.4326,29.5673 5.9264,50.2596 11.613,68.7789 3.262,10.6227 4.2534,19.437 2.7291,24.2621 -3.8873,12.3061 -125.2727,50.5116 -114.3714,-18.4953 z M 169.0868,1989.105 c -5.75245,-1.9686 -10.289,-5.2269 -13.27672,-9.536 l -2.67413,-3.8569 0.022,-19.335 c 0.0121,-10.6343 0.42035,-21.0665 0.90725,-23.1828 3.71472,-16.1452 6.46002,-44.7851 7.79165,-81.2841 0.2992,-8.2006 0.73433,-17.7238 0.96694,-21.1627 0.23263,-3.439 0.84381,-18.1567 1.35815,-32.7061 0.51436,-14.5494 1.13248,-28.8342 1.37361,-31.7441 0.24111,-2.9098 0.6783,-9.6194 0.97154,-14.9101 0.29323,-5.2907 0.90285,-14.8139 1.35474,-21.1627 0.4519,-6.3488 1.06325,-15.4392 1.35871,-20.2008 1.61558,-26.0398 3.10226,-46.507 3.7381,-51.4639 0.23757,-1.8517 1.08286,-12.0243 1.87836,-22.6056 5.75153,-76.4995 5.96983,-83.9564 3.12601,-106.7756 -3.17905,-25.5098 -2.48759,-33.3621 3.52837,-40.0668 3.86425,-4.3068 11.73453,-7.0787 17.41811,-6.1349 4.84066,0.8038 16.34823,4.0642 23.57125,6.6783 6.10103,2.2081 6.47098,2.232 11.96931,0.7767 4.2352,-1.121 10.8092,-1.5212 25.92921,-1.5784 19.97309,-0.076 20.35242,-0.039 27.16112,2.6001 20.53196,7.9585 23.7554,18.6905 13.89729,46.2608 -2.62459,7.3398 -5.58212,16.8628 -6.57226,21.1627 -3.09747,13.4518 -10.15734,61.04 -11.43437,77.0775 -0.2949,3.7035 -1.54082,18.6377 -2.76868,33.187 -1.22788,14.5494 -2.49606,33.5959 -2.81804,42.3255 -0.32206,8.7296 -0.78303,16.9542 -1.02439,18.2769 -0.83933,4.5997 -1.09547,131.4398 -0.30881,152.9488 0.94364,25.7964 2.80422,42.3986 6.57622,58.6785 1.53225,6.6133 3.00576,15.9394 3.27453,20.7241 0.42468,7.5615 0.23609,9.2168 -1.44166,12.6524 -4.99903,10.2379 -14.41473,13.472 -34.2083,11.7501 -26.05349,-2.2662 -46.67661,-1.7444 -59.51047,1.5059 -8.59314,2.1763 -17.67407,2.6282 -22.13494,1.1016 z m 297.42813,-34.7483 c -2.16294,-1.3546 -5.12866,-4.5312 -6.8562,-7.3438 -4.41889,-7.1947 -4.6127,-12.9006 -0.89567,-26.3784 3.47128,-12.587 5.11641,-23.2751 6.9502,-45.1564 2.05523,-24.5228 3.18035,-45.0651 4.1621,-75.9935 1.18192,-37.2329 1.17806,-226.5181 -0.006,-246.7382 -1.17824,-20.1363 -4.07703,-43.0276 -6.96531,-55.0048 -4.50377,-18.6761 -2.49551,-25.1827 8.59194,-27.8376 4.00852,-0.9596 7.58273,-0.8593 20.53934,0.5764 17.43651,1.9319 23.21124,1.7347 46.52285,-1.5895 14.14497,-2.017 15.17617,-2.0437 22.30343,-0.5767 8.53449,1.7566 12.13688,4.0141 14.41749,9.0354 1.99234,4.3866 1.48871,9.9917 -2.25428,25.0875 -6.05619,24.4246 -8.77304,53.2704 -9.6758,102.7354 -0.27046,14.8139 -0.74616,69.356 -1.05716,121.2047 -0.55751,92.9534 0.18346,137.7886 2.3411,141.6556 0.74348,1.3333 0.94236,0.8931 0.98322,-2.1765 0.0282,-2.1163 1.0185,-7.7436 2.20062,-12.5052 1.1821,-4.7616 3.24119,-13.0209 4.57567,-18.3539 4.33547,-17.3246 18.9686,-61.0179 27.03592,-80.7262 13.94055,-34.0575 31.2445,-69.9967 46.3157,-96.1942 3.65229,-6.3488 7.31692,-12.7881 8.14373,-14.3098 0.8268,-1.5218 2.48409,-4.0255 3.68314,-5.5642 3.1354,-4.0236 2.52553,-12.436 -1.31202,-18.0989 -11.55407,-17.0495 -15.9468,-25.6012 -20.51632,-39.9447 -7.92248,-24.8633 -8.60934,-60.6245 -1.94298,-101.1675 3.91111,-23.7849 20.75478,-87.5175 25.72849,-97.3485 l 1.76621,-3.4921 0.0496,5.7716 c 0.0759,8.8373 2.53749,30.3339 5.06715,44.2493 12.84215,70.648 14.43499,83.7891 13.78497,113.7209 -0.37766,17.3832 -1.87569,29.9241 -5.48986,45.9587 -2.2111,9.8099 -8.25662,28.5485 -10.99612,34.0835 -0.84612,1.7095 -1.39313,4.6384 -1.23569,6.6166 l 0.28245,3.5495 3.58021,-5.7717 c 3.24497,-5.2311 19.23284,-26.4341 27.80747,-36.8779 4.30306,-5.2412 4.788,-9.3527 2.77338,-23.5128 -0.81145,-5.7034 -1.47535,-13.751 -1.47535,-17.8835 0,-32.0509 13.6938,-70.4334 38.48317,-107.8625 14.36132,-21.6841 48.44439,-61.9732 68.57769,-81.0658 6.64766,-6.304 7.72334,-7.0302 6.85575,-4.6289 -0.56597,1.5666 -1.42629,2.5919 -1.9117,2.2784 -0.48547,-0.3135 -0.60647,-0.1031 -0.26893,0.4676 0.33754,0.5706 -0.82874,4.4651 -2.59172,8.6545 -3.93993,9.3622 -13.00788,37.7639 -21.26303,66.5991 -10.79723,37.711 -21.7694,65.6987 -33.90168,86.4728 -8.74238,14.9698 -17.46875,26.2947 -33.43212,43.3894 -5.68165,6.0843 -11.17105,12.2013 -12.19765,13.5942 -2.20603,2.9915 -4.01312,7.6092 -3.2783,8.377 0.28531,0.2982 6.61535,-5.7594 14.0667,-13.4614 15.15591,-15.6652 20.84871,-20.4172 32.88338,-27.45 17.88399,-10.4505 37.95375,-17.7574 62.6087,-22.7951 20.54485,-4.1975 45.45851,-6.9277 73.19692,-8.0212 19.55602,-0.7709 23.36962,-0.8028 44.17781,-0.3695 13.72418,0.2857 13.71038,0.2353 1.43631,5.405 -10.45841,4.405 -15.0712,6.6865 -52.51949,25.9744 -35.73115,18.4029 -35.98342,18.5241 -48.3376,23.253 -26.70076,10.2197 -40.09902,13.9289 -59.84654,16.5685 -21.06599,2.8159 -45.56808,3.085 -58.17728,0.6386 -2.83839,-0.5506 -6.06817,2.4089 -14.09433,12.9151 -5.458,7.1442 -14.30701,20.4884 -13.88071,20.9328 0.15678,0.1638 3.70183,-1.893 7.87791,-4.5708 4.17601,-2.6777 10.34148,-6.0867 13.70118,-7.5754 7.44363,-3.2983 22.90189,-7.4523 32.64583,-8.7729 9.27714,-1.2572 33.41279,-1.2563 42.6798,0 20.62404,2.7995 48.25657,10.4371 68.88982,19.0426 18.77248,7.8287 32.97453,14.1771 35.86373,16.0298 1.85847,1.1924 10.67847,6.0951 34.03151,18.9166 12.31089,6.7589 15.8133,9.2398 11.58906,8.2086 -1.26599,-0.3091 -8.30947,-1.2876 -15.65218,-2.1744 -11.21433,-1.3546 -17.17964,-1.4823 -37.289,-0.7985 -34.351,1.1682 -79.28379,0.9424 -90.69054,-0.4557 -5.31713,-0.6517 -13.56583,-2.0243 -18.33053,-3.0502 -4.7648,-1.0258 -9.11518,-1.8515 -9.66752,-1.8348 -0.55234,0.016 2.72467,2.0766 7.28222,4.5777 19.8267,10.8805 42.99744,29.925 63.16573,51.916 19.39396,21.1473 43.0094,51.0695 50.88889,64.48 0.40162,0.6834 -1.5421,-0.276 -4.31944,-2.1322 -16.76901,-11.2066 -45.35448,-25.8368 -65.54117,-33.5439 -35.57648,-13.5826 -43.11254,-16.809 -58.46548,-25.0336 -23.08971,-12.3696 -37.98691,-22.3382 -49.05667,-32.8253 -7.58422,-7.1856 -19.93719,-21.5369 -26.12901,-30.356 -2.04353,-2.9104 -4.44751,-5.9265 -5.34226,-6.7024 -1.45935,-1.2654 -1.81336,-1.1698 -3.43861,0.9271 -0.99648,1.2857 -2.87328,4.3018 -4.17057,6.7024 -1.29729,2.4007 -3.27332,5.8798 -4.39098,7.7315 -2.04271,3.3843 -13.12389,23.8062 -18.26977,33.668 -1.51807,2.9099 -3.64962,6.8058 -4.73671,8.6575 -1.0871,1.8517 -4.19516,7.912 -6.90676,13.4672 -2.7116,5.5552 -5.68707,11.399 -6.61203,12.9862 -2.6014,4.4638 -1.99197,5.2328 0.84328,1.0641 4.04794,-5.9516 3.54062,-1.8607 -1.01498,8.1846 -20.31746,44.8015 -31.25189,78.7869 -42.5196,132.1612 -7.04524,33.3708 -8.66698,48.1 -6.7507,61.3114 2.19407,15.1265 -0.59685,21.7071 -10.91692,25.7415 -6.1897,2.4196 -10.61494,2.4233 -21.52266,0.018 -9.54598,-2.1049 -29.5329,-2.6368 -38.57985,-1.0266 -2.78517,0.4957 -8.58567,1.5674 -12.89003,2.3816 -11.63968,2.2016 -17.19252,1.9746 -21.76573,-0.8897 z m 214.65576,-319.3455 c 4.05115,-0.7648 11.19774,-1.4055 15.88235,-1.424 4.68414,-0.018 8.50317,-0.3582 8.48661,-0.755 -0.0165,-0.3968 -1.36303,-1.4042 -2.99233,-2.2386 -1.62931,-0.8343 -6.15748,-3.3519 -10.06251,-5.5948 -10.04317,-5.7678 -11.8533,-5.4369 -17.52399,3.2017 -2.40823,3.6692 -4.37855,7.0239 -4.37855,7.4551 0,1.0886 2.07695,0.9622 10.58822,-0.6444 z m 1120.97181,217.2161 c -1.266,-0.2148 -7.2736,-1.4633 -13.3504,-2.7744 -18.976,-4.0944 -26.058,-4.4444 -46.8239,-2.3137 -11.7033,1.2008 -27.7642,1.1846 -31.9571,-0.033 -4.3371,-1.2588 -10.5855,-6.9462 -12.949,-11.7857 -2.3957,-4.906 -2.3512,-10.8218 0.1426,-18.9945 1.0582,-3.4684 2.1423,-10.3216 2.4346,-15.3911 1.1598,-20.1123 -8.7562,-62.8985 -24.0712,-103.8705 -5.2188,-13.9597 -20.6517,-47.6392 -21.8292,-47.6392 -0.616,0 -2.6276,4.9637 -4.4834,11.0623 -7.198,23.6551 -17.4098,39.8927 -38.5863,61.3546 -4.3237,4.382 -9.7255,9.3437 -12.0043,11.0258 -15.225,11.2393 -46.9638,42.0349 -54.1851,52.5759 -1.5946,2.328 -2.8995,4.0555 -2.8995,3.8389 0,-1.9441 8.4146,-26.7237 12.9149,-38.0332 12.497,-31.4026 24.5371,-53.4292 40.0144,-73.2067 2.6541,-3.3916 1.9007,-3.9477 -2.2849,-1.6864 -4.11,2.2205 -30.4278,8.8445 -47.6185,11.9848 -39.9168,7.2924 -52.6485,9.9263 -69.318,14.3397 -9.8746,2.6143 -18.7826,5.0454 -19.7954,5.4024 -4.1484,1.4623 12.3781,-11.6713 22.9728,-18.2567 2.6732,-1.6616 17.4697,-11.8319 24.4441,-16.8023 2.3521,-1.676 5.3421,-3.4545 17.4936,-10.4053 24.143,-13.8097 51.1854,-22.5845 78.0528,-25.326 13.5888,-1.3869 21.2878,-0.7651 38.2797,3.0919 7.4388,1.6884 13.7684,2.8158 14.0657,2.5054 0.7036,-0.7351 -10.2346,-22.444 -14.1467,-28.0752 -2.8992,-4.1739 -3.2096,-4.3492 -7.7041,-4.3492 -2.5756,0 -6.8184,0.6467 -9.428,1.437 -9.5083,2.8792 -25.2673,5.442 -36.5101,5.9374 -26.6096,1.1724 -60.5205,-7.9886 -110.9464,-29.9722 -8.1022,-3.5323 -21.6947,-9.3753 -30.2058,-12.9843 -8.5109,-3.6092 -15.1366,-6.7803 -14.7232,-7.047 0.897,-0.5793 13.3181,-1.8263 46.7705,-4.6954 28.4382,-2.4391 61.1466,-2.8607 72.7366,-0.9374 21.8421,3.6244 35.4024,7.6451 50.4819,14.9678 10.7835,5.2366 13.9276,7.6481 25.6769,19.6938 4.921,5.045 9.1363,8.9751 9.3674,8.7335 0.5126,-0.5355 -9.1727,-18.225 -14.284,-26.0888 -2.0376,-3.1347 -4.6991,-6.0945 -5.9147,-6.5774 -1.2157,-0.4829 -4.3394,-2.4081 -6.9417,-4.2783 -2.6022,-1.8702 -5.2413,-3.4003 -5.8645,-3.4003 -1.6379,0 -20.5274,-12.5245 -29.3423,-19.4553 -9.9087,-7.7908 -26.7643,-25.6579 -37.5956,-39.8513 -9.0877,-11.9089 -17.4135,-25.2077 -42.9679,-68.6317 -10.4134,-17.695 -17.0922,-27.4837 -23.5207,-34.4732 l -4.7221,-5.1341 3.2225,1.4203 c 23.366,10.2985 63.6104,36.0949 83.8644,53.7572 8.673,7.5631 29.508,28.0867 33.944,33.4361 8.3476,10.0667 19.7466,28.9602 24.2112,40.1274 4.1621,10.4111 5.3397,14.2021 8.9153,28.7034 3.6953,14.9871 6.3127,23.0905 7.5532,23.3829 0.6907,0.1633 2.0845,2.0132 3.0974,4.1111 1.0127,2.0979 4.7417,8.1923 8.2863,13.5431 l 6.4452,9.7291 0.2833,-3.9886 c 0.2502,-3.5171 -0.3846,-5.0323 -5.37,-12.8198 -10.2615,-16.0279 -15.7066,-29.8394 -19.4567,-49.3495 -2.6904,-13.9982 -3.3638,-50.6367 -1.3616,-74.0696 3.2428,-37.9505 3.7802,-58.9844 1.8806,-73.5886 l -0.4379,-3.3666 2.8264,4.6565 c 7.1568,11.7905 18.5856,38.6335 28.5293,67.0079 19.8322,56.5901 20.335,89.6636 1.9412,127.7075 -6.3562,13.1478 -7.5841,18.7656 -4.8895,22.3661 2.474,3.3062 12.4185,21.7697 20.717,38.4623 8.6723,17.4458 19.3994,42.8112 25.0186,59.1594 2.3642,6.8779 5.3364,15.2516 6.6053,18.6088 1.2689,3.3572 4.3855,13.5269 6.926,22.5999 2.5406,9.0726 4.9133,17.0446 5.2729,17.7161 1.2568,2.3464 10.671,-87.304 13.006,-123.8597 3.0222,-47.3093 4.7631,-72.3698 5.9471,-85.6129 1.7219,-19.259 4.6616,-71.1462 6.4853,-114.4711 0.7905,-18.7819 2.0792,-48.0009 2.8637,-64.9311 0.7844,-16.9302 1.4738,-42.2321 1.5321,-56.2265 l 0.106,-25.4443 2.167,5.1659 c 11.5015,27.4192 31.5832,107.7857 43.5112,174.1404 9.6832,53.8659 18.9243,120.8296 20.311,147.1772 0.7572,14.3887 1.2323,17.7844 3.2718,23.3781 1.3123,3.5993 3.4266,7.8361 4.6985,9.4154 2.0421,2.5355 2.1587,3.0636 0.9982,4.5181 -2.6242,3.2888 -3.5117,7.1912 -3.5117,15.4411 0,8.7373 1.6278,16.2203 7.357,33.8219 l 2.6615,8.1765 0.4326,34.1489 c 0.4217,33.2746 1.6651,50.3529 4.4477,61.0834 0.5489,2.1162 1.0465,8.3929 1.1058,13.9481 0.094,8.7989 -0.1711,10.693 -2.058,14.6956 -2.7153,5.7615 -6.5857,8.8383 -12.8412,10.2082 -4.9621,1.0867 -5.3406,1.1034 -9.3922,0.4158 z m 183.2226,-120.262 c -8.9026,-3.3643 -10.5975,-6.2432 -9.756,-16.5762 1.6371,-20.1142 1.5812,-33.5304 -0.2647,-63.5536 -1.0572,-17.1947 -2.3532,-40.137 -2.8801,-50.9829 -3.0063,-61.874 -9.6271,-128.756 -16.155,-163.1839 -2.922,-15.4113 -6.0602,-25.5896 -11.6746,-37.8639 -5.1593,-11.2788 -5.9305,-16.6897 -3.0938,-21.7072 3.7892,-6.7018 11.4104,-9.0547 29.3709,-9.0678 12.1341,-0.01 19.2217,-1.5978 35.6288,-7.9869 10.649,-4.1466 13.3707,-4.8401 18.9945,-4.839 4.8599,7e-4 7.3699,0.4923 9.6674,1.8929 l 3.1031,1.8917 0.2853,12.9343 c 0.2095,9.4964 -0.1184,14.7581 -1.2337,19.7987 -1.3821,6.2457 -1.4147,10.1889 -0.3623,43.7684 0.6742,21.5157 1.2874,89.9165 1.4705,164.04 l 0.314,127.1302 -3.4593,0.5271 c -1.9027,0.2899 -6.5669,0.7846 -10.3645,1.0993 -11.5275,0.9553 -16.7774,1.5264 -22.5576,2.4539 -5.9513,0.9549 -14.795,1.0729 -17.0332,0.2271 z m -163.464,-79.997 c -3.9581,-2.5218 -7.5544,-7.279 -8.667,-11.4644 -0.5231,-1.9676 -0.9534,-10.7825 -0.9562,-19.5881 -0.01,-22.6489 -2.1393,-42.1042 -11.159,-101.8312 -5.7642,-38.166 -21.9517,-127.1303 -26.6805,-146.6192 -6.6133,-27.2672 -14.3079,-52.7 -23.1597,-76.5475 -3.0438,-8.2006 -5.5635,-16.4252 -5.5992,-18.2769 -0.2386,-12.3716 13.2123,-20.3951 36.6049,-21.8351 l 9.2726,-0.5709 -2.3018,2.0325 c -2.7899,2.4633 -2.7198,2.4679 9.2752,0.6076 12.6296,-1.9587 19.4539,-3.6366 31.6966,-7.7931 11.2963,-3.835 20.7659,-4.6967 26.0453,-2.3699 3.8199,1.6836 7.169,7.6469 7.8944,14.0568 0.2992,2.6454 0.6129,11.3029 0.6968,19.2389 0.3328,31.4574 3.5918,58.4755 13.285,110.1424 3.8217,20.3691 10.0672,53.7004 13.8798,74.0695 18.4788,98.7338 21.4849,112.7396 28.0009,130.4682 7.1434,19.4293 8.2149,22.9529 8.2343,27.0835 0.038,7.9663 -3.9413,13.6432 -12.4103,17.7065 -4.167,1.9991 -5.7822,2.1892 -17.0333,2.0051 -17.791,-0.2912 -24.9873,0.8166 -42.8133,6.5907 -6.1743,2 -21.9748,4.6774 -27.6215,4.6806 -2.0256,0 -4.9435,-0.8011 -6.4842,-1.7827 z M 285.68629,1485.7062 c -1.26598,-0.2265 -8.51662,-2.0822 -16.11253,-4.1237 -17.37392,-4.6693 -26.48439,-5.9302 -45.57545,-6.3076 -29.08174,-0.5748 -35.44112,-3.1038 -41.93585,-16.6772 -2.22952,-4.6593 -2.43613,-5.9566 -2.06821,-12.9862 0.36902,-7.0506 1.00082,-9.2275 6.49943,-22.3931 3.34984,-8.0209 7.14908,-18.2086 8.4426,-22.6402 2.29138,-7.8487 7.97901,-32.9802 9.20992,-40.694 0.53044,-3.3248 7.59978,-41.5694 17.15846,-92.8275 1.52931,-8.2005 4.59263,-22.7018 6.80741,-32.225 2.21478,-9.5233 5.12369,-22.9424 6.46426,-29.8202 1.34047,-6.8779 4.23124,-20.0806 6.42392,-29.3393 2.19269,-9.2587 5.72641,-24.8421 7.85279,-34.6299 2.1264,-9.7878 5.87979,-25.1548 8.34086,-34.1489 5.29836,-19.363 10.51734,-39.9524 19.75121,-77.9174 3.73156,-15.3429 8.85388,-36.33733 11.3828,-46.65416 5.07693,-20.71061 6.21042,-28.25705 7.42393,-49.42363 0.7885,-13.75385 0.95312,-14.59362 4.21218,-21.48305 3.84547,-8.12918 8.11243,-11.74147 16.293,-13.79137 9.22464,-2.31202 24.05462,0.72847 34.88317,7.15185 4.18326,2.48152 24.77646,11.30571 24.77646,10.61696 0,-0.19658 -1.32629,-1.07401 -2.9473,-1.94976 -1.62102,-0.8758 -3.51511,-2.18554 -4.20896,-2.91055 -1.06841,-1.11624 -0.78523,-1.31815 1.84897,-1.31815 6.24256,0 22.82548,3.82978 31.18098,7.201 13.10639,5.28838 18.84061,10.67179 21.61104,20.28929 2.79603,9.70599 0.73843,17.42654 -9.72183,36.47877 -18.16758,33.0889 -28.60941,61.1208 -44.07284,118.3189 -5.74978,21.2676 -18.05248,73.4597 -23.12839,98.1181 -2.06931,10.0523 -4.97555,24.1207 -6.45845,31.2631 -8.00269,38.546 -12.78599,65.1764 -17.9687,100.042 -1.84824,12.4331 -3.91369,25.4193 -4.58995,28.8583 -1.08084,5.4962 -2.20024,15.3564 -3.68572,32.4655 -0.24117,2.7776 -0.13412,5.0443 0.2379,5.0372 0.37201,-0.01 2.50702,-5.3098 4.74436,-11.7838 7.24134,-20.953 23.36317,-55.2607 38.62864,-82.2018 10.30097,-18.1797 13.35131,-23.3261 20.39939,-34.4211 4.36953,-6.8779 11.13882,-17.366 15.04358,-23.306 7.76863,-11.8203 10.65821,-17.6535 10.6895,-21.5792 0.0111,-1.4078 -1.84833,-6.6023 -4.13216,-11.5433 -7.29898,-15.7913 -12.37258,-42.1851 -11.12869,-57.8955 1.43391,-18.1143 7.31748,-44.4186 13.26567,-59.3066 9.42905,-23.6013 27.74025,-56.6372 43.66036,-78.7677 9.69238,-13.47392 14.86128,-19.66305 14.1514,-16.94556 -6.36077,24.35256 -8.30771,37.55706 -10.70792,72.62666 -3.66225,53.5003 -6.66636,72.0677 -15.79765,97.6371 -4.79684,13.4326 -10.12604,24.6276 -19.23376,40.4016 -3.97096,6.8779 -7.46746,13.8038 -7.77002,15.3911 l -0.55002,2.8858 1.66336,-2.2239 c 9.95386,-13.3085 12.8486,-16.9793 17.97146,-22.7865 9.47877,-10.7459 14.25177,-18.2038 14.96256,-23.38 2.12123,-15.4373 9.5644,-35.3822 19.48143,-52.2037 7.92451,-13.4412 25.90619,-34.3048 39.47755,-45.8048 8.92294,-7.5605 29.47488,-21.8851 43.27365,-30.1617 13.90097,-8.3374 46.27979,-24.7286 60.76727,-30.761 17.58199,-7.3214 44.65472,-17.13599 44.65472,-16.18848 0,0.4515 -0.39195,0.82091 -0.87102,0.82091 -2.59006,0 -30.31458,27.93187 -37.40778,37.68697 -4.47293,6.152 -16.02321,21.0675 -17.0001,21.9535 -0.29176,0.2645 -3.38391,4.1604 -6.8713,8.6574 -28.57167,36.8424 -48.9729,58.033 -75.43887,78.357 -13.87704,10.6564 -35.36287,23.201 -50.45065,29.4566 -10.54495,4.372 -16.93565,8.5026 -22.41758,14.4916 -6.49115,7.0909 -19.72175,25.3732 -19.72175,27.2518 0,0.7043 4.04784,-2.8978 8.99512,-8.0046 10.23928,-10.5698 19.30005,-16.8215 35.78732,-24.693 31.30803,-14.9476 61.31416,-18.1855 117.2624,-12.6525 14.43222,1.4273 29.27325,3.0217 32.97913,3.5433 3.70643,0.5216 12.20041,1.2286 18.87468,1.5711 6.67427,0.3426 12.86977,0.8969 13.76747,1.2321 1.1508,0.4296 -0.88482,1.7101 -6.90538,4.3439 -4.69547,2.054 -12.68009,5.889 -17.74403,8.522 -5.06395,2.6331 -15.83632,7.7137 -23.93862,11.2904 -8.1023,3.5766 -17.21464,7.6696 -20.24931,9.0956 -18.38486,8.6379 -57.45084,19.7246 -69.50394,19.7246 -2.92088,0 -6.70908,0.3064 -8.41811,0.6808 l -3.10742,0.6809 2.76215,0.7152 c 5.42017,1.4032 -32.39815,0 -42.73319,-1.5828 -9.94833,-1.5261 -24.87039,-6.1168 -30.9241,-9.5136 -1.51917,-0.8525 -4.08448,-1.5526 -5.7007,-1.5559 -3.34763,-0.01 -5.63819,2.7679 -18.08562,21.9083 -7.59702,11.6818 -8.91825,15.1717 -4.52542,11.955 5.06339,-3.7076 18.44378,-6.9126 28.92154,-6.9272 10.42618,-0.014 30.91212,5.5915 42.20378,11.5501 13.47007,7.1071 34.76716,26.0032 46.08,40.8835 5.33002,7.0112 10.43908,14.8957 9.65279,14.8957 -0.25146,0 -3.15078,-1.7225 -6.44289,-3.8277 -9.33331,-5.9682 -18.26057,-10.415 -26.99817,-13.446 -9.22281,-3.1997 -14.24532,-4.2099 -31.49953,-6.3352 -27.80287,-3.4247 -46.58731,-11.6366 -63.23387,-27.6424 l -3.84803,-3.6999 -3.44662,5.5911 c -20.25575,32.858 -45.0847,83.8371 -56.35519,115.712 -7.15534,20.2345 -15.79119,48.0135 -16.86475,54.2517 -0.89298,5.1857 -0.90185,8.6075 -0.0412,15.872 1.56596,13.2171 1.37205,17.2274 -1.09906,22.7278 -3.82871,8.5233 -9.59662,12.9237 -19.42619,14.8226 -2.98873,0.5771 -5.4615,0.9905 -5.4951,0.9184 -0.0336,-0.072 -1.09685,-0.3162 -2.36284,-0.5428 z m 186.22405,-28.1589 c -3.93626,-0.9766 -9.09015,-5.1662 -10.93075,-8.8856 -1.82661,-3.6904 -1.2646,-9.1627 2.02106,-19.6784 7.23941,-23.1703 8.6713,-38.1526 10.0975,-105.6502 0.33531,-15.872 0.66864,-28.9159 0.74071,-28.9852 0.0721,-0.07 4.27424,1.2501 9.3379,2.9339 8.77756,2.9186 23.8309,10.186 28.92246,13.9626 1.31,0.9719 4.41934,2.9534 6.90952,4.4035 2.49017,1.45 7.45199,4.7208 11.02648,7.2684 3.57432,2.5475 6.66581,4.4575 6.86993,4.2441 0.83756,-0.875 -6.66129,-15.5777 -12.87069,-25.2346 -8.09549,-12.5909 -24.46895,-29.9453 -38.79345,-41.1182 l -9.8664,-7.6956 0.43641,-17.3149 10.12787,0.3101 c 5.88237,0.1801 14.17996,-0.3029 19.7954,-1.1523 15.98455,-2.418 49.7426,-11.9021 61.92829,-17.3987 1.52736,-0.6888 1.58067,0.2359 0.92072,15.9692 -0.38529,9.1852 -0.69888,49.3823 -0.69687,89.327 0.004,70.2506 0.0701,73.0614 2.03727,85.9206 1.11848,7.3118 3.14222,17.3044 4.49724,22.2055 3.01754,10.9152 2.62108,16.2347 -1.58244,21.2368 -3.96727,4.7208 -7.61174,5.6599 -19.12788,4.9289 -26.11335,-1.6574 -40.29422,-1.7085 -53.23027,-0.1918 -13.80338,1.6185 -23.6265,1.8239 -28.56983,0.5975 z m 1474.52676,-93.2892 c -4.2049,-1.381 -7.6855,-4.5552 -9.4317,-8.6018 -1.6216,-3.757 -1.6115,-4.3185 0.3772,-20.8818 3.782,-31.5017 2.5004,-55.4945 -7.8052,-146.119 -2.2644,-19.9122 -9.732,-66.2577 -12.03,-74.6573 -0.3301,-1.2065 0.4926,-1.6808 3.7153,-2.1423 5.0838,-0.7281 29.2455,-9.8339 37.1269,-13.9924 3.1768,-1.6762 11.2557,-6.7186 17.954,-11.2057 l 12.1784,-8.1578 1.5361,9.3855 c 0.8449,5.162 2.4391,16.0952 3.5427,24.2957 4.6867,34.8262 13.7131,92.411 23.0703,147.1772 2.7588,16.1472 7.6527,35.8381 13.3321,53.6408 l 4.9902,15.6441 -1.5491,4.0753 c -5.1663,13.5913 -9.0402,16.4233 -26.5083,19.3783 -7.3504,1.2434 -27.593,6.3184 -41.8927,10.5025 -6.5206,1.908 -15.4238,2.6999 -18.6067,1.6547 z M 968.45251,1308.35 c -15.10619,-2.3932 -18.7826,-12.4494 -13.56858,-37.1107 4.94553,-23.3897 6.35699,-35.3274 7.94439,-67.1888 0.26361,-5.2907 0.73685,-14.1646 1.05156,-19.7198 0.58327,-10.2938 0.53299,-105.0634 -0.0599,-112.0663 -0.17898,-2.1163 -0.42813,-23.3271 -0.55353,-47.1352 -0.12541,-23.808 -0.53705,-51.0791 -0.91473,-60.60233 -0.37778,-9.52322 -0.96464,-27.48749 -1.30429,-39.9206 -1.58842,-58.15421 -5.39245,-94.53679 -13.07141,-125.01401 -4.90954,-19.48702 -3.80512,-24.85851 6.18317,-30.07127 4.93724,-2.57647 5.21484,-2.60879 16.53053,-1.92494 23.88338,1.44349 52.41088,-0.66436 64.36538,-4.75565 9.9309,-3.39893 20.8662,-2.81349 26.1428,1.39962 7.5056,5.99319 8.5804,13.88564 4.7441,34.83578 -2.1008,11.47212 -5.0318,32.69257 -6.3114,45.69225 -0.2863,2.90988 -0.7681,26.93438 -1.0705,53.38779 -0.3023,26.45341 -0.6528,48.52422 -0.7786,49.04559 -0.1258,0.52137 -3.7145,-5.53454 -7.9749,-13.45853 -7.0965,-13.19978 -7.7888,-14.16653 -8.2577,-11.52984 -1.6831,9.4632 -1.7666,73.79154 -0.1136,87.52804 3.4496,28.6659 8.5281,56.0688 14.4405,77.9174 2.0827,7.6964 2.438,11.4298 3.2008,33.6304 1.5092,43.9271 4.1458,79.3891 7.834,105.3712 2.7601,19.4437 7.0187,42.3254 7.8771,42.3254 0.3488,0 0.886,-1.3163 1.194,-2.9252 0.8001,-4.1798 10.0137,-28.9593 16.4385,-44.2099 5.7176,-13.5721 23.3078,-50.7964 24.7506,-52.3778 2.3434,-2.5674 -0.8135,-7.3254 -9.2402,-13.927 -22.2896,-17.4602 -36.5277,-42.4457 -47.4566,-83.2773 -6.0263,-22.5152 -9.2707,-43.0161 -11.9491,-75.51242 -1.5055,-18.26536 -2.3026,-55.79361 -1.1848,-55.79265 0.3798,2.6e-4 0.6905,0.56192 0.6905,1.24812 0,1.49938 23.7637,46.44931 29.5983,55.98793 10.4473,17.07732 22.3338,40.63152 28.6417,56.75462 13.3181,34.0431 16.0885,55.4377 13.0042,100.4267 -0.724,10.5583 -0.01,10.8373 4.4045,1.7095 1.5788,-3.2681 3.7911,-7.2407 4.9161,-8.8279 5.0735,-7.1576 5.27,-13.4845 1.0215,-32.8869 -5.9398,-27.1258 -6.4748,-31.2535 -6.397,-49.3592 0.09,-20.7212 1.9131,-31.6902 10.3535,-62.2598 4.0434,-14.64459 23.237,-57.71266 37.8433,-84.91639 7.7854,-14.50032 16.9218,-30.53589 18.0423,-31.66618 0.5154,-0.52013 -0.2334,18.33751 -1.0283,25.89453 -0.1948,1.85174 -0.5931,11.5914 -0.8852,21.6437 -0.9909,34.10469 -1.9758,48.89937 -4.643,69.74084 -3.1994,24.9999 -6.2471,39.9639 -11.951,58.6784 -4.6653,15.3065 -4.684,15.4392 -1.473,10.4621 14.9672,-23.202 56.5062,-59.0834 96.574,-83.42441 6.2278,-3.78313 11.4924,-6.87828 11.6986,-6.87828 0.2062,0 2.5688,-1.35393 5.2496,-3.00885 6.1865,-3.81882 36.2376,-20.07766 37.1094,-20.07766 0.3597,0 -0.1943,0.75753 -1.2314,1.6834 -2.275,2.03075 -21.8698,30.57148 -36.6676,53.4099 -13.843,21.3628 -15.9228,24.3044 -29.4011,41.5819 -16.4772,21.1214 -32.2298,36.7154 -49.3707,48.8772 -12.566,8.9148 -19.442,12.2282 -52.5803,25.3347 -3.4511,1.365 -7.3098,3.6229 -8.5748,5.0176 -4.1713,4.5989 -9.7882,15.3834 -17.3169,33.2476 -3.8254,9.0772 -1.793,9.0168 7.0827,-0.2106 12.5374,-13.0343 19.3285,-17.693 34.1162,-23.404 25.1521,-9.7137 55.1509,-13.3297 94.9442,-11.4442 22.6947,1.0751 49.0972,3.3587 54.8434,4.7434 2.7814,0.6702 2.9704,0.8812 1.381,1.542 -1.0127,0.4209 -5.7774,2.387 -10.5882,4.3689 -6.878,2.8336 -28.173,12.7506 -47.4169,22.0804 -9.9952,4.8467 -29.6525,11.8877 -42.8132,15.3353 -25.1043,6.577 -29.6544,7.2623 -47.8773,7.2107 -17.7293,-0.05 -25.4412,-1.2878 -39.5051,-6.3402 -4.7654,-1.7119 -5.0972,-1.7161 -7.749,-0.098 -4.6097,2.8127 -12.5862,20.6548 -24.8326,55.5473 -7.783,22.1747 -10.847,31.9442 -14.4369,46.0318 -3.2658,12.816 -7.9113,19.8151 -14.4028,21.6976 -4.8561,1.4087 -6.5451,1.3298 -18.7669,-0.8761 -11.5274,-2.0806 -28.6785,-2.4564 -42.353,-0.9282 -4.3043,0.4811 -12.17642,1.1961 -17.49356,1.589 -7.17043,0.53 -8.83518,0.8768 -6.445,1.3431 l 3.2225,0.6286 -3.3376,0.1267 c -1.83572,0.069 -4.52881,0.3052 -5.98465,0.5236 -1.45593,0.2184 -5.10427,0.01 -8.10745,-0.4681 z m 171.87009,-175.237 c 0.7708,-1.2291 2.7566,-5.6836 4.413,-9.8993 1.6564,-4.2154 3.3392,-8.1114 3.7397,-8.6578 1.1202,-1.5286 2.9067,-6.8308 1.9339,-5.7402 -5.6539,6.3388 -14.8153,23.0818 -14.888,27.2085 -0.032,1.7713 3.0283,-0.084 4.8016,-2.9117 z m 605.0578,115.587 c -1.5696,-0.4759 -4.2626,-2.3667 -5.9846,-4.202 -2.8772,-3.0661 -3.174,-3.9445 -3.6593,-10.8314 -0.2905,-4.1223 -0.1425,-11.3914 0.329,-16.153 2.2015,-22.2401 -1.7245,-107.8625 -6.6605,-145.2532 -1.858,-14.0752 -4.3342,-22.4979 -12.0199,-40.8826 -9.0694,-21.6947 -29.9878,-57.85215 -47.9868,-82.94634 -12.0734,-16.83206 -14.5611,-20.06034 -29.8469,-38.73933 -18.9631,-23.17223 -39.8348,-44.17239 -68.8622,-69.28774 -17.9015,-15.48823 -44.3997,-35.83042 -45.3637,-34.82423 -0.22,0.22994 0.8358,4.36934 2.3463,9.19857 7.6306,24.39582 8.051,49.85843 1.2973,78.5599 -1.8748,7.96767 -5.2831,17.65741 -17.593,50.02099 -5.8362,15.34298 -12.0236,32.22507 -13.7491,37.51575 -3.3129,10.15426 -12.1902,45.27193 -12.3523,48.86763 -0.3174,7.0024 -8.546,-39.39346 -11.4823,-64.73968 -3.7854,-32.6791 -2.3206,-70.74892 3.6482,-94.81383 2.5836,-10.41783 8.8675,-26.68331 13.9507,-36.11227 6.6143,-12.26861 12.0218,-19.79773 19.9813,-27.82226 l 6.5818,-6.63538 -2.2509,-2.05268 c -1.2381,-1.12894 -3.9085,-2.9371 -5.934,-4.01804 -2.0256,-1.08093 -5.9617,-3.57813 -8.7467,-5.54925 -5.838,-4.13164 -22.2934,-12.88041 -25.9762,-13.8106 -2.3611,-0.59623 -2.882,-0.015 -9.5221,10.62465 -8.9047,14.26849 -15.2526,22.34303 -27.2303,34.63473 -25.6262,26.2995 -54.3968,43.14022 -101.6193,59.48362 -15.4745,5.35542 -29.1047,10.43322 -39.1304,14.57919 -12.3128,5.09099 -35.1742,17.80555 -46.5202,25.87336 -6.4552,4.58991 -11.4003,7.7497 -10.9887,7.0217 11.3552,-20.09401 50.3586,-65.95942 76.8687,-90.39275 23.5031,-21.66294 48.4297,-38.11599 76.8559,-50.72802 22.3348,-9.90993 39.0512,-14.99187 52.5647,-15.97978 4.005,-0.29277 10.1822,-0.78565 13.7269,-1.09527 8.2527,-0.7209 22.3061,2.17938 32.6541,6.73869 6.6228,2.91825 19.579,10.86514 37.7807,23.17223 3.2914,2.22564 6.9523,4.36414 8.1352,4.75219 1.9144,0.62799 2.0459,0.50076 1.1959,-1.15838 -0.5251,-1.02514 -3.3574,-3.74647 -6.2938,-6.04744 -26.361,-20.65578 -40.6901,-38.97212 -59.4635,-76.01171 -7.436,-14.67058 -13.2658,-30.9476 -17.7248,-49.48808 -7.4885,-31.13806 -10.0487,-47.1746 -15.4725,-96.91567 -0.1587,-1.45494 0.054,-2.64534 0.4727,-2.64534 0.4186,0 0.7612,0.45075 0.7612,1.00167 0,2.33675 15.9395,28.39076 24.6927,40.36213 11.346,15.51709 13.0669,17.75938 27.3683,35.66016 13.7307,17.18606 18.1114,23.19627 24.4873,33.59968 12.2953,20.05938 21.1416,42.36586 25.2728,63.7229 2.8714,14.84565 2.422,41.19132 -0.9786,57.36638 -0.5447,2.5909 -0.1277,3.15498 5.5227,7.47083 20.8653,15.93746 43.6779,35.16283 54.5304,45.95583 4.6841,4.65887 8.5166,8.19642 8.5166,7.86128 0,-0.33514 -1.0352,-3.2709 -2.3003,-6.5239 -1.2651,-3.2529 -2.1256,-6.09688 -1.9122,-6.31996 1.2102,-1.26437 21.0853,21.53019 44.1925,50.68474 4.0124,5.06222 9.2294,11.58467 11.5938,14.49454 4.5559,5.60765 18.8369,25.29812 25.7661,35.52741 2.2788,3.36382 5.4024,7.89274 6.9414,10.06481 5.0225,7.0872 16.515,23.79075 17.4577,25.37411 0.5063,0.85029 3.5561,5.68421 6.7771,10.74201 l 5.8563,9.19595 -0.5658,-6.94145 c -0.3111,-3.81785 -0.9759,-15.50555 -1.4772,-25.97244 -0.5014,-10.46689 -1.1144,-20.54612 -1.3621,-22.39786 -0.2478,-1.85174 -0.8929,-10.50922 -1.4337,-19.23885 -1.2412,-20.04206 -5.1983,-65.66794 -6.4655,-74.55052 -0.5282,-3.70347 -1.7669,-13.2267 -2.7525,-21.16272 -6.8431,-55.10582 -13.1239,-85.48011 -23.5141,-113.71119 -6.3795,-17.33709 -6.4262,-21.02998 -0.3675,-29.03815 5.0372,-6.65808 9.9373,-8.79408 33.131,-14.44164 15.9202,-3.87682 21.7768,-4.79163 37.4741,-5.85399 20.5521,-1.39088 36.7034,-1.22994 39.681,0.39529 6.5319,3.56524 9.6564,10.29182 9.6132,20.6933 -0.033,7.81684 -2.6184,15.34971 -8.0618,23.48774 -20.9674,31.34777 -36.7228,66.00751 -48.1701,105.96755 -6.9397,24.22459 -12.1883,60.74665 -12.0263,83.68897 0.054,7.53538 0.082,7.62974 1.3768,4.53316 2.8648,-6.84913 24.8023,-40.01103 36.4273,-55.06446 6.7535,-8.74559 16.0084,-20.73947 20.566,-26.6535 4.5575,-5.91402 8.5254,-10.77086 8.8177,-10.79299 0.2921,-0.022 1.0337,7.42706 1.6477,16.5531 0.6142,9.12605 1.2951,18.97431 1.5133,21.88419 0.2181,2.90987 1.2439,16.97828 2.2796,31.26312 2.9284,40.39484 4.4639,59.08441 6.4801,78.87926 1.0238,10.0523 2.8698,30.39737 4.1021,45.21128 5.1814,62.2848 9.7283,98.5991 12.345,98.5991 0.4107,0 1.5339,-2.0505 2.4965,-4.5567 3.0236,-7.8727 5.762,-12.7149 11.7612,-20.7952 6.6619,-8.9736 14.3486,-20.7462 16.6769,-25.5435 0.8756,-1.8033 2.3981,-6.3485 3.3834,-10.1003 2.0383,-7.7609 9.8655,-25.3635 15.0261,-33.7921 8.128,-13.2748 20.7336,-27.80396 36.5552,-42.13017 l 6.1534,-5.57224 -1.2923,-3.8268 c -0.7108,-2.10473 -3.1378,-7.37992 -5.3935,-11.72223 -7.1199,-13.70767 -16.4025,-39.73013 -22.5464,-63.20729 -6.1767,-23.60126 -11.9841,-61.19877 -12.1094,-78.39829 l -0.063,-8.65748 -2.1179,5.77165 c -1.1649,3.17441 -4.6927,12.26476 -7.8397,20.20079 l -5.722,14.42913 -2.1966,22.60564 c -1.2082,12.4331 -3.4596,34.29324 -5.0032,48.57808 -1.5436,14.28484 -3.0595,30.30118 -3.3686,35.59186 l -0.5623,9.61943 -7.2793,12.64857 c -7.7888,13.53453 -13.3191,25.20289 -17.4678,36.86065 -2.4913,6.9989 -2.5806,7.1143 -2.6256,3.3974 -0.026,-2.1163 -0.6536,-9.908 -1.3954,-17.31496 -0.7419,-7.40695 -2.1811,-26.02053 -3.1984,-41.36351 -2.6216,-39.53967 -3.7518,-56.03602 -4.2179,-61.5643 -0.8334,-9.8878 -3.2459,-39.84172 -4.106,-50.98294 -0.4901,-6.34882 -1.0753,-17.2784 -1.3004,-24.28808 l -0.4094,-12.74477 6.1414,-7.84194 c 10.7227,-13.69133 17.8315,-23.355 18.8249,-25.58767 1.8825,-4.23283 2.1847,-2.06557 0.6258,4.48833 -5.6224,23.63781 -8.4121,92.46958 -5.1495,127.05333 0.8234,8.72962 1.6031,17.3871 1.7327,19.23884 0.2041,2.91671 0.5868,2.20929 2.8628,-5.29068 2.8464,-9.3798 9.9234,-27.97713 16.4735,-43.2874 4.7388,-11.07677 8.9868,-22.091 8.9679,-23.25111 -0.022,-1.39914 -7.4049,13.28635 -11.6875,23.25111 -2.2741,5.29068 -5.1764,11.93001 -6.4497,14.75331 -1.2732,2.8233 -3.6859,9.24715 -5.3616,14.27426 -1.6755,5.0274 -3.1822,9.28139 -3.348,9.4532 -1.2028,1.24715 -1.1466,-65.7401 0.066,-78.88311 2.6562,-28.78324 6.4676,-55.04811 10.2826,-70.8634 0.9786,-4.05612 1.753,-8.38486 1.7208,-9.61942 l -0.057,-2.2446 -0.8996,2.3532 c -1.1248,2.94287 -5.97,9.25831 -13.3236,17.36691 -3.1188,3.43894 -8.4032,9.49918 -11.7429,13.46719 -3.3398,3.96801 -10.2899,12.19262 -15.444,18.2769 -10.9437,12.91888 -24.48,29.77884 -29.2457,36.42587 -1.8398,2.56626 -7.5104,10.46304 -12.6009,17.54774 -12.4444,17.31881 -18.8756,27.0402 -22.8126,34.48275 l -3.2849,6.20991 0.4907,-5.72894 c 2.3942,-27.95116 16.5931,-79.19478 31.1736,-112.50876 18.6941,-42.70831 39.2501,-72.7565 64.4566,-94.22224 16.338,-13.91353 25.5866,-18.55106 43.0875,-21.60907 4.4036,-0.76925 4.4166,-0.76359 3.9762,1.73727 -0.243,1.38 -0.9023,5.53915 -1.4651,9.24263 -0.5628,3.70347 -1.2148,7.98931 -1.4489,9.52399 l -0.4255,2.79041 2.997,-3.04657 c 2.9688,-3.01781 16.6576,-13.41236 18.7882,-14.26657 0.838,-0.33595 1.1303,4.49083 1.2051,19.89778 l 0.099,20.34123 4.6945,8.62622 c 2.582,4.74439 4.8625,8.45066 5.0679,8.23605 0.2055,-0.21461 -0.8561,-4.25679 -2.3588,-8.98262 -2.0707,-6.51138 -5.6239,-25.08456 -5.6239,-29.39695 0,-0.45405 5.2173,0.35445 14.377,2.22786 13.5373,2.76885 38.8865,20.83663 51.8419,36.95012 9.2421,11.49521 18.672,25.15287 26.6601,38.61332 2.7517,4.63608 17.6079,35.25037 17.6079,36.28446 0,0.57369 16.0269,38.96539 18.5054,44.32918 1.2344,2.67141 1.7504,5.88065 1.7504,10.88727 v 7.09942 l -2.9923,-2.22584 c -1.6457,-1.22426 -8.0161,-6.55641 -14.156,-11.8492 -6.1402,-5.2929 -14.841,-12.65339 -19.3351,-16.35687 -29.4896,-24.30155 -58.1496,-56.87868 -72.2338,-82.10754 -4.8584,-8.7024 -7.2059,-11.37977 -3.7877,-4.32018 2.8397,5.86458 8.0788,24.84793 11.6627,42.25909 4.8746,23.67917 6.283,38.94326 6.3832,69.17903 0.1194,36.01512 -2.209,61.2257 -8.605,93.16122 -1.0434,5.20959 -1.8971,10.37166 -1.8971,11.4702 v 1.99853 l 2.0716,-1.99382 c 9.6032,-9.24253 53.5443,-33.92482 82.685,-46.44642 14.7949,-6.35709 14.5749,-6.27754 12.1368,-4.37703 -1.1455,0.89321 -5.6137,6.4656 -9.929,12.38309 -4.3156,5.91748 -10.9454,14.87162 -14.7332,19.89777 -3.7877,5.02615 -11.7327,15.848 -17.6557,24.04855 -15.3392,21.23776 -22.041,29.0901 -38.4768,45.08527 -14.3116,13.927 -36.4428,30.1117 -51.0859,37.3599 -25.7238,12.7332 -25.3555,12.5129 -30.135,17.9768 -6.8524,7.8332 -21.4462,33.9171 -26.4355,47.2496 -4.7874,12.7919 -4.9973,15.2824 -2.8216,33.5044 2.1496,18.0047 3.9759,26.7382 8.4394,40.3574 8.4498,25.7819 8.7717,26.9873 8.3327,31.2025 -0.535,5.1382 -2.4647,8.2271 -7.1734,11.4827 l -3.713,2.5672 -20.4334,0.2015 c -22.1663,0.2186 -20.6719,-0.035 -44.0259,7.468 -10.9814,3.5279 -24.9054,6.4901 -29.8091,6.3415 -1.5192,-0.046 -4.0462,-0.473 -5.6158,-0.9488 z M 497.0735,1160.3216 c 1.97429,-1.5634 6.64361,-5.1346 10.37647,-7.9361 18.5736,-13.9395 56.28245,-48.1134 56.28245,-51.006 0,-0.5843 0.23466,-0.8171 0.52147,-0.5174 0.64059,0.6692 3.68029,33.5237 4.56915,49.3851 l 0.65072,11.6126 -10.00633,-1.2465 c -18.68961,-2.3281 -54.87745,-1.4334 -62.36746,1.542 -3.90808,1.5524 -3.91241,1.2445 -0.0259,-1.8331 z m 1369.9334,-50.1057 c -5.1588,-0.9192 -18.2366,-3.9815 -18.742,-4.3887 -0.1805,-0.1452 1.3612,-2.7801 3.4257,-5.8551 6.4704,-9.6368 20.2881,-21.2108 32.4019,-27.1383 17.9559,-8.7869 36.7274,-11.9291 80.9705,-13.5538 21.9804,-0.8071 37.2863,-2.3497 43.3879,-4.373 0.9502,-0.315 1.7277,-0.3972 1.7277,-0.1824 0,0.9899 -16.0895,13.4605 -23.9626,18.5732 -11.566,7.5106 -38.6249,21.5119 -50.0556,25.9003 -23.2186,8.9145 -53.7017,13.7712 -69.1532,11.0181 z m -27.9344,-16.7936 c -3.9604,-15.2939 -5.7997,-43.0228 -3.9442,-59.4605 1.8246,-16.1645 10.2862,-39.45023 19.4979,-53.65907 10.8396,-16.71952 30.2281,-40.44871 39.1535,-47.92204 3.2523,-2.72278 5.913,-4.52584 5.913,-4.00687 0,0.51896 -1.4189,4.31931 -3.153,8.44517 -4.9475,11.77033 -9.2791,28.00118 -14.3716,53.8553 -9.5994,48.73011 -18.5413,73.01721 -35.7256,97.02151 -2.3622,3.3002 -4.7626,6.8035 -5.3342,7.7851 -0.9232,1.5851 -1.1509,1.3543 -2.0357,-2.0632 z M 481.20036,1076.3911 c 0.28973,-3.3304 0.78979,-14.9293 1.1113,-25.7752 0.32147,-10.8459 0.88992,-27.728 1.26322,-37.5158 0.37331,-9.7877 0.75635,-30.34923 0.8512,-45.69221 0.0948,-15.34298 0.34113,-39.15105 0.54729,-52.90682 0.39005,-26.02438 -0.36336,-41.09513 -2.78913,-55.79265 -0.78588,-4.76161 -1.65876,-12.76978 -1.93975,-17.79593 -0.46821,-8.37467 -0.34385,-9.35777 1.48787,-11.76263 4.39807,-5.77338 19.80552,-7.10625 41.94875,-3.62883 14.15509,2.22295 23.5648,2.36542 31.7647,0.48097 3.29156,-0.75643 8.68419,-1.39058 11.98404,-1.40915 8.4066,-0.0473 11.6176,1.93899 15.40727,9.53112 3.66223,7.33625 3.98163,13.49605 1.01472,19.57168 -5.42338,11.10658 -10.2623,31.86722 -11.36993,48.78008 -0.32909,5.02615 -1.3725,19.31099 -2.31873,31.7441 -0.94622,12.4331 -1.96204,28.01656 -2.25741,34.62992 -0.61854,13.851 -1.42683,26.40819 -1.91058,29.68072 -0.18414,1.24581 -0.40581,6.57133 -0.4926,11.83473 -0.10794,6.5441 -0.54928,9.9783 -1.396,10.8633 -0.68103,0.7115 -6.74083,4.3029 -13.46639,7.9809 -23.9819,13.1151 -48.84768,31.2295 -62.73391,45.7 l -7.2326,7.5368 z m 1428.58304,-21.1242 c 12.0678,-7.6767 28.5534,-19.6179 36.3683,-26.3428 9.0966,-7.8277 27.2551,-26.6102 32.0401,-33.13988 l 2.4668,-3.36679 0.01,6.35343 c 0.02,12.36094 2.8389,41.41454 5.0856,52.41434 0.408,1.9972 0.1931,2.0178 -27.4216,2.6323 -16.1605,0.3596 -32.0806,1.2266 -37.9613,2.0673 -13.7287,1.9628 -14.5684,1.9138 -10.5882,-0.6184 z m -569.4169,-69.34162 c 0.3457,-1.19041 2.8164,-7.5753 5.4906,-14.18865 2.674,-6.61335 6.3174,-15.70371 8.0962,-20.20079 5.1444,-13.00642 18.2061,-40.89504 24.5526,-52.42585 5.4727,-9.94263 18.0609,-30.22999 24.771,-39.9206 8.4662,-12.22821 29.9637,-33.49963 43.4965,-43.03729 17.7919,-12.54084 36.3314,-20.34796 50.0713,-21.08577 8.2648,-0.44385 8.2797,-0.44047 5.7255,1.29766 -2.612,1.77738 -3.7761,3.93963 -8.9654,16.65314 -6.5115,15.95285 -18.7218,37.71391 -28.6609,51.08105 -9.1974,12.36962 -24.3916,28.17337 -41.296,42.95265 -17.0047,14.86681 -27.9077,24.16399 -33.4505,28.52158 -13.9728,10.98731 -26.0931,23.32614 -40.9553,41.69539 -4.8157,5.95202 -8.9241,10.82185 -9.1298,10.82185 -0.2058,0 -0.091,-0.97397 0.2542,-2.16437 z M 411.36404,914.20287 c -4.05115,-1.45484 -9.66016,-4.01842 -12.46558,-5.69691 -7.74865,-4.63704 -29.52552,-12.40425 -41.39631,-14.76582 -22.04195,-4.38434 -28.3065,-6.24156 -32.61361,-9.66944 -4.73855,-3.77072 -8.44794,-9.31756 -9.87836,-14.77158 -0.80767,-3.07947 -0.60909,-6.9586 0.98535,-19.2475 4.285,-33.02733 4.60394,-39.26167 4.23189,-82.72703 -0.19473,-22.74994 -0.55815,-42.66214 -0.80759,-44.24934 -0.24944,-1.58721 -0.68945,-6.56526 -0.9778,-11.06234 -0.97936,-15.27372 -4.56527,-49.05905 -5.20701,-49.05905 -0.35131,0 -0.91891,1.95207 -1.26138,4.33788 -0.34248,2.38581 -2.32371,7.90495 -4.40277,12.26476 -7.08906,14.86585 -19.56062,25.70694 -41.80604,36.34218 -27.66568,13.2267 -47.99049,25.5511 -62.94291,38.1689 -8.52565,7.19446 -22.83192,22.546 -29.38742,31.53439 -4.88827,6.70252 -4.90806,6.71676 -4.28483,3.08023 2.64577,-15.43821 13.10271,-41.22884 24.54169,-60.52732 9.8047,-16.54156 26.51662,-36.65096 39.97381,-48.09904 9.6178,-8.18189 31.64225,-20.60095 41.43223,-23.36269 8.17917,-2.30741 25.35651,-2.9016 32.45524,-1.12268 3.16496,0.79317 5.77095,1.15587 5.79112,0.80598 0.0201,-0.34987 -1.11923,-9.34988 -2.53198,-19.99974 l -2.56861,-19.36389 -18.87468,-0.47942 c -19.09565,-0.48504 -24.08685,-1.19147 -45.11508,-6.38557 -18.79827,-4.64339 -41.19469,-14.96205 -80.56266,-37.11654 -11.76031,-6.61826 -10.58824,-4.4308 -10.58824,-19.76022 v -13.44506 h 6.02093 c 9.97228,0 33.15591,2.77232 49.68276,5.94095 19.29085,3.69877 36.13627,9.22464 48.22803,15.82107 19.00174,10.36589 38.45003,28.7005 47.7419,45.01023 l 2.23964,3.93079 -0.49169,-5.03134 c -0.27043,-2.76732 -2.23163,-11.98869 -4.3583,-20.4913 l -3.86665,-15.45937 -8.23884,-4.5194 c -23.38527,-12.82846 -32.65964,-20.05649 -53.25974,-41.50684 -10.34241,-10.76991 -14.11458,-15.54018 -21.71509,-27.46249 -9.82588,-15.41224 -20.90578,-34.88483 -26.54793,-46.65419 -6.20286,-12.94005 -24.96798,-45.98565 -32.31161,-56.90273 -2.63491,-3.91655 -3.12307,-5.47086 -3.12307,-9.94264 0,-2.91526 0.15373,-5.30059 0.34162,-5.30059 1.05413,0 20.17105,9.33488 30.04205,14.66962 32.96071,17.81325 55.93074,35.63707 74.7778,58.02435 11.3156,13.44122 16.28839,21.27143 23.78118,37.44841 8.95562,19.336 12.03836,30.40603 17.54332,63.00722 0.49137,2.90987 2.30437,9.83586 4.02878,15.39107 3.50258,11.28358 9.99805,35.639 11.30915,42.40722 0.47007,2.42573 0.81591,5.78051 0.76854,7.45515 -0.0928,3.28032 0.88011,4.10615 1.6036,1.36115 0.24403,-0.92587 0.21785,0.26453 -0.0581,2.64534 -0.27602,2.38081 -0.91866,4.88032 -1.42803,5.55445 -0.50942,0.67412 -0.66002,1.5038 -0.33466,1.84375 0.32535,0.33993 0.5979,0.005 0.60565,-0.74469 0.0116,-1.12211 0.17174,-1.10797 0.90663,0.0801 0.65454,1.05813 0.9231,0.28872 1.00735,-2.88583 0.17175,-6.47628 9.05699,58.04551 11.43805,83.0589 2.66843,28.03292 3.51465,74.59092 2.00468,110.29629 -0.63203,14.94377 -0.5878,15.64695 0.75644,12.02716 0.78525,-2.11473 5.14662,-11.55292 9.69146,-20.97322 9.17659,-19.01952 18.91611,-42.04361 21.88727,-51.74287 1.06821,-3.48676 4.27875,-12.5774 7.13461,-20.20079 2.85588,-7.62378 6.75531,-18.40676 8.66542,-23.96198 1.91012,-5.55522 5.35912,-15.29488 7.6646,-21.6437 2.30547,-6.34882 5.84608,-16.30492 7.86816,-22.12467 2.02207,-5.81975 8.40706,-23.13471 14.18916,-38.47769 5.78182,-15.34298 13.34025,-35.47162 16.79754,-44.73031 5.56729,-14.91203 21.92409,-54.2064 35.4356,-85.13188 3.48362,-7.97287 48.50885,-102.35065 52.77821,-110.62336 2.18302,-4.23254 6.40146,-12.24071 9.37381,-17.79593 2.97235,-5.55521 7.13251,-13.34695 9.24399,-17.31496 16.38414,-30.79273 160.53606,-74.35813 155.57341,-65.89304 -9.02837,15.39877 -14.58692,25.24714 -24.43213,43.2874 -2.88718,5.29068 -8.20423,14.69559 -11.81556,20.89916 -3.61132,6.20366 -6.56608,11.47212 -6.56608,11.7078 0,0.23567 -2.21368,4.46668 -4.91938,9.4024 -2.70572,4.93573 -7.73853,14.60132 -11.18394,21.47921 -3.44542,6.87789 -6.96835,13.58744 -7.8283,14.91011 -2.71639,4.17838 -37.7558,75.92225 -37.7558,77.30552 0,0.25986 -5.9041,12.97275 -13.12021,28.25128 -7.21611,15.27853 -14.96164,32.08366 -17.21187,37.34452 -2.25022,5.26125 -5.61747,13.02854 -7.48284,17.26109 -7.78457,17.66414 -9.41248,21.43015 -11.54946,26.72564 -1.23478,3.05946 -3.41595,8.25394 -4.84711,11.54331 -1.43117,3.28936 -4.07408,9.65982 -5.87316,14.1569 -1.79908,4.49708 -6.57594,16.40111 -10.61494,26.45341 -8.56578,21.3176 -18.05708,46.94085 -23.69647,63.96916 -2.19002,6.61335 -6.73964,20.24888 -10.11038,30.30117 -10.51365,31.35451 -26.98803,87.55214 -25.97617,88.60931 0.2217,0.23163 2.84354,-3.01203 5.82621,-7.20812 19.71713,-27.73857 67.97738,-76.70239 97.03426,-98.45479 3.29157,-2.46353 7.94846,-6.34497 10.34886,-8.62525 l 4.364,-4.14597 -2.85781,-12.50525 c -2.54504,-11.1364 -2.86149,-14.1367 -2.89123,-27.41535 -0.0361,-16.09522 0.70071,-21.7524 4.93255,-37.86878 4.89067,-18.62513 12.48307,-37.12039 22.66527,-55.21067 6.65309,-11.82035 26.47611,-42.74102 31.59897,-49.28896 1.86271,-2.38081 3.87622,-5.30271 4.47451,-6.49311 1.53225,-3.04887 2.61915,-2.68872 2.14177,0.70965 -0.22207,1.58067 -0.14111,3.58911 0.17987,4.46303 0.56656,1.54257 1.81133,-0.0878 14.7066,-19.26193 9.755,-14.50416 31.27028,-38.09002 53.50926,-58.65731 6.07672,-5.61986 11.29259,-11.19316 11.58997,-12.38404 0.29796,-1.19137 0.34646,-6.51245 0.10778,-11.82516 -0.49152,-10.94017 0.95101,-20.11421 5.51048,-35.04836 9.62149,-31.51419 36.95295,-64.73487 76.30251,-92.74566 15.2176,-10.83243 21.05034,-14.58978 27.7688,-17.88924 8.17772,-4.01601 10.18036,-4.18262 5.63856,-0.46907 -4.5755,3.74118 -13.27949,17.9787 -21.74363,35.56781 -20.43345,42.46013 -26.41166,53.12326 -41.52337,74.06955 -7.30331,10.12252 -20.5734,23.87925 -22.34854,23.16742 -0.74109,-0.29708 -1.12163,-0.15852 -0.84569,0.30791 0.4761,0.80489 -8.19078,8.56658 -15.1375,13.55666 -1.77237,1.27313 -3.42966,2.56319 -3.68286,2.86697 -0.25319,0.30378 -2.22122,1.9842 -4.3734,3.73445 -5.53368,4.50025 -5.22479,6.24233 0.69054,3.89404 2.53197,-1.00513 4.60358,-1.63925 4.60358,-1.40905 0,0.23019 -4.45396,4.86242 -9.8977,10.29374 -29.28337,29.21803 -42.5113,44.62835 -61.12082,71.20392 -9.56071,13.65381 -22.89452,38.50174 -22.89452,42.66502 0,1.25053 -0.33565,2.49038 -0.74589,2.7553 -0.41023,0.26489 -0.84228,2.56299 -0.96012,5.10695 -0.52345,11.30378 -6.03972,50.08833 -8.86678,62.34155 -3.50194,15.17944 -6.351,23.6176 -13.72511,40.65071 -4.90107,11.3211 -9.50731,18.61936 -19.48972,30.87835 -2.30851,2.83503 -3.99471,5.36629 -3.74712,5.62505 0.24758,0.25868 3.68976,-2.08501 7.64929,-5.20824 19.5551,-15.42475 39.7151,-26.31682 64.59929,-34.90119 29.69954,-10.24565 39.42783,-12.18588 62.29381,-12.42541 19.39397,-0.20254 33.75897,2.76895 52.94118,10.95075 23.57769,10.05711 38.07437,17.54487 62.89688,32.48768 l 7.19345,4.33047 -12.71784,0.69412 c -6.99468,0.38177 -13.96082,0.86058 -15.48,1.06401 -1.51918,0.20344 -11.67008,0.64742 -22.55755,0.98666 -31.39641,0.9782 -65.79897,-3.24655 -87.00767,-10.68525 -14.21678,-4.98604 -37.42158,-15.98363 -43.90987,-20.81066 -2.64364,-1.96679 -2.79124,-1.97342 -7.01687,-0.31556 -5.9132,2.31991 -19.13156,9.36373 -23.86957,12.7188 l -3.90088,2.76289 17.25145,0.0389 c 14.50036,0.0326 18.43919,0.36246 24.69914,2.06798 23.28859,6.34507 38.71427,13.92027 56.05687,27.53079 21.29801,16.71374 45.89954,47.18326 58.68645,72.68339 4.85116,9.67425 9.3554,21.12329 8.61551,21.89669 -0.28883,0.30174 -0.52518,0.002 -0.52518,-0.66718 0,-2.31375 -12.46098,-14.70232 -20.03295,-19.91797 -11.08725,-7.63551 -20.65902,-12.16184 -37.39027,-17.68146 -42.83355,-14.12997 -61.77913,-23.58009 -82.52563,-41.16439 -7.50024,-6.35709 -11.02558,-10.8334 -30.60828,-38.87305 -1.04999,-1.50332 -2.17511,-0.9294 -12.25749,6.25263 -12.00246,8.54935 -17.31775,12.58028 -20.20236,15.31989 -1.01278,0.96183 -3.76821,3.15055 -6.12322,4.86387 -30.84583,22.44115 -68.49667,59.8049 -95.22967,94.49927 -27.17033,35.26577 -34.74138,49.65354 -38.9113,73.94065 -3.92133,22.8394 -13.32552,29.59223 -31.91202,22.91731 z M 315.75688,620.38724 c -0.25542,-0.66133 -0.4644,-0.12024 -0.4644,1.20243 0,1.32267 0.20898,1.86376 0.4644,1.20243 0.25541,-0.66134 0.25541,-1.74352 0,-2.40486 z m 242.00101,197.7657 c -1.51917,-0.18891 -7.46497,-1.01793 -13.21319,-1.84222 -11.74281,-1.68397 -27.9686,-2.04787 -42.72031,-0.95801 -5.44373,0.40217 -9.8977,0.40949 -9.8977,0.0163 0,-2.61292 30.26763,-35.39177 45.99162,-49.80744 8.88076,-8.14169 18.03222,-16.76088 27.20531,-25.62229 3.85808,-3.72724 7.82333,-6.76755 8.82654,-6.76755 0.32489,0 0.87641,5.08627 1.22565,11.30282 0.94853,16.88593 3.01204,29.88081 6.56176,41.32311 4.66546,15.039 4.14213,23.48389 -1.70304,27.48557 -3.31448,2.26903 -13.43784,5.52194 -16.67417,5.35783 -1.56217,-0.0793 -4.08319,-0.29869 -5.60237,-0.48759 z m 763.66031,-34.3625 c -0.211,-0.20049 -3.9054,-0.66406 -8.2097,-1.03014 -12.4361,-1.05776 -28.533,-3.22184 -44.1943,-5.94154 -4.3044,-0.74749 -14.4553,-2.25527 -22.5576,-3.35054 -8.1023,-1.09536 -16.8031,-2.29028 -19.3351,-2.65544 l -4.6036,-0.66395 3.2226,-1.25995 c 13.4904,-5.27472 43.7496,-15.46803 61.3004,-20.65098 57.8411,-17.08024 97.9825,-17.5641 134.7836,-1.62529 6.532,2.82859 21.5935,11.48847 21.0153,12.08295 -0.1495,0.15361 -2.3434,1.12846 -4.8754,2.1663 -2.5319,1.03783 -9.3029,3.88865 -15.0464,6.33515 -27.3719,11.65874 -54.0552,16.92634 -85.8484,16.9475 -8.3978,0.006 -15.4413,-0.15374 -15.6522,-0.35422 z m -834.76721,-5.88805 c 0.24576,-1.5872 1.11278,-6.99813 1.92669,-12.02428 0.81391,-5.02614 2.08239,-17.14661 2.81886,-26.93438 l 1.33901,-17.79593 8.91879,-23.08661 c 10.13524,-26.23601 21.18476,-54.73451 24.80041,-63.96916 18.23386,-46.56185 39.20501,-96.4828 49.47835,-117.78982 2.05532,-4.2614 4.08559,-8.83024 4.5117,-10.1533 0.45116,-1.4002 0.56634,2.81955 0.27572,10.1004 -0.27454,6.87788 -1.06692,27.4394 -1.76087,45.69225 -1.39083,36.58266 -1.34277,36.27965 -8.77092,55.31168 -4.84868,12.42348 -11.05597,38.74318 -11.70783,49.64006 -0.65407,10.93632 1.09031,25.12497 4.43481,36.07187 1.47149,4.81635 2.67542,9.17693 2.67542,9.68964 0,0.51323 -2.80993,2.93912 -6.24439,5.39073 -3.43445,2.4516 -9.13129,6.8675 -12.65985,9.81277 -3.52855,2.94537 -8.69423,7.1709 -11.47949,9.39019 -12.07151,9.61875 -35.547,30.20595 -44.06638,38.64411 -4.90006,4.85357 -4.93312,4.86829 -4.48951,2.00372 z m 994.37331,-12.93427 c -1.141,-0.99446 -5.077,-2.99078 -8.7467,-4.43629 -32.8125,-12.92465 -49.4903,-21.42534 -62.8361,-32.0269 -18.1335,-14.40509 -32.2813,-28.69762 -42.038,-42.46783 -3.7788,-5.33358 -22.8173,-27.63082 -30.8018,-36.07283 -9.8774,-10.4438 -21.5475,-21.06076 -27.5873,-25.09803 -2.7475,-1.83616 -4.9953,-3.51446 -4.9953,-3.72945 0,-1.32844 18.9263,3.97917 34.0666,9.55372 63.6776,23.44542 97.6234,44.94867 119.8588,75.93379 9.4381,13.15071 18.3811,32.02691 21.4655,45.30556 0.7373,3.17441 1.9529,7.8278 2.7013,10.34088 0.7483,2.51307 1.2769,4.55479 1.1745,4.53719 -0.1024,-0.0176 -1.1197,-0.84565 -2.2607,-1.8401 z M 959.43871,754.35501 c -10.28532,-1.93302 -15.4358,-7.21168 -15.40726,-15.79317 0.009,-2.6994 0.65628,-7.93804 1.43889,-11.64142 2.91306,-13.7856 4.01312,-21.88419 6.92498,-50.98294 2.94067,-29.38733 2.98506,-30.53974 3.0566,-79.36023 0.069,-47.47089 -0.79551,-114.49998 -1.81869,-140.92453 -0.26628,-6.87789 -0.86741,-20.94629 -1.33578,-31.26312 -0.46837,-10.31683 -1.09887,-25.25099 -1.40106,-33.18701 -1.23845,-32.52711 94.82451,-113.74966 94.82451,-113.74966 -1.6947,36.05551 -2.048,57.55107 -1.7036,103.64927 0.2076,27.77608 0.5684,52.4499 0.8018,54.8307 0.2335,2.38081 0.6557,17.74784 0.9382,34.14895 0.2826,16.40112 0.7009,31.55171 0.9299,33.66798 0.2288,2.11627 0.837,14.66962 1.3515,27.89632 2.5996,66.83478 2.747,70.08615 4.2066,92.82742 1.7732,27.62698 2.8313,38.31705 6.0161,60.78513 2.8535,20.13057 3.9923,25.93973 7.2808,37.14251 2.7503,9.36922 2.322,17.36595 -1.2169,22.72012 -3.2751,4.95496 -4.8783,6.03195 -11.6968,7.85695 -6.2407,1.67041 -10.6554,1.44609 -20.6811,-1.05102 -8.4279,-2.09915 -38.18117,-1.52891 -47.38834,0.90825 -7.23084,1.91397 -19.17482,2.63687 -25.11713,1.52025 z M 2036.7686,724.02497 c -0.4395,-0.45911 -15.7369,-4.17925 -51.1439,-12.43791 -24.8271,-5.7907 -38.0219,-11.41537 -53.8987,-22.97791 -5.2115,-3.79506 -12.4674,-8.98377 -16.1245,-11.53081 -3.6572,-2.54664 -6.6495,-5.15456 -6.6495,-5.79541 0,-0.69056 3.2481,-1.86367 7.9741,-2.88005 4.3856,-0.94318 9.0468,-2.28212 10.3581,-2.97548 4.3454,-2.2977 23.7453,-6.42972 31.0759,-6.61913 3.9688,-0.10251 10.4272,0.14986 14.3513,0.56085 8.1967,0.85837 7.9768,1.17357 5.3311,-7.64272 -2.1887,-7.29383 -4.1638,-21.35416 -5.585,-39.759 -1.8894,-24.46988 -7.5929,-70.97306 -9.0513,-73.79828 -0.4863,-0.94259 -6.1149,-9.93879 -12.5079,-19.99108 -13.7343,-21.5956 -20.0901,-34.58856 -25.8795,-52.90682 -10.3028,-32.59445 -15.1329,-55.60507 -16.5555,-78.87926 -0.291,-4.76162 -0.7968,-10.17254 -1.1238,-12.02428 -0.684,-3.87297 -0.7708,-2.85755 -3.8628,45.21128 -1.106,17.19472 -2.2945,33.74493 -2.6411,36.77794 l -0.6303,5.51501 -5.5243,-4.95458 c -7.0658,-6.33699 -23.0381,-17.33901 -36.4613,-25.11535 -15.7202,-9.1069 -25.4964,-14.99957 -31.9019,-19.23019 -6.6825,-4.41349 -6.5383,-3.74042 -4.4115,-20.58749 1.244,-9.85509 2.7476,-27.94249 5.1021,-61.38538 0.5216,-7.40695 1.372,-19.09455 1.8899,-25.97243 0.5179,-6.87789 1.1942,-18.67323 1.5025,-26.21293 0,0 87.2775,1.65935 86.8116,4.56923 -1.4182,8.86372 -5.5412,45.97891 -5.7565,51.81982 -0.1919,5.20728 0.053,5.87747 4.8031,13.14687 24.9956,38.25163 29.6894,46.07703 37.976,63.30926 18.277,38.01115 24.3225,83.37923 16.3279,122.5322 l -2.0097,9.84163 2.8849,11.39132 c 1.5868,6.26532 2.885,12.52448 2.885,13.90968 0,1.3852 0.4144,2.78569 0.9208,3.11265 0.584,0.37712 0.9207,-2.17562 0.9207,-6.9811 0,-11.70587 3.006,-26.99787 8.9043,-45.29497 8.0236,-24.89122 24.4008,-50.64722 49.3319,-77.58641 l 4.4513,-4.80971 -0.3536,7.69554 c -0.3068,6.67991 -5.7548,37.73987 -10.312,58.79102 -3.1503,14.55226 -12.4269,36.07571 -21.9241,50.87039 -5.4039,8.41776 -13.7803,18.04892 -21.495,24.71614 -6.4046,5.53482 -6.7616,6.05283 -6.7566,9.80219 0,2.17736 0.3995,6.47272 0.8812,9.54535 0.4816,3.07254 1.7527,13.67786 2.8247,23.56759 2.2164,20.44896 3.5749,28.24166 6.2312,35.74 l 1.8611,5.25384 12.1111,5.4949 c 13.0824,5.93557 22.0382,11.11813 31.0981,17.99601 l 5.7544,4.36866 V 707.864 c 0,14.85335 -0.3731,17.8623 -2.0041,16.15774 z m -220.8061,-33.39382 c 0,-7.00361 -0.3927,-8.91923 -3.2114,-15.66523 -3.0962,-7.41071 -3.2121,-8.11591 -3.2385,-19.7102 -0.015,-6.61335 -0.6399,-15.92014 -1.3889,-20.68175 -0.8653,-5.50366 -1.3626,-15.39108 -1.3649,-27.14216 0,-19.27636 -1.6174,-36.01223 -4.3624,-45.24399 -1.4007,-4.71063 -1.3946,-5.40535 0.092,-10.33222 0.8764,-2.90488 2.3503,-5.7048 3.2753,-6.22204 2.6327,-1.47206 9.2781,-2.3557 9.2781,-1.23379 0,0.53664 1.1393,1.18646 2.532,1.44417 1.3926,0.2577 9.161,2.53019 17.2633,5.05019 13.0751,4.06671 15.98,4.63349 25.8381,5.04154 l 11.1067,0.45978 3.0989,-2.9573 c 3.7718,-3.5992 6.8886,-4.40165 13.6616,-3.51753 4.2549,0.55541 5.7022,1.25774 8.1265,3.94329 1.6223,1.7971 3.0828,4.24274 3.2455,5.43478 0.4073,2.98241 -1.684,13.66631 -3.8135,19.48222 -6.7704,18.49141 -10.4244,38.67681 -11.6609,64.42319 l -0.6192,12.89002 -4.6967,1.16424 c -10.5256,2.60908 -23.7977,8.87594 -34.0324,16.06925 -11.7307,8.24509 -21.9765,16.7705 -26.2137,21.81204 l -2.9159,3.46972 z M 1685.23,677.51988 c -1.7519,-0.98157 -4.4386,-3.40518 -5.9703,-5.38582 l -2.7853,-3.60122 0.4604,-11.20759 c 0.7682,-18.70112 0.3981,-44.21568 -0.8185,-56.41888 -2.0535,-20.59903 -4.7576,-41.22018 -6.2442,-47.61613 -3.1827,-13.69517 -10.3672,-26.1581 -29.391,-50.98294 -21.3587,-27.87228 -52.3676,-59.60194 -78.0639,-79.87872 -14.4368,-11.39228 -38.4822,-28.82075 -39.7611,-28.82075 -0.6425,0 -1.3062,-0.32465 -1.4751,-0.72146 -0.1687,-0.3968 -1.757,-1.54641 -3.5293,-2.55482 -1.7724,-1.0084 -6.1228,-3.54264 -9.6675,-5.63169 -3.5448,-2.08905 -8.5166,-4.97632 -11.0486,-6.41606 -5.6549,-3.21538 -27.1833,-13.53452 -28.2375,-13.53452 -1.1665,0 -0.9123,2.67429 0.2943,3.09447 0.7116,0.24781 1.0184,3.35987 0.9345,9.47667 -0.2741,19.95549 -9.837,38.98078 -36.5212,72.6603 -11.6536,14.70906 -16.6447,21.43111 -22.4526,30.23962 -5.5985,8.49135 -12.7483,22.57293 -14.877,29.30172 -1.1579,3.6599 -1.2496,3.73041 -1.8777,1.44291 -1.0148,-3.69559 -0.9553,-32.86956 0.091,-44.73031 1.7732,-20.09209 5.5409,-35.32829 13.5355,-54.73355 10.3359,-25.09034 20.7346,-39.61855 35.4061,-49.46884 2.8954,-1.94408 5.2875,-3.77235 5.3157,-4.06286 0.1228,-1.26639 -22.4084,-8.21402 -32.5243,-10.02921 -12.6784,-2.2748 -12.2253,-2.42294 -12.426,4.06411 -0.3169,10.25238 -5.8094,30.58303 -11.2401,41.604 -12.7473,25.87048 -37.0975,51.77558 -75.4205,80.23464 -4.3043,3.19653 -8.6546,6.5413 -9.6675,7.43302 -1.0127,0.89172 -6.0025,5.06684 -11.0881,9.27832 -9.8352,8.1438 -23.2933,22.48925 -31.0696,33.11678 -2.597,3.54928 -4.8363,6.33362 -4.9762,6.18741 -0.2969,-0.31012 8.4806,-27.05944 11.8809,-36.20847 1.2783,-3.43894 3.0591,-8.41699 3.9576,-11.06233 3.295,-9.70215 11.5117,-28.19645 17.5212,-39.43963 5.6661,-10.59964 8.3227,-15.07556 20.5532,-34.62992 5.2388,-8.37583 26.7145,-31.4786 36.267,-39.01445 15.0389,-11.8646 33.1779,-21.59945 42.4008,-22.75667 3.1174,-0.39115 4.1351,-0.85624 3.4469,-1.57518 -0.6259,-0.65393 -6.9785,-0.97435 -17.6943,-0.89238 -19.2348,0.1471 -18.3011,-0.2065 -26.3418,9.98112 -16.4052,20.78564 -33.3104,34.69437 -59.1283,48.64349 -6.8364,3.69367 -13.8798,7.29008 -15.6522,7.9921 -3.2013,1.26794 -14.4294,6.09689 -17.954,7.72151 -1.0127,0.46686 -13.354,4.99604 -27.4262,10.06481 -47.9943,17.28898 -74.9574,31.28909 -104.8419,54.44208 -8.7127,6.74918 -11.4879,8.49144 -10.4069,6.53274 4.3279,-7.84022 20.5218,-31.22272 29.2134,-42.18117 12.9996,-16.38957 38.8486,-43.64428 52.6963,-55.56082 13.064,-11.24222 34.8509,-25.49724 53.5157,-35.01565 16.4329,-8.38016 20.9674,-10.4111 23.4948,-10.52365 1.5592,-0.0694 1.263,-0.30821 -1.0513,-0.84729 -1.7724,-0.41287 -17.5166,-1.28621 -34.9872,-1.94072 -24.7507,-0.92726 -35.1198,-0.9376 -46.9565,-0.0469 -21.717,1.63425 -48.1664,6.29823 -70.4349,12.4206 -9.5994,2.63919 -9.7153,2.61225 -4.966,-1.15 6.028,-4.77498 12.3872,-8.43085 13.2481,-7.6157 0.4179,0.39592 0.4951,0.23504 0.1717,-0.35752 -0.8299,-1.51958 24.3455,-16.76665 35.7402,-21.64659 1.0128,-0.43367 5.1561,-2.34877 9.2072,-4.25592 9.9373,-4.67792 31.3486,-12.94101 33.5326,-12.94101 0.9691,0 1.9001,-0.36785 2.069,-0.81744 0.4481,-1.19368 28.4694,-8.27684 44.501,-11.24896 11.6378,-2.15754 16.7072,-2.57935 32.2249,-2.68131 19.4705,-0.12795 26.7902,0.69966 41.7021,4.71496 10.7815,2.90304 19.7687,7.00611 27.1417,12.39077 6.6361,4.84656 17.9946,16.91864 22.5005,23.91389 2.9067,4.51256 3.3565,4.81962 7.4352,5.07405 26.0773,1.62693 36.0653,3.03858 54.4133,7.69053 21.146,5.36129 32.1716,9.26639 53.8867,19.0859 6.5384,2.95662 12.0467,5.20911 12.2418,5.00556 0.1949,-0.20351 -1.4257,-1.82461 -3.6013,-3.60238 -5.24,-4.28208 -6.8453,-5.90824 -13.4553,-13.63072 -9.953,-11.62795 -17.8887,-24.48912 -33.0694,-53.5898 -6.9272,-13.27961 47.2494,-7.56875 54.0221,2.88583 4.162,6.42404 8.389,16.92056 11.2337,27.89632 3.0218,11.65971 2.9838,29.08625 -0.087,39.69551 -1.1891,4.10884 -1.9959,7.603 -1.7932,7.7648 0.2028,0.16182 2.4404,1.51919 4.9723,3.01636 15.642,9.24917 49.8936,33.67279 62.6087,44.6447 18.4087,15.88359 41.7628,39.33285 57.0927,57.32406 4.0466,4.74911 8.1355,9.51072 9.0862,10.58136 0.9509,1.07064 2.9189,3.87115 4.3735,6.22329 2.0454,3.30783 2.6445,3.80929 2.6445,2.21343 0,-5.93913 -11.172,-55.99466 -24.8483,-111.32557 -6.5521,-26.51209 -16.4771,-59.90688 -28.8782,-97.16578 -4.754,-14.28485 101.0854,-13.94817 102.9821,-8.65748 1.899,5.29068 4.4611,12.3523 5.6934,15.69216 9.4245,25.54726 25.6788,81.87186 34.8896,120.90651 3.2461,13.75578 6.3031,26.52556 6.7934,28.3773 0.4904,1.85174 2.7608,12.67359 5.0455,24.04855 2.2846,11.37497 4.7634,23.71188 5.5082,27.41536 4.4149,21.95248 7.256,36.75388 10.2475,53.38779 1.8554,10.31683 4.3427,23.08661 5.5271,28.37729 2.4145,10.7853 9.5423,32.46555 14.6367,44.51484 4.1315,9.77333 5.0325,16.14524 2.9361,20.76064 -0.8275,1.82201 -1.5047,3.70357 -1.5047,4.18117 0,1.61943 -5.9629,6.80363 -10.5882,9.2056 -4.6216,2.39995 -7.9233,3.05272 -20.7161,4.09556 l -6.9054,0.56287 2.6803,-1.90887 c 1.4742,-1.04987 4.5132,-2.64015 6.7534,-3.53408 2.2402,-0.89384 3.7272,-1.96429 3.3043,-2.37869 -1.3162,-1.29016 -12.6579,-1.89291 -18.3544,-0.97541 -2.9879,0.48126 -7.7111,1.1499 -10.4962,1.48581 -5.762,0.695 -18.9115,5.85611 -27.3149,10.72085 -14.121,8.17497 -26.8223,10.90842 -33.444,7.19802 z M 634.69293,670.71192 c 0,-1.19002 6.28895,-17.16489 8.73281,-22.18238 7.79478,-16.0048 26.17688,-35.00123 45.0893,-46.59745 19.76963,-12.12143 34.7865,-17.76995 62.6483,-23.56469 16.21381,-3.3718 26.47979,-5.80302 35.44757,-8.3941 17.05718,-4.92842 21.49135,-6.09323 21.83478,-5.73472 0.19095,0.19956 -1.43273,1.79614 -3.60829,3.54784 -2.17547,1.75179 -13.27765,12.73803 -24.6715,24.41505 -22.70118,23.26361 -28.72359,28.65818 -42.13566,37.73507 -21.8403,14.78313 -40.95897,23.07411 -74.79529,32.43669 -6.83632,1.89166 -16.05545,4.66744 -20.48593,6.16855 -4.43095,1.50102 -8.05627,2.47758 -8.05627,2.17014 z m -315.53861,-70.4411 c 0.6308,-12.5495 3.56722,-33.47944 5.78173,-41.2096 2.1589,-7.53567 12.21698,-29.17571 16.98997,-36.55381 10.43448,-16.12984 21.85136,-31.064 34.1954,-44.73031 6.60227,-7.30932 18.58557,-22.46808 26.6133,-33.66798 6.26583,-8.74068 19.27243,-31.54112 19.27243,-33.78341 0,-0.6674 0.47967,-1.52314 1.06591,-1.90176 1.70379,-1.10017 0.27019,29.74037 -1.99417,42.89974 -3.05753,17.769 -11.52922,50.60105 -16.10886,62.43293 -6.41113,16.5608 -9.80102,23.18377 -21.22066,41.45683 -13.02998,20.84913 -33.75345,39.44925 -58.40471,52.41911 l -6.73945,3.54591 z m -10.41698,-34.71649 c -0.17797,-9.33046 -1.69338,-17.78824 -7.28195,-40.64206 -5.64279,-23.07603 -6.85638,-29.55279 -8.47076,-45.21129 -2.77808,-26.94496 -1.94244,-53.19347 3.46033,-108.69946 2.80578,-28.82556 1.96093,-50.24994 -2.59256,-65.74587 -0.98674,-3.35775 -1.60352,-6.30418 -1.37058,-6.54755 0.23293,-0.24337 2.73407,2.86303 5.55809,6.90318 14.02803,20.069 29.1959,60.47635 36.4622,97.13693 2.40288,12.12335 5.65788,50.35863 5.11052,60.03288 -0.22724,4.01659 -0.64695,11.41537 -0.93268,16.44152 -1.27731,22.46808 -7.28526,46.06068 -16.78005,65.89304 -2.44414,5.10532 -12.22436,21.6437 -12.79888,21.6437 -0.18737,0 -0.35102,-0.54109 -0.36364,-1.20243 z m 1643.01796,-6.36287 c -6.0768,-2.56049 -14.5704,-6.41586 -18.8748,-8.56744 -8.9471,-4.47226 -30.4112,-18.31826 -34.5269,-22.27185 -1.5191,-1.45955 -5.248,-4.63194 -8.2863,-7.04969 -5.9817,-4.75978 -20.0984,-18.93294 -30.5411,-30.66479 -7.0335,-7.9013 -25.9937,-32.51653 -50.9423,-66.13641 -4.8108,-6.48272 -10.5073,-14.13767 -12.6581,-17.01195 -2.1514,-2.87371 -3.6001,-5.22498 -3.2195,-5.22498 0.3806,0 2.7624,1.55132 5.2926,3.44741 5.1127,3.83112 13.4306,8.58601 14.4986,8.28828 0.3798,-0.10583 0.6905,0.21816 0.6905,0.71999 0,0.50182 4.0396,3.02819 8.9769,5.61409 4.9374,2.58599 12.2916,6.58391 16.3427,8.88449 4.0512,2.30049 9.3122,5.17506 11.6904,6.38778 5.1717,2.63707 32.4073,19.73136 40.5456,25.44914 24.5591,17.25244 52.9761,48.53095 61.5093,67.70438 6.3006,14.15594 12.2189,28.82749 12.903,31.98458 0.9137,4.21908 0.065,4.12067 -13.4001,-1.55315 z m -99.8978,-12.42829 c -13.4341,-1.14058 -38.0809,-8.94068 -45.5755,-14.42336 -3.0686,-2.24489 -3.7322,-3.31957 -3.9788,-6.44367 -0.3494,-4.4233 0.929,-10.28605 4.021,-18.44043 1.233,-3.25194 2.8503,-8.66287 3.594,-12.02428 1.2137,-5.48576 6.9521,-45.13817 6.9521,-48.03939 0,-0.64744 1.6141,1.43175 3.5866,4.6205 13.2216,21.37243 43.9744,57.73 60.4028,71.4117 4.0511,3.37392 8.7084,7.44235 10.3496,9.04091 l 2.984,2.9066 -3.2876,3.14623 c -7.4335,7.11366 -20.3194,9.83393 -39.0486,8.24404 z M 772.77825,446.75966 c -12.51437,-1.20599 -37.09473,-8.23009 -41.43222,-11.83959 l -2.30179,-1.91541 4.14322,-3.96907 c 13.36512,-12.80249 36.84429,-23.77344 58.69933,-27.4269 13.81442,-2.30943 49.22425,-2.29683 62.83519,0.0224 25.1908,4.29219 43.20737,4.49073 63.52942,0.69999 5.82352,-1.08623 10.74751,-1.97795 10.9427,-1.98141 0.19492,-0.004 -0.69909,0.85937 -1.98663,1.91754 -1.28762,1.05813 -2.61409,1.92388 -2.94776,1.92388 -0.33376,0 -1.92568,1.03842 -3.53767,2.3076 -5.30185,4.17426 -22.88624,14.05975 -30.09176,16.91576 -1.77237,0.70264 -5.46436,2.31818 -8.2044,3.59006 -19.66927,9.12989 -50.16338,17.18895 -73.88195,19.52647 -9.40328,0.92646 -27.3379,1.04149 -35.76522,0.2294 z M 494.37212,364.99169 c 0.11998,-51.38503 72.3379,-85.61286 72.3379,-85.61286 -4.94112,8.06829 -10.75028,17.69974 -12.91028,21.40321 -2.15945,3.70348 -4.30767,7.38291 -4.77364,8.17651 -5.77317,9.83201 -18.39314,32.63293 -18.39314,33.23126 0,0.153 -1.86446,3.57294 -4.14323,7.59992 -2.27877,4.02698 -4.14322,7.53432 -4.14322,7.79414 0,0.25982 -0.96906,2.08703 -2.15337,4.06055 -3.01259,5.0198 -18.72,34.95313 -22.45258,42.78719 -1.70139,3.57121 -3.17961,6.4931 -3.28485,6.4931 -0.10527,0 -0.14314,-20.67021 -0.0841,-45.93273 z"
       id="path1"
       style="stroke-width:0.941108" />
    <circle
       cx="950.47998"
       cy="540.88"
       r="1.3218"
       stroke="#000000"
       id="circle1" />
  </g>
</svg>
