<svg xmlns="http://www.w3.org/2000/svg" version="1.1" xmlns:xlink="http://www.w3.org/1999/xlink" width="1000" height="1000"><style>
    #light-icon {
      display: inline;
    }
    #dark-icon {
      display: none;
    }

    @media (prefers-color-scheme: dark) {
      #light-icon {
        display: none;
      }
      #dark-icon {
        display: inline;
      }
    }
  </style><g id="light-icon"><svg xmlns="http://www.w3.org/2000/svg" version="1.1" xmlns:xlink="http://www.w3.org/1999/xlink" width="1000" height="1000"><g clip-path="url(#SvgjsClipPath1101)"><rect width="1000" height="1000" fill="#ffffff"></rect><g transform="matrix(0.48828125,0,0,0.48828125,0,0)"><svg xmlns="http://www.w3.org/2000/svg" version="1.1" xmlns:xlink="http://www.w3.org/1999/xlink" width="2048" height="2048"><svg width="2048" height="2048" version="1.1" viewBox="0 0 2048 2048" xmlns="http://www.w3.org/2000/svg">
 <path d="m151.36 1370c11.07-3.1748 19.098-24.826 25.344-34 16.251-23.871 36.56-44.388 59.656-61.626 61.085-45.594 140.57-54.949 196-110.38 40.555-40.555 64.097-95.841 92.154-145 12.34-21.619 25.332-45.112 42.85-63 13.261 26.657 39.554 51.815 63 69.475 8.4644 6.3755 17.68 14.489 28 17.525-2.998-8.8359-11.61-16.029-17.572-23-13.08-15.295-26.802-30.401-38.237-47-35.852-52.041-61.362-115.28-64.152-179-1.8092-41.319 2.8193-83.382 18.414-122 18.231-45.147 47.588-85.093 73.494-126 28.412-44.864 50.609-93.679 84.478-135 62.294-76.001 155.3-120.54 251.58-134.73 58.856-8.6707 118.76-4.1597 176 12.156 16.951 4.8316 33.626 10.678 50 17.174 8.5214 3.3806 16.93 8.8373 26 10.399-2.2039 9.3796-10.627 18.939-16.921 26-2.708 3.0378-7.515 8.1315-5.0355 12.56 2.768 4.944 11.142 7.6977 15.957 10.181 13.195 6.8064 26.333 13.294 39 21.07 31.761 19.498 58.012 45.108 79.848 75.189 9.3082 12.823 16.961 27.588 23.458 42 2.1428 4.7535 4.761 15.446 9.9073 17.683 7.0331 3.0576 16.361-7.7013 21.787-10.871 13.511-7.8928 29.907-9.1921 45-12.211 4.3245-0.8651 12.605-4.4883 16.621-1.8264 6.8492 4.5398 13.184 16.627 18.266 23.226 12.564 16.314 26.047 31.918 38.913 48 42.984 53.729 87.205 105.4 125.2 163 92.848 140.76 142.48 298.01 175.8 462 19.72 97.051 34.759 195.97 37.184 295 1.6582 67.692-6.3156 136.66-19.586 203-4.4446 22.218-10.399 43.94-15.41 66-2.1073 9.2767-6.802 19.481-3.9893 29h1c14.667-21.76 23.792-47.365 32.344-72 22.859-65.847 30.893-134.84 34.735-204 5.0153-90.275-6.9874-181.11-21.998-270-29.896-177.05-81.597-349.62-180.43-501-37.335-57.188-81.263-110.1-127.75-160-20.443-21.946-41.345-43.493-61.196-66-7.151-8.1076-15.504-15.079-21.714-24 47.666-15.189 60.443-79.253 56.169-122-8.3555-83.568-67.54-159.14-153.17-172.42-39.211-6.0836-84.315-0.47168-110.1 33.424-15.86 20.849-22.136 49.863-27.899 75-19.563-16.633-47.172-27.167-71-36.05-73.742-27.492-158.58-31.177-235-13.066-22.388 5.3063-44.57 11.905-66 20.319-10.922 4.2881-23.44 12.989-34.999 14.745-4.5671 0.6934-7.324-3.809-9.7893-6.9476-7.3057-9.3009-10.988-19.611-13.561-31-7.5587-33.463-8.2266-97.351-59.65-87.69-25.643 4.8176-45.892 25.195-60.279 45.69-30.783 43.848-52.019 105.07-44.292 159 2.3253 16.232 6.5552 32.785 15.025 47 2.8411 4.7685 14.092 14.824 13.028 20.424-0.9951 5.2395-7.2462 10.925-9.9128 15.576-9.0013 15.699-18.534 31.154-27.257 47-40.859 74.225-96.35 139.44-108.88 226-7.391 51.043-0.4179 105.39 16.433 154 5.9792 17.249 12.838 33.863 21.358 50 2.1393 4.052 9.3794 13.152 7.5401 17.816-2.2446 5.692-12.215 11.029-16.563 15.509-12.68 13.065-24.109 26.908-34.772 41.675-44.264 61.306-75.999 132.51-143.42 172.4-64.922 38.409-135.86 58.14-181.86 122.6-14.893 20.87-29.138 46.767-29.141 73m552-738.53c-23.723 4.4834-29.188 37.331-37.781 55.532-9.8758 20.919-29.734 33.165-43.539 51-11.842 15.299-15.92 35.022-14.59 54 1.4613 20.849 11.252 42.389 25.911 56.999 7.625 7.5999 16.682 13.968 28 11.822 17.673-3.3511 26.803-32.489 33-46.822 10.151-23.478 27.214-42.766 37.688-66 8.0467-17.849 10.773-37.559 10.297-57-0.5392-22.015-8.1255-65.364-38.985-59.532m255 0.9722c-38.032 4.2452-51.218 38.712-58.651 71.56-3.151 13.926-6.1258 28.887-2.4251 43 5.6682 21.617 25.477 38.119 36.872 57 20.359 33.733 39.3 74.478 86.204 68.714 53.335-6.554 85.619-68.084 61.73-115.71-10.675-21.284-34.047-32.211-46.676-52-19.102-29.931-31.168-77.682-77.054-72.56m493 18.56c0.01 14.421 3.4615 28.678 4.8302 43 2.5829 27.029 3.5879 54.919 1 82-10.981 114.91-87.756 207.42-187.83 260.22-60.348 31.843-124.37 52.665-190 70.629-16.589 4.541-33.197 9.0164-50 12.728-5.4612 1.2062-14.923 1.4547-17 7.4243 171.8 0 382.68-72.222 448.05-247 21.254-56.823 24.427-114.91 11.374-174-3.0008-13.586-6.8809-26.961-11.744-40-1.9406-5.2036-3.8482-11.889-8.6805-15m-725 83c-8.8703-1.5247-11.863-16.863-22-20.387-11.463-3.9843-16.895 6.9109-27 8.3866 0.418-17.782 21.358-30.596 36.91-20.521 11.029 7.1446 13.587 20.405 12.09 32.521m278 2c-18.16-4.2668-29.851-23.833-50-9.9451-7.6289 5.2581-12.008 14.61-20 18.945-9.415-31.851 34.521-49.667 57-32.319 6.6217 5.1102 14.204 14.445 13 23.319m-347 195h-1c-2.8036 6.644-2.0005 13.914-2 21 0 24.514 9.5435 51.448 27.089 68.91 7.6879 7.6512 20.698 11.394 27.322 19.469 5.2659 6.4197 5.6646 19.79 9.0162 27.621 7.03 16.426 19.116 30.85 33.573 41.254 58.064 41.785 147.45 33.511 204-6.8325 14.336-10.228 36.413-24.419 43-41.421-9.3307 1.3987-17.875 7.6072-26 12.14-12.7 7.0853-25.517 13.768-39 19.257-45.538 18.538-94.603 25.536-142 9.9329-29.515-9.7167-57.102-31.442-66-62.33 7.1361-1.3839 15.849-5.8169 23-5.49 6.8171 0.3117 13.732 5.0483 20 7.426 12.521 4.7493 25.847 8.7218 39 11.259 29.331 5.6581 61.968 3.0311 90-7.2484 32.618-11.961 60.503-33.734 82.999-59.947 7.2447-8.4415 13.612-17.673 19.656-27 1.9219-2.966 3.6533-9.2373 6.7632-11.029 6.5785-3.7907 14.9 13.059 17.675 17.024 1.6011 2.2871 5.0812 6.7697 7.9684 3.5131 5.5767-6.2904 1.1251-22.164-2.1968-28.508-9.415-17.979-36.271-26.104-53.82-14.03-12.503 8.6017 15.413 12.449 20.955 14.03-6.9978 9.9434-16.37 17.599-25 26.015-37.886 36.944-87.667 65.057-142 61.074-20.686-1.5163-56.524-6.7989-64.878-29.089-4.6902-12.514 6.1741-20.235 15.878-25.564 18.341-10.072 50.947-17.162 55.532-41.436 3.0686-16.244-9.3066-24.382-23.532-26.753-26.178-4.363-50.333 9.6193-76 6.4668-15.442-1.8967-36.76-14.67-51.985-8.0109-14.336 6.2707-6.9023 27.745-1.0879 37.297 7.7167 12.678 21.487 22.755 34.073 30.243 7.4777 4.4487 15.99 7.7743 21.61 14.772 7.15 8.9021 8.4812 24.325-2.6103 30.427-13.379 7.3616-30.656 0.6193-40.999-8.6157-24.162-21.574-25.488-48.939-39-75.826m645 582h2c4.7902-11.278 6.3579-24.979 8.6111-37 4.5526-24.288 8.4482-48.707 13-73 10.763-57.445 26.054-112.67 47.593-167 9.9348-25.058 23.036-50.094 37.221-73 5.1711-8.3501 17.768-21.84 16.576-32-27.331 11.454-51.519 45.334-66.399 70-40.156 66.564-65.254 146.83-65.602 225-0.1176 26.436-5.2511 62.593 7.0007 87m-848-154c-30.365 3.8577-62.469 11.58-90 25.248-5.9203 2.9392-28.405 11.131-22.378 20.709 7.7246 12.277 35.504 13.279 48.378 15.043 47.641 6.5275 98.211 5.3967 146 0.8303 25.457-2.4326 51.354-5.7578 76-12.83 5.8366-1.6749 21.901-4.1873 22.454-12.015 0.712-10.083-19.358-15.946-26.454-18.785-29.098-11.64-62.633-19.2-94-19.2 0.1784-7.4136 4.5596-11.553 7.4824-18 4.6594-10.277 5.4937-23.673 0.6056-34-15.191-32.096-67.991-30.004-81.75 2-9.1546 21.294 6.185 33.336 13.662 51m206 43c-8.067 5.6603-14.972 11.879-24 16.216-29.267 14.059-63.154 17.54-95 20.95-61.326 6.5655-127.83 7.9614-188-7.9005-10.969-2.8916-22.448-6.0104-32-12.37-12.324-8.2055-21.898-19.548-35-27.022-23.349-13.32-49.977-15.301-75-6.1775-9.2004 3.3544-17.461 8.7494-25 14.919-60.021 49.121-44.156 141.56-9.1358 200.39 7.7889 13.084 16.884 25.401 26.726 36.999 3.635 4.2833 9.1213 7.2881 12.046 12.044 5.8975 9.5892 8.6566 21.768 13.623 31.957 10.233 20.996 23.935 40.936 39.83 58 18.17 19.506 39.503 37.515 63.91 48.691 24.527 11.231 51.505 15.756 78 19.439 61.586 8.5617 126.44 4.5326 186-13.41 38.169-11.499 77.083-31.707 104.96-60.721 15.886-16.534 25.966-34.985 38.13-53.999 18.628-29.118 34.403-53.71 38.624-89 3.5099-29.346-1.7144-58.65-1.7144-88 0-29.142 1.6772-61.422 21.326-85 8.2159-9.8591 39.296-21.867 31.218-38-5.5698-11.123-21.332-16.779-32.543-19.848-32.186-8.8104-64.87-5.4041-87.711 20.848-8.5613 9.8401-16.108 20.749-24.174 31-2.6387 3.3538-7.28 10.134-12.022 10.458-6.0288 0.4125-10.606-16.181-13.093-20.458m155-19c-13.894 6.6863-38.044 1.7692-52-3.0031-3.6189-1.2374-14.9-4.4185-14.079-9.7337 0.7452-4.8223 13.618-4.2576 17.079-4.2632 16.241-0.026 38.857 2.7301 49 17m-601 191c-6.2645-6.1975-9.7896-16.124-13.576-24-16.685-34.708-20.39-97.358 16.576-121.3 18.779-12.163 39.577-8.1 52.561 10.301 2.8614 4.0552 7.4255 9.7562 7.1203 15-0.7067 12.146-20.795 27.114-27.657 37-17.64 25.416-31.014 51.944-35.025 83m1152 33c0-8.2163 2.0653-19.654-2.2284-26.999-5.9774-10.225-19.046-15.124-29.772-18.414-21.741-6.6683-43.326-11.992-66-14.42-88.014-9.4285-179.34-11.523-267 3.081-19.903 3.316-39.599 7.7953-59 13.332-11.045 3.1519-23.746 7.3023-31.316 16.512-8.0214 9.7574-4.9683 27.202-3.8534 38.91 3.1248 32.813 11.01 65.149 22.745 96 20.711 54.446 58.972 118.05 111.42 146.69 17.292 9.4408 37.738 11.618 57 13.482 40.846 3.9528 87.528 4.7487 127-8.5255 25.272-8.4988 46.106-28.132 62.486-48.644 8.5699-10.732 16.292-24.817 27.528-32.957 18.402-13.331 43.028-19.318 63.985-27.471 29.699-11.554 60.286-28.203 79.254-54.572 25.831-35.91 23.497-99.968-28.254-110.55-14.226-2.9088-28.55-1.4453-42 4.0031-7.5634 3.0639-14.135 8.2812-22 10.547m-31-11v1c-16.745 4.8462-32.866 11.14-50 14.789-80.013 17.04-164.04 17.044-245 8.3766-24.56-2.6295-49.136-6.5593-73-13.015-8.4191-2.2774-20.9-3.5261-27-10.151 46.005-17.747 96.214-22.748 145-26.09 66.797-4.5743 136.17-3.0165 202 9.8935 16.684 3.272 31.714 11.328 48 15.196m2 140c6.2411-19.148 11.8-40.638 19.877-59 7.7043-17.515 24.994-42.845 43.123-50.178 14.293-5.7809 32.658-3.7014 39.07 12.178 7.1995 17.831-0.4264 38.669-13.11 52-21.643 22.749-57.121 42.484-88.96 45z" fill="#593a2f"></path>
</svg></svg></g></g><defs><clipPath id="SvgjsClipPath1101"><rect width="1000" height="1000" x="0" y="0" rx="300" ry="300"></rect></clipPath></defs></svg></g><g id="dark-icon"><svg xmlns="http://www.w3.org/2000/svg" version="1.1" xmlns:xlink="http://www.w3.org/1999/xlink" width="1000" height="1000"><g><g transform="matrix(0.48828125,0,0,0.48828125,0,0)"><svg xmlns="http://www.w3.org/2000/svg" version="1.1" xmlns:xlink="http://www.w3.org/1999/xlink" width="2048" height="2048"><svg width="2048" height="2048" version="1.1" viewBox="0 0 2048 2048" xmlns="http://www.w3.org/2000/svg">
 <path d="m1080.2 1888.7c-23.138-2.3264-41.488-6.1108-52.38-10.802-19.153-8.2504-47.495-32.808-65.478-56.737-3.5134-4.675-7.6201-10.075-9.1259-12-5.2027-6.651-25.787-41.878-33.944-58.089-9.733-19.344-19.395-47.948-26.317-77.911-5.1189-22.158-6.626-33.144-7.2705-53-0.64513-19.876-0.16161-22.056 6.2806-28.313 8.8339-8.5803 30.913-16.506 67.354-24.176 22.239-4.6811 49.162-8.2229 80-10.524 7.975-0.5951 15.811-1.2579 17.413-1.4728 1.602-0.2149 17.352-0.9396 35-1.6105 66.08-2.5119 158.78 3.9068 196.09 13.577 30.377 7.8748 42.573 12.882 50.762 20.84 5.6545 5.4955 6.7257 9.0642 6.7329 22.431l0.01 10.251 11.75-5.8639c17.932-8.9493 23.886-10.594 38.25-10.567 16.885 0.032 30.634 5.3968 41.816 16.317 5.7446 5.6094 7.3532 7.9878 10.561 15.614 4.2169 10.027 6.6229 20.734 6.6229 29.474 0 13.999-6.4335 33.704-15.533 47.576-6.0296 9.1919-21.599 24.084-33.816 32.346-12.983 8.7791-40.191 22.145-58.152 28.566-17.847 6.3807-38.696 15.022-46.5 19.273-8.1373 4.4325-14.097 10.571-27 27.81-12.426 16.602-32.435 36.809-44.715 45.157-17.829 12.121-32.488 16.472-70.286 20.865-18.218 2.1172-61.375 2.6524-78.12 0.9687zm248.45-141.62c16.505-4.2141 39.239-14.23 52.668-23.204 27.843-18.606 40.992-38.013 39.793-58.733-0.5598-9.67-4.8027-19.224-10.451-23.532-9.8765-7.5332-27.7-6.0621-39.959 3.2981-4.3862 3.3492-6.3534 5.3203-13.13 13.156-1.2361 1.4293-4.5769 6.4237-7.424 11.099s-6.903 10.56-9.013 13.077c-3.9251 4.6825-4.5232 6.2135-12.864 32.923-3.5033 11.219-7.2746 21.83-11.463 32.25-0.9511 2.3664 1.5389 2.296 11.843-0.3349zm-170.87-109.04c40.001-1.7738 88.173-8.26 118.03-15.893 13.547-3.4629 39.032-11.79 38.296-12.513-0.7721-0.7585-21.201-8.5225-28.349-10.774-19.737-6.2172-63.594-12.935-98.948-15.156-20.78-1.3055-83.976-1.6963-107.5-0.6647-52.476 2.3011-105.45 9.6125-136 18.772-11.521 3.4537-24 8.3129-24 9.3453 0 0.835 11.679 4.9135 25.756 8.9944 21.392 6.2016 59.2 12.341 92.495 15.021 6.7371 0.5421 14.724 1.2689 17.749 1.615 17.36 1.9862 71.118 2.6441 102.47 1.254zm-736.97 186.02c-37.726-2.5968-69.418-8.5858-96.76-18.285-14.928-5.2955-18.25-6.9344-31.24-15.412-26.691-17.419-49.605-40.617-68.589-69.44-10.549-16.017-17.042-28.605-24.371-47.252-3.0732-7.8189-5.6441-12.795-7.3785-14.282-9.7569-8.3635-20.382-21.442-31.862-39.218-22.019-34.097-33.579-69.263-35.019-106.52-1.713-44.337 16.212-84.106 47.457-105.29 33.267-22.557 73.032-19.718 107.5 7.6745 4.0231 3.197 10.087 8.2863 13.475 11.31 3.3882 3.0232 9.0008 6.8851 12.472 8.5818 15.09 7.3754 46.445 14.066 86.312 18.418 16.249 1.7736 93.194 1.8073 111 0.048 73.038-7.2142 108.85-16.637 130.16-34.247l4.8206-3.9835 1.7375 2.2572c0.95559 1.2414 1.7474 2.7477 1.7597 3.3474 0.04 1.9618 5.9785 13.06 7.9362 14.832 1.8309 1.6569 2.0839 1.5746 5.9797-1.945 3.8918-3.516 12.683-14.2 25.606-31.121 11.713-15.336 21.441-24.027 32.594-29.121 10.938-4.9953 32.998-6.6549 49.045-3.6894 21.149 3.9084 38.114 12.048 44.404 21.304 5.4028 7.9509 1.9748 14.204-13.452 24.54-11.473 7.6869-15.491 11.462-21.032 19.76-14.485 21.692-20.073 55.216-16.583 99.493 1.736 22.025 2.2633 54.539 1.0761 66.357-2.784 27.715-13.371 55.575-29.452 77.5-4.4373 6.05-9.7053 14.136-11.707 17.969-28.578 54.733-80.379 93.085-153.89 113.94-36.406 10.327-96.526 15.612-142 12.482zm-226.5-240.52c0-4.8859 5.187-24.994 8.8737-34.399 7.7873-19.868 21.853-42.561 37.836-61.042 17.606-20.358 17.241-19.489 12.173-28.997-7.0517-13.23-20.02-23.47-31.185-24.622-5.8555-0.6043-15.317 1.4374-21.663 4.6745-2.1828 1.1136-6.8719 4.7404-10.42 8.0597-15.662 14.651-24.485 44.395-21.642 72.958 2.1597 21.699 7.8308 38.246 20.803 60.699 3.6597 6.3345 5.2255 7.1345 5.2255 2.6697zm597.75-185.94c8.2606-2.4418-7.5947-12.341-26.25-16.389-14.463-3.1385-36.865-2.4969-39.1 1.1198-1.2214 1.9762 5.0852 6.8794 12.552 9.759 6.9488 2.6798 18.318 5.396 27.048 6.462 4.6371 0.5662 22.899-0.1085 25.75-0.9514zm990.72 393.32c0.3663-3.4375 1.2839-8.275 2.0392-10.75 2.7724-9.0852 11.653-44.513 13.997-55.839 11.193-54.084 13.373-67.687 17.901-111.69 4.1064-39.899 5.0488-58.165 5.029-97.473-0.019-37.11-1.0803-62.011-4.008-94-2.9536-32.274-3.3877-36.656-4.9533-50-2.9258-24.939-12.014-84.959-17.035-112.5-3.2793-17.988-15.278-78.922-16.442-83.5-0.4896-1.925-2.5156-10.925-4.5023-20-10.648-48.637-23.447-98.517-32.427-126.37-15.399-47.764-19.019-58.427-27.371-80.627-2.9035-7.7173-14.152-35.194-19.036-46.5-1.9008-4.4-5.043-11.667-6.9826-16.149-4.5187-10.441-23.27-47.97-32.479-65.004-16.247-30.05-45.482-76.994-65.022-104.41-29.125-40.863-44.309-60.807-65.677-86.266-16.399-19.539-22.407-26.796-34.644-41.849-6.4044-7.8778-19.229-23.606-28.5-34.952-9.2706-11.346-20.456-25.24-24.856-30.875s-8.9368-11.385-10.082-12.776l-2.0816-2.5298-7.9184 2.0788c-4.3551 1.1433-12.643 2.8341-18.418 3.7572-20.329 3.2497-30.617 6.9165-40.5 14.435-6.2347 4.7427-10.715 7.0393-13.732 7.0393-2.0335 0-3.5145-2.4151-11.58-18.883-18.24-37.244-32.015-56.54-58.808-82.375-11.185-10.785-22.356-19.603-37.38-29.504-6.325-4.1684-12.689-8.3801-14.143-9.3593-1.4536-0.97914-12.301-6.7575-24.105-12.841-11.804-6.0833-22.293-11.978-23.308-13.099-1.7948-1.9832-1.792-2.1399 0.1018-5.7387 1.0709-2.0349 4.0311-5.9498 6.5782-8.6998 2.5472-2.75 6.1201-7.475 7.9399-10.5 1.8197-3.025 4.1247-6.5732 5.1222-7.8849 2.2969-3.0206 2.3251-6.0096 0.063-6.7536-2.135-0.70233-7.3855-2.9463-12.75-5.4491-31.522-14.707-83.318-28.938-129.5-35.581-18.186-2.616-80.234-2.5981-97 0.0279-55.274 8.6575-95.81 20.3-136.32 39.155-62.487 29.08-111.01 70.67-148.14 126.97-16.322 24.75-21.825 33.783-37.786 62.014-4.6643 8.25-10.004 17.566-11.867 20.702-10.189 17.158-17.659 29.375-23.416 38.298-3.5488 5.5-6.7708 10.675-7.1599 11.5-0.38908 0.825-4.1394 6.675-8.3342 13-40.032 60.362-56.614 98.939-64.048 149-2.5138 16.929-3.0468 54.109-1.032 72 3.3007 29.311 13.313 70.653 21.206 87.566 1.0437 2.2362 1.8976 4.3984 1.8976 4.8049s0.84709 2.6269 1.8824 4.9343c1.0353 2.3073 3.3035 7.4619 5.0404 11.455 4.3538 10.009 16.145 31.639 24.587 45.105 4.9391 7.8778 19.576 27.688 26.115 35.345 2.6814 3.1399 9.3753 10.953 14.875 17.362 13.501 15.734 22.467 26.77 22.485 27.679 8e-3 0.4125-0.44703 0.75-1.0116 0.75-1.3573 0-17.916-10.373-20.473-12.826-1.1-1.0548-4.925-4.01-8.5-6.5671-14.252-10.194-42.605-40.883-56.013-60.626-2.2334-3.2895-4.4455-5.9809-4.9154-5.9809-0.93786 0-14.116 17.551-21.892 29.158-7.9089 11.804-25.659 41.932-36.73 62.342-6.2348 11.495-8.1966 15.035-11.36 20.5-1.7511 3.025-3.8874 7.075-4.7474 9-4.2881 9.5983-26.913 46.102-37.188 60-11.199 15.148-34.194 38.108-49.484 49.407-19.451 14.375-37.57 24.399-66.168 36.606-83.731 35.74-100.88 45.634-131.35 75.766-16.111 15.932-27.412 30.356-40.86 52.148-10.621 17.212-11.981 19.072-13.942 19.072-1.9462 0-1.6974-5.9716 0.65819-15.797 6.5271-27.226 27.025-61.1 51.664-85.376 26.635-26.243 46.745-39.467 94.833-62.362 27.307-13.001 60.404-29.645 64.254-32.314 1.5101-1.0464 6.1206-4.0921 10.246-6.7683 11.634-7.5478 26.613-19.82 36.5-29.904 15.902-16.218 29.333-34.664 57.508-78.979 13.392-21.064 20.085-31.066 36.403-54.407 13.456-19.247 39.051-47.72 50.516-56.197 1.6905-1.2498 3.0736-3.0698 3.0736-4.0445 0-0.9746-3.1923-7.5275-7.094-14.562-20.691-37.304-36.504-90.97-40.894-138.79-3.5593-38.765 2.1953-84.839 15.367-123.03 6.6121-19.173 20.677-48.994 30.296-64.238 1.8289-2.8982 3.3252-5.5562 3.3252-5.9067s2.0565-3.8293 4.5701-7.7306c24.614-38.203 44.051-69.339 52.497-84.093 3.4634-6.05 7.79-13.341 9.6148-16.202 1.8248-2.8611 3.3178-5.492 3.3178-5.8465 0-1.1482 21.282-37.841 24.042-41.452 1.4715-1.925 3.3592-4.8233 4.1948-6.4406 1.4939-2.8916 1.4404-3.0354-3.2072-8.6201-15.233-18.305-23.956-44.072-25.369-74.939-1.9675-42.991 14.864-96.961 44.128-141.5 8.9635-13.642 27.685-32.315 38.482-38.382 15.919-8.9454 28.664-12.047 39.392-9.5859 13.029 2.9888 24.653 14.028 30.833 29.283 3.0549 7.5399 7.0192 25.733 8.9743 41.186 3.1553 24.938 8.7941 40.379 18.777 51.421l5.3533 5.9208 10.949-5.088c54.575-25.36 108.37-38.759 169.45-42.207 24.811-1.4005 52.393-0.30148 73.5 2.9285 39.348 6.0214 62.63 11.934 92.522 23.496 11.244 4.349 31.645 13.768 37.978 17.533 8.6743 5.1577 24.636 13.996 25.276 13.996 0.3557 0 1.1291-1.9125 1.7187-4.25 12.399-49.155 18.596-62.959 35.447-78.948 36-34.16 102.73-35.244 159.92-2.5988 17.46 9.9677 28.617 18.981 43.392 35.053 29.736 32.345 49.055 79.905 50.959 125.45 1.2001 28.71-3.9256 52.624-15.968 74.5-7.0465 12.8-22.421 27.869-36.52 35.793-2.3212 1.3045-4.2203 2.6918-4.2203 3.0829 0 0.391 2.0846 2.8956 4.6325 5.5658 2.5478 2.6702 8.8413 9.4938 13.985 15.164s21.847 23.64 37.118 39.933c50.125 53.483 65.291 70.403 86.356 96.343 34.392 42.35 63.655 83.154 84.563 117.91 23.977 39.862 25.88 43.249 41.095 73.15 14.15 27.806 21.846 44.3 30.259 64.85 2.1392 5.225 5.3022 12.875 7.0288 17 16.77 40.065 40.947 114.92 52.327 162 31.407 129.95 48.388 231.62 53.616 321 0.563 9.625 1.2558 20.875 1.5396 25 0.9984 14.51 1.28 71.686 0.4335 88-1.2239 23.585-4.7534 60.284-8.0307 83.5-3.229 22.874-10.371 57.379-17.077 82.5-8.9008 33.344-27.579 80.67-38.777 98.25-4.2057 6.603-5.4211 6.2067-4.5999-1.5zm-503.77-272c-1.4543-5.6866-2.6085-13.597-4.1951-28.75-0.9995-9.5459-0.6805-54.933 0.485-69 2.1178-25.561 8.545-64.969 14.108-86.5 1.4347-5.553 11.542-37.502 14.552-46 11.782-33.257 34-74.224 53.963-99.5 9.1896-11.635 33.467-35.614 41.388-40.878 6.1526-4.0892 6.5175-4.2044 6.8281-2.1558 0.3366 2.2206-1.45 5.471-13.485 24.534-14.251 22.573-33.951 61.661-43.948 87.202-24.593 62.827-32.288 93.409-54.925 218.3-1.944 10.725-4.87 25.932-6.5022 33.794s-2.9676 14.499-2.9676 14.75-0.8332 0.4564-1.8516 0.4564c-1.4341 0-2.2119-1.4092-3.45-6.25zm-859.7-82.782c-23.288-0.6755-29.619-1.0843-48-3.0994-12.711-1.3935-35.253-6.4618-41.732-9.3828-5.6844-2.5628-10.268-6.5259-10.268-8.8777 0-2.5971 7.2277-8.4806 16-13.024 25.178-13.041 54.437-22.05 94.25-29.018 2.0625-0.361 3.75-1.0586 3.75-1.5502 0-0.4917-2.422-4.2697-5.3822-8.3956-7.9814-11.124-9.8939-15.676-10.422-24.803-0.56036-9.68 0.89597-15.228 6.0053-22.88 4.301-6.4409 11.598-11.862 21.291-15.816 5.0048-2.0419 7.7622-2.4622 16.508-2.5165 14.889-0.092 21.408 2.5531 32.384 13.144 12.728 12.281 14.104 30.894 3.571 48.326-3.6025 5.9624-5.1948 11.098-3.8299 12.353 0.20625 0.1896 6.675 0.8383 14.375 1.4415 30.646 2.4006 82.697 16.996 98.428 27.601 4.9726 3.3521 8.4431 8.3996 7.4874 10.89-2.9174 7.6028-57.384 20.221-99.915 23.147-4.95 0.3406-10.8 0.7896-13 0.9978-4.2623 0.4034-30.12 1.4229-47.5 1.8728-5.775 0.1495-21.075-0.035-34-0.4098zm372.5-289.49c-15.743-2.7975-22.767-4.8758-36.5-10.8-26.12-11.267-44.879-28.32-56.301-51.181-3.9994-8.0047-5.782-13.206-9.6536-28.169-0.99064-3.8285-1.7099-4.5147-8.812-8.4079-23.746-13.017-38.477-33.985-44.908-63.923-2.3777-11.069-2.6286-36.578-0.37352-37.971 1.899-1.1731 3.0478-0.3925 3.0478 2.0708 0 1.9519 1.2047 6.1279 7.1832 24.9 3.4772 10.918 10.082 24.29 15.856 32.104 6.0047 8.1254 16.599 18.381 22.056 21.352 12.708 6.9168 28.847 6.5119 37.711-0.9461 3.0966-2.6056 3.1936-2.928 3.1936-10.609 0-5.9925-0.51759-9.0231-2.1251-12.443-2.5334-5.3896-10.063-12.246-17.389-15.833-15.064-7.3762-33.838-22.89-41.26-34.096-3.8688-5.8413-7.2349-16.066-7.2041-21.883 0.0313-5.9026 3.1493-12.165 7.0652-14.19 5.3808-2.7825 13.627-2.0411 33.163 2.9815 24.135 6.2048 28.077 6.1487 60.249-0.8574 10.718-2.3339 24.998-3.0103 33.554-1.5893 13.406 2.2264 20.6 6.4537 23.854 14.018 4.2201 9.8099 1.8531 18.226-7.8945 28.07-7.2561 7.328-15.707 12.329-37.197 22.011-7.3243 3.3-15.443 7.5514-18.042 9.4474-4.8612 3.5463-8.7706 9.6352-8.7794 13.674-9e-3 4.2364 3.4727 12.04 7.3251 16.416 4.0158 4.5622 7.1074 6.224 20.806 11.183 21.659 7.8413 37.98 10.155 58.96 8.358 35.79-3.0652 60.826-13.111 97.082-38.955 7.675-5.4709 23.568-19.919 39.082-35.53 13.888-13.974 13.686-14.511-6.4561-17.171-2.5888-0.3419-5.6721-1.4033-6.8518-2.3585l-2.1449-1.7369 3.9582-3.576c6.988-6.3133 23.649-8.5374 36.002-4.8059 6.2744 1.8953 15.493 10.676 19.176 18.264 6.6788 13.762 4.2013 35.994-2.9981 26.905-1.178-1.4872-3.8319-5.4345-5.8974-8.7719-4.1287-6.6705-12.184-13.973-14.452-13.103-0.791 0.3035-2.3826 2.687-3.5369 5.2965-6.7759 15.318-28.698 41.824-49.661 60.047-19.19 16.681-36.861 26.899-61.386 35.495-20.254 7.0986-46.462 9.9067-71.5 7.6607-13.048-1.1705-49.206-10.871-57.5-15.427-4.1928-2.3029-12.944-5.4003-15.287-5.411-1.2171-0.01-4.913 0.8625-8.213 1.9291s-7.9125 2.4392-10.25 3.0503c-2.3375 0.611-4.25 1.5525-4.25 2.0922 0 1.6883 9.4871 20.334 12.718 24.996 7.6465 11.033 22.355 23.086 35.997 29.498 16.783 7.889 38.342 13.828 54.331 14.966 4.6497 0.331 10.401 0.7581 12.78 0.9491 7.5322 0.6045 30.278-1.3308 41.174-3.5032 29.914-5.9643 59.853-17.169 86.228-32.272 14.219-8.1418 27.825-14.976 28.49-14.311 1.2035 1.2035-4.5445 8.1896-14.912 18.124-18.681 17.9-37.95 31.284-55.306 38.412-4.4 1.8072-9.35 3.8878-11 4.6236-6.2091 2.7691-26.401 8.5357-37 10.567-8.2921 1.5892-16.047 2.2005-31.5 2.483-18.437 0.3372-21.909 0.1246-34.5-2.113zm200.5-7.3516-2.5-0.8244 2.5-1.1523c1.375-0.6338 12.625-3.6375 25-6.6748 53.064-13.024 125.65-34.205 140.65-41.042 1.7332-0.79 3.4362-1.4363 3.7845-1.4363 1.2626 0 31.379-11.946 44.064-17.479 22.564-9.8414 69.28-35.204 80.5-43.705 1.375-1.0417 6.775-4.8821 12-8.5341 33.559-23.456 65.376-55.41 86.908-87.282 23.542-34.847 37.652-67.334 44.952-103.5 2.9761-14.743 5.934-36.361 6.8413-50 1.5695-23.595-0.3807-65.62-4.1765-90-2.1891-14.06-2.9132-23.5-1.8025-23.5 2.2978 0 12.231 26.045 16.751 43.922 3.4633 13.697 6.8454 29.982 8.9465 43.078 1.9699 12.278 2.3151 51.559 0.5896 67.094-5.427 48.86-21.756 93.266-49.787 135.39-17.956 26.985-48.44 58.936-78.078 81.835-18.069 13.961-58.34 38.474-77.145 46.96-9.9281 4.4797-13.962 6.2932-20.5 9.2163-6.4451 2.8814-37.264 14.335-52 19.326-10.634 3.6014-42.636 12.077-61 16.156-15.132 3.3609-46.741 8.283-67.5 10.511-16.667 1.7889-55.293 2.8627-59 1.6402zm-16.227-254.68c-11.843-2.8709-25.194-11.504-34.537-22.331-5.6854-6.5895-14.63-20.861-24.202-38.614-6.1343-11.378-18.062-29.132-23.514-35-7.7326-8.3227-13.47-17.311-16.188-25.362-2.4324-7.2034-2.5473-8.4356-2.0168-21.638 0.58412-14.537 3.0497-26.959 9.216-46.429 7.1378-22.538 18.246-37.114 33.935-44.527 9.9452-4.6991 18.016-5.9839 28.538-4.5431 10.219 1.3991 14.355 2.7658 21.605 7.1391 12.224 7.3732 25.128 22.482 30.201 35.36 7.8462 19.919 16.645 33.956 28.205 45 29.24 27.933 32.774 32.355 37.969 47.5 2.7879 8.1278 3.9185 28.594 2.1099 38.193-1.3117 6.9619-5.6386 19.909-7.9564 23.807-4.9282 8.2891-9.0827 13.969-13.559 18.536-18.728 19.111-47.083 28.417-69.807 22.908zm-56.272-132.01c4.4128-6.4072 12.028-13.191 18.443-16.43 9.5012-4.7969 23.992-1.077 37.917 9.7338 4.2041 3.2637 5.7686 3.9833 6.7997 3.1275 1.8778-1.5584 1.7161-2.5668-1.5031-9.3715-3.296-6.9669-11.436-14.972-18.825-18.514-3.5312-1.6925-7.1956-2.439-13.61-2.7724-8.2728-0.4301-9.1434-0.2763-15.136 2.674-8.0287 3.9525-13.713 9.4454-17.463 16.874-4.435 8.7856-5.4366 20.243-1.7697 20.243 0.72311 0 3.0394-2.5042 5.1474-5.5649zm-295.22 118.55c-8.5407-4.2679-20.533-16.981-25.923-27.482-4.6145-8.9893-8.5748-20.434-10.837-31.315-1.7499-8.4184-2.0007-23.082-0.4822-28.191 0.57111-1.9213 1.4802-5.7434 2.0202-8.4934 0.53997-2.75 2.8749-8.825 5.1888-13.5 3.8012-7.6801 6.0418-10.384 23.23-28.033 10.463-10.743 20.278-21.368 21.812-23.61s6.3399-12.887 10.68-23.655c8.6489-21.46 12.78-28.818 20.126-35.846 8.1672-7.8138 19.133-8.8232 29.782-2.7414 8.3784 4.7851 13.786 14.897 18.294 34.213 1.7696 7.5815 2.1339 12.209 2.0998 26.673-0.0459 19.44-1.1802 26.716-6.6821 42.86-4.3389 12.732-7.0567 17.951-18.038 34.64-5.0667 7.7-10.775 16.7-12.686 20-3.3979 5.8695-13.807 27.571-19.425 40.5-5.2009 11.968-13.828 22.83-20.311 25.573-5.5561 2.3507-12.058 1.8019-18.847-1.5909zm81.296-126.54c1.6388-8.7355-1.8797-19.408-8.6555-26.254-5.2462-5.3005-9.5746-7.1917-16.46-7.1917-9.7374 0-17.447 5.1722-22.514 15.104-2.0833 4.0837-2.3045 8.9614-0.43399 9.5735 0.55719 0.1823 3.2572-1.5239 6-3.7914 2.7428-2.2676 6.0287-4.5196 7.302-5.0044 3.7212-1.4169 11.389-0.9692 15.327 0.8947 4.6872 2.2188 10.963 9.5903 13.239 15.552 2.2648 5.9304 5.1931 6.4585 6.1951 1.1174z" fill="#fff"></path>
</svg></svg></g></g></svg></g></svg>